%TF.GenerationSoftware,KiCad,Pcbnew,(5.99.0-9376-g8dcf5404fc)*%
%TF.CreationDate,2021-02-24T21:32:48+01:00*%
%TF.ProjectId,gud70,67756437-302e-46b6-9963-61645f706362,rev?*%
%TF.SameCoordinates,Original*%
%TF.FileFunction,AssemblyDrawing,Top*%
%FSLAX46Y46*%
G04 Gerber Fmt 4.6, Leading zero omitted, Abs format (unit mm)*
G04 Created by KiCad (PCBNEW (5.99.0-9376-g8dcf5404fc)) date 2021-02-24 21:32:48*
%MOMM*%
%LPD*%
G01*
G04 APERTURE LIST*
%ADD10C,0.150000*%
%ADD11C,0.100000*%
G04 APERTURE END LIST*
D10*
X155008011Y-88391655D02*
X155055630Y-88248798D01*
X155055630Y-88010703D01*
X155008011Y-87915465D01*
X154960392Y-87867846D01*
X154865154Y-87820227D01*
X154769916Y-87820227D01*
X154674678Y-87867846D01*
X154627059Y-87915465D01*
X154579440Y-88010703D01*
X154531821Y-88201179D01*
X154484202Y-88296417D01*
X154436583Y-88344036D01*
X154341345Y-88391655D01*
X154246107Y-88391655D01*
X154150869Y-88344036D01*
X154103250Y-88296417D01*
X154055630Y-88201179D01*
X154055630Y-87963084D01*
X154103250Y-87820227D01*
X154055630Y-87486893D02*
X155055630Y-87248798D01*
X154341345Y-87058322D01*
X155055630Y-86867846D01*
X154055630Y-86629751D01*
X155150869Y-86486893D02*
X155150869Y-85724989D01*
X155055630Y-85486893D02*
X154055630Y-85486893D01*
X154055630Y-85105941D01*
X154103250Y-85010703D01*
X154150869Y-84963084D01*
X154246107Y-84915465D01*
X154388964Y-84915465D01*
X154484202Y-84963084D01*
X154531821Y-85010703D01*
X154579440Y-85105941D01*
X154579440Y-85486893D01*
X154055630Y-84486893D02*
X154865154Y-84486893D01*
X154960392Y-84439274D01*
X155008011Y-84391655D01*
X155055630Y-84296417D01*
X155055630Y-84105941D01*
X155008011Y-84010703D01*
X154960392Y-83963084D01*
X154865154Y-83915465D01*
X154055630Y-83915465D01*
X155008011Y-83486893D02*
X155055630Y-83344036D01*
X155055630Y-83105941D01*
X155008011Y-83010703D01*
X154960392Y-82963084D01*
X154865154Y-82915465D01*
X154769916Y-82915465D01*
X154674678Y-82963084D01*
X154627059Y-83010703D01*
X154579440Y-83105941D01*
X154531821Y-83296417D01*
X154484202Y-83391655D01*
X154436583Y-83439274D01*
X154341345Y-83486893D01*
X154246107Y-83486893D01*
X154150869Y-83439274D01*
X154103250Y-83391655D01*
X154055630Y-83296417D01*
X154055630Y-83058322D01*
X154103250Y-82915465D01*
X155055630Y-82486893D02*
X154055630Y-82486893D01*
X154531821Y-82486893D02*
X154531821Y-81915465D01*
X155055630Y-81915465D02*
X154055630Y-81915465D01*
X162508011Y-86463084D02*
X162555630Y-86320227D01*
X162555630Y-86082131D01*
X162508011Y-85986893D01*
X162460392Y-85939274D01*
X162365154Y-85891655D01*
X162269916Y-85891655D01*
X162174678Y-85939274D01*
X162127059Y-85986893D01*
X162079440Y-86082131D01*
X162031821Y-86272608D01*
X161984202Y-86367846D01*
X161936583Y-86415465D01*
X161841345Y-86463084D01*
X161746107Y-86463084D01*
X161650869Y-86415465D01*
X161603250Y-86367846D01*
X161555630Y-86272608D01*
X161555630Y-86034512D01*
X161603250Y-85891655D01*
X161555630Y-85558322D02*
X162555630Y-85320227D01*
X161841345Y-85129751D01*
X162555630Y-84939274D01*
X161555630Y-84701179D01*
X162555630Y-83796417D02*
X162555630Y-84367846D01*
X162555630Y-84082131D02*
X161555630Y-84082131D01*
X161698488Y-84177370D01*
X161793726Y-84272608D01*
X161841345Y-84367846D01*
X49927380Y-38586904D02*
X50736904Y-38586904D01*
X50832142Y-38539285D01*
X50879761Y-38491666D01*
X50927380Y-38396428D01*
X50927380Y-38205952D01*
X50879761Y-38110714D01*
X50832142Y-38063095D01*
X50736904Y-38015476D01*
X49927380Y-38015476D01*
X50879761Y-37586904D02*
X50927380Y-37444047D01*
X50927380Y-37205952D01*
X50879761Y-37110714D01*
X50832142Y-37063095D01*
X50736904Y-37015476D01*
X50641666Y-37015476D01*
X50546428Y-37063095D01*
X50498809Y-37110714D01*
X50451190Y-37205952D01*
X50403571Y-37396428D01*
X50355952Y-37491666D01*
X50308333Y-37539285D01*
X50213095Y-37586904D01*
X50117857Y-37586904D01*
X50022619Y-37539285D01*
X49975000Y-37491666D01*
X49927380Y-37396428D01*
X49927380Y-37158333D01*
X49975000Y-37015476D01*
X50403571Y-36253571D02*
X50451190Y-36110714D01*
X50498809Y-36063095D01*
X50594047Y-36015476D01*
X50736904Y-36015476D01*
X50832142Y-36063095D01*
X50879761Y-36110714D01*
X50927380Y-36205952D01*
X50927380Y-36586904D01*
X49927380Y-36586904D01*
X49927380Y-36253571D01*
X49975000Y-36158333D01*
X50022619Y-36110714D01*
X50117857Y-36063095D01*
X50213095Y-36063095D01*
X50308333Y-36110714D01*
X50355952Y-36158333D01*
X50403571Y-36253571D01*
X50403571Y-36586904D01*
X37651666Y-36777380D02*
X37651666Y-37491666D01*
X37604047Y-37634523D01*
X37508809Y-37729761D01*
X37365952Y-37777380D01*
X37270714Y-37777380D01*
X38651666Y-37777380D02*
X38080238Y-37777380D01*
X38365952Y-37777380D02*
X38365952Y-36777380D01*
X38270714Y-36920238D01*
X38175476Y-37015476D01*
X38080238Y-37063095D01*
X324872619Y-19955952D02*
X324872619Y-19479761D01*
X325872619Y-19479761D01*
X325396428Y-20289285D02*
X325396428Y-20622619D01*
X324872619Y-20765476D02*
X324872619Y-20289285D01*
X325872619Y-20289285D01*
X325872619Y-20765476D01*
X324872619Y-21194047D02*
X325872619Y-21194047D01*
X325872619Y-21432142D01*
X325825000Y-21575000D01*
X325729761Y-21670238D01*
X325634523Y-21717857D01*
X325444047Y-21765476D01*
X325301190Y-21765476D01*
X325110714Y-21717857D01*
X325015476Y-21670238D01*
X324920238Y-21575000D01*
X324872619Y-21432142D01*
X324872619Y-21194047D01*
X324872619Y-22717857D02*
X324872619Y-22146428D01*
X324872619Y-22432142D02*
X325872619Y-22432142D01*
X325729761Y-22336904D01*
X325634523Y-22241666D01*
X325586904Y-22146428D01*
X325777380Y-37194047D02*
X325777380Y-37670238D01*
X324777380Y-37670238D01*
X325253571Y-36860714D02*
X325253571Y-36527380D01*
X325777380Y-36384523D02*
X325777380Y-36860714D01*
X324777380Y-36860714D01*
X324777380Y-36384523D01*
X325777380Y-35955952D02*
X324777380Y-35955952D01*
X324777380Y-35717857D01*
X324825000Y-35575000D01*
X324920238Y-35479761D01*
X325015476Y-35432142D01*
X325205952Y-35384523D01*
X325348809Y-35384523D01*
X325539285Y-35432142D01*
X325634523Y-35479761D01*
X325729761Y-35575000D01*
X325777380Y-35717857D01*
X325777380Y-35955952D01*
X325110714Y-34527380D02*
X325777380Y-34527380D01*
X324729761Y-34765476D02*
X325444047Y-35003571D01*
X325444047Y-34384523D01*
X324872619Y-29955952D02*
X324872619Y-29479761D01*
X325872619Y-29479761D01*
X325396428Y-30289285D02*
X325396428Y-30622619D01*
X324872619Y-30765476D02*
X324872619Y-30289285D01*
X325872619Y-30289285D01*
X325872619Y-30765476D01*
X324872619Y-31194047D02*
X325872619Y-31194047D01*
X325872619Y-31432142D01*
X325825000Y-31575000D01*
X325729761Y-31670238D01*
X325634523Y-31717857D01*
X325444047Y-31765476D01*
X325301190Y-31765476D01*
X325110714Y-31717857D01*
X325015476Y-31670238D01*
X324920238Y-31575000D01*
X324872619Y-31432142D01*
X324872619Y-31194047D01*
X325872619Y-32098809D02*
X325872619Y-32717857D01*
X325491666Y-32384523D01*
X325491666Y-32527380D01*
X325444047Y-32622619D01*
X325396428Y-32670238D01*
X325301190Y-32717857D01*
X325063095Y-32717857D01*
X324967857Y-32670238D01*
X324920238Y-32622619D01*
X324872619Y-32527380D01*
X324872619Y-32241666D01*
X324920238Y-32146428D01*
X324967857Y-32098809D01*
X325777380Y-27194047D02*
X325777380Y-27670238D01*
X324777380Y-27670238D01*
X325253571Y-26860714D02*
X325253571Y-26527380D01*
X325777380Y-26384523D02*
X325777380Y-26860714D01*
X324777380Y-26860714D01*
X324777380Y-26384523D01*
X325777380Y-25955952D02*
X324777380Y-25955952D01*
X324777380Y-25717857D01*
X324825000Y-25575000D01*
X324920238Y-25479761D01*
X325015476Y-25432142D01*
X325205952Y-25384523D01*
X325348809Y-25384523D01*
X325539285Y-25432142D01*
X325634523Y-25479761D01*
X325729761Y-25575000D01*
X325777380Y-25717857D01*
X325777380Y-25955952D01*
X324872619Y-25003571D02*
X324825000Y-24955952D01*
X324777380Y-24860714D01*
X324777380Y-24622619D01*
X324825000Y-24527380D01*
X324872619Y-24479761D01*
X324967857Y-24432142D01*
X325063095Y-24432142D01*
X325205952Y-24479761D01*
X325777380Y-25051190D01*
X325777380Y-24432142D01*
D11*
X155753250Y-83929751D02*
X155753250Y-86329751D01*
X156253250Y-83429751D02*
X156253250Y-81929751D01*
X156253250Y-86829751D02*
X156253250Y-88329751D01*
X155753250Y-86329751D02*
X157153250Y-87729751D01*
X160353250Y-86129751D02*
X159353250Y-87129751D01*
X159953250Y-81929751D02*
X159953250Y-82929751D01*
X160453250Y-82429751D02*
X159953250Y-82429751D01*
X160453250Y-83429751D02*
X160453250Y-81929751D01*
X157353250Y-83129751D02*
X159353250Y-83129751D01*
X159353250Y-83129751D02*
X160353250Y-84129751D01*
X157353250Y-87129751D02*
X156353250Y-86129751D01*
X160353250Y-84129751D02*
X160353250Y-86129751D01*
X159953250Y-88329751D02*
X159953250Y-87329751D01*
X156253250Y-81929751D02*
X156753250Y-81929751D01*
X160453250Y-81929751D02*
X159953250Y-81929751D01*
X156253250Y-87829751D02*
X156753250Y-87829751D01*
X157153250Y-82529751D02*
X155753250Y-83929751D01*
X160453250Y-87829751D02*
X159953250Y-87829751D01*
X159553250Y-87729751D02*
X160953250Y-86329751D01*
X156753250Y-81929751D02*
X156753250Y-82929751D01*
X156353250Y-84129751D02*
X157353250Y-83129751D01*
X157153250Y-87729751D02*
X159553250Y-87729751D01*
X159353250Y-87129751D02*
X157353250Y-87129751D01*
X160453250Y-88329751D02*
X159953250Y-88329751D01*
X160453250Y-86829751D02*
X160453250Y-88329751D01*
X156753250Y-88329751D02*
X156753250Y-87329751D01*
X159553250Y-82529751D02*
X157153250Y-82529751D01*
X160953250Y-83929751D02*
X159553250Y-82529751D01*
X156253250Y-88329751D02*
X156753250Y-88329751D01*
X156253250Y-82429751D02*
X156753250Y-82429751D01*
X156353250Y-86129751D02*
X156353250Y-84129751D01*
X160953250Y-86329751D02*
X160953250Y-83929751D01*
X159353250Y-85129751D02*
G75*
G03*
X159353250Y-85129751I-1000000J0D01*
G01*
X26555000Y-36055000D02*
X49415000Y-36055000D01*
X26555000Y-37960000D02*
X26555000Y-36055000D01*
X49415000Y-38595000D02*
X27190000Y-38595000D01*
X27190000Y-38595000D02*
X26555000Y-37960000D01*
X49415000Y-36055000D02*
X49415000Y-38595000D01*
M02*
