%TF.GenerationSoftware,KiCad,Pcbnew,(5.99.0-9376-g8dcf5404fc)*%
%TF.CreationDate,2021-02-24T21:32:48+01:00*%
%TF.ProjectId,gud70,67756437-302e-46b6-9963-61645f706362,rev?*%
%TF.SameCoordinates,Original*%
%TF.FileFunction,Soldermask,Top*%
%TF.FilePolarity,Negative*%
%FSLAX46Y46*%
G04 Gerber Fmt 4.6, Leading zero omitted, Abs format (unit mm)*
G04 Created by KiCad (PCBNEW (5.99.0-9376-g8dcf5404fc)) date 2021-02-24 21:32:48*
%MOMM*%
%LPD*%
G01*
G04 APERTURE LIST*
%ADD10C,2.286000*%
%ADD11C,1.701800*%
%ADD12C,3.987800*%
%ADD13R,1.000000X1.700000*%
%ADD14C,3.600000*%
%ADD15R,1.800000X3.000000*%
%ADD16O,1.800000X3.000000*%
%ADD17C,3.048000*%
%ADD18R,1.000000X1.000000*%
%ADD19C,2.200000*%
%ADD20R,1.600000X1.600000*%
%ADD21C,1.600000*%
%ADD22R,1.700000X1.700000*%
%ADD23O,1.700000X1.700000*%
G04 APERTURE END LIST*
D10*
X150177500Y-61595000D03*
X143827500Y-64135000D03*
D11*
X142557500Y-66675000D03*
X152717500Y-66675000D03*
D12*
X147637500Y-66675000D03*
D13*
X160253250Y-81979751D03*
X160253250Y-88279751D03*
X156453250Y-81979751D03*
X156453250Y-88279751D03*
D14*
X26193772Y-85725072D03*
D10*
X14446250Y-61595000D03*
X8096250Y-64135000D03*
D11*
X16986250Y-66675000D03*
X6826250Y-66675000D03*
D12*
X11906250Y-66675000D03*
D10*
X97790000Y-23495000D03*
X91440000Y-26035000D03*
D11*
X90170000Y-28575000D03*
X100330000Y-28575000D03*
D12*
X95250000Y-28575000D03*
D10*
X73977500Y-61595000D03*
X67627500Y-64135000D03*
D11*
X66357500Y-66675000D03*
X76517500Y-66675000D03*
D12*
X71437500Y-66675000D03*
D10*
X16827500Y-80645000D03*
X10477500Y-83185000D03*
D12*
X14287500Y-85725000D03*
D11*
X9207500Y-85725000D03*
X19367500Y-85725000D03*
D10*
X207327500Y-80645000D03*
X200977500Y-83185000D03*
D12*
X204787500Y-85725000D03*
D11*
X199707500Y-85725000D03*
X209867500Y-85725000D03*
D10*
X54927500Y-61595000D03*
X48577500Y-64135000D03*
D11*
X47307500Y-66675000D03*
X57467500Y-66675000D03*
D12*
X52387500Y-66675000D03*
D10*
X78740000Y-23495000D03*
X72390000Y-26035000D03*
D11*
X71120000Y-28575000D03*
X81280000Y-28575000D03*
D12*
X76200000Y-28575000D03*
D10*
X83502500Y-42545000D03*
X77152500Y-45085000D03*
D11*
X75882500Y-47625000D03*
X86042500Y-47625000D03*
D12*
X80962500Y-47625000D03*
D10*
X126365000Y-4445000D03*
X120015000Y-6985000D03*
D11*
X118745000Y-9525000D03*
X128905000Y-9525000D03*
D12*
X123825000Y-9525000D03*
D10*
X107315000Y-4445000D03*
X100965000Y-6985000D03*
D11*
X99695000Y-9525000D03*
X109855000Y-9525000D03*
D12*
X104775000Y-9525000D03*
D10*
X278765000Y-80645000D03*
X272415000Y-83185000D03*
D11*
X271145000Y-85725000D03*
X281305000Y-85725000D03*
D12*
X276225000Y-85725000D03*
D10*
X259715216Y-4445008D03*
X253365216Y-6985008D03*
D11*
X252095216Y-9525008D03*
X262255216Y-9525008D03*
D12*
X257175216Y-9525008D03*
D10*
X274002728Y-23495024D03*
X267652728Y-26035024D03*
D12*
X271462728Y-28575024D03*
D11*
X266382728Y-28575024D03*
X276542728Y-28575024D03*
D10*
X316865000Y-42545000D03*
X310515000Y-45085000D03*
D11*
X309245000Y-47625000D03*
X319405000Y-47625000D03*
D12*
X314325000Y-47625000D03*
D10*
X252571250Y-61595000D03*
X246221250Y-64135000D03*
D11*
X255111250Y-66675000D03*
X244951250Y-66675000D03*
D12*
X250031250Y-66675000D03*
D10*
X193040000Y-23495000D03*
X186690000Y-26035000D03*
D11*
X185420000Y-28575000D03*
X195580000Y-28575000D03*
D12*
X190500000Y-28575000D03*
D10*
X235902500Y-42545000D03*
X229552500Y-45085000D03*
D11*
X228282500Y-47625000D03*
X238442500Y-47625000D03*
D12*
X233362500Y-47625000D03*
D10*
X159702500Y-42545000D03*
X153352500Y-45085000D03*
D11*
X152082500Y-47625000D03*
X162242500Y-47625000D03*
D12*
X157162500Y-47625000D03*
D10*
X278765232Y-4445008D03*
X272415232Y-6985008D03*
D11*
X271145232Y-9525008D03*
X281305232Y-9525008D03*
D12*
X276225232Y-9525008D03*
D14*
X304800000Y-76200000D03*
D15*
X27825000Y-37325000D03*
D16*
X30365000Y-37325000D03*
X32905000Y-37325000D03*
X35445000Y-37325000D03*
X37985000Y-37325000D03*
X40525000Y-37325000D03*
X43065000Y-37325000D03*
X45605000Y-37325000D03*
X48145000Y-37325000D03*
D14*
X161925000Y-19825000D03*
D10*
X297815000Y-80645000D03*
X291465000Y-83185000D03*
D11*
X290195000Y-85725000D03*
X300355000Y-85725000D03*
D12*
X295275000Y-85725000D03*
D10*
X14446250Y-42545000D03*
X8096250Y-45085000D03*
D11*
X16986250Y-47625000D03*
X6826250Y-47625000D03*
D12*
X11906250Y-47625000D03*
D10*
X316865000Y-80645000D03*
X310515000Y-83185000D03*
D11*
X309245000Y-85725000D03*
X319405000Y-85725000D03*
D12*
X314325000Y-85725000D03*
D10*
X178752500Y-42545000D03*
X172402500Y-45085000D03*
D11*
X171132500Y-47625000D03*
X181292500Y-47625000D03*
D12*
X176212500Y-47625000D03*
D10*
X12065000Y-4445000D03*
X5715000Y-6985000D03*
D11*
X4445000Y-9525000D03*
X14605000Y-9525000D03*
D12*
X9525000Y-9525000D03*
D10*
X45402500Y-42545000D03*
X39052500Y-45085000D03*
D11*
X37782500Y-47625000D03*
X47942500Y-47625000D03*
D12*
X42862500Y-47625000D03*
D14*
X3325001Y-28575000D03*
D10*
X121602500Y-42545000D03*
X115252500Y-45085000D03*
D11*
X113982500Y-47625000D03*
X124142500Y-47625000D03*
D12*
X119062500Y-47625000D03*
D10*
X197802500Y-42545000D03*
X191452500Y-45085000D03*
D11*
X190182500Y-47625000D03*
X200342500Y-47625000D03*
D12*
X195262500Y-47625000D03*
D10*
X88265000Y-4445000D03*
X81915000Y-6985000D03*
D11*
X80645000Y-9525000D03*
X90805000Y-9525000D03*
D12*
X85725000Y-9525000D03*
D10*
X240665000Y-4445000D03*
X234315000Y-6985000D03*
D11*
X233045000Y-9525000D03*
X243205000Y-9525000D03*
D12*
X238125000Y-9525000D03*
D10*
X278765000Y-61595000D03*
X272415000Y-64135000D03*
D11*
X271145000Y-66675000D03*
X281305000Y-66675000D03*
D12*
X276225000Y-66675000D03*
D10*
X250190000Y-23495000D03*
X243840000Y-26035000D03*
D11*
X242570000Y-28575000D03*
X252730000Y-28575000D03*
D12*
X247650000Y-28575000D03*
D10*
X276383750Y-33020000D03*
X270033750Y-35560000D03*
D11*
X268763750Y-38100000D03*
D12*
X273843750Y-38100000D03*
D11*
X278923750Y-38100000D03*
D17*
X280828750Y-50038000D03*
X280828750Y-26162000D03*
D12*
X265588750Y-26162000D03*
X265588750Y-50038000D03*
D18*
X325325000Y-20125000D03*
X325325000Y-22025000D03*
D10*
X221615000Y-4445000D03*
X215265000Y-6985000D03*
D11*
X213995000Y-9525000D03*
X224155000Y-9525000D03*
D12*
X219075000Y-9525000D03*
D10*
X216852500Y-42545000D03*
X210502500Y-45085000D03*
D11*
X209232500Y-47625000D03*
X219392500Y-47625000D03*
D12*
X214312500Y-47625000D03*
D10*
X262096468Y-61595056D03*
X255746468Y-64135056D03*
D11*
X264636468Y-66675056D03*
X254476468Y-66675056D03*
D12*
X259556468Y-66675056D03*
D17*
X271494468Y-59690056D03*
D12*
X271494468Y-74930056D03*
X247618468Y-74930056D03*
D17*
X247618468Y-59690056D03*
D10*
X19208750Y-42545000D03*
X12858750Y-45085000D03*
D11*
X21748750Y-47625000D03*
X11588750Y-47625000D03*
D12*
X16668750Y-47625000D03*
D10*
X145415000Y-4445000D03*
X139065000Y-6985000D03*
D11*
X137795000Y-9525000D03*
X147955000Y-9525000D03*
D12*
X142875000Y-9525000D03*
D10*
X297815000Y-42545000D03*
X291465000Y-45085000D03*
D11*
X290195000Y-47625000D03*
X300355000Y-47625000D03*
D12*
X295275000Y-47625000D03*
D10*
X154940000Y-23495000D03*
X148590000Y-26035000D03*
D11*
X147320000Y-28575000D03*
X157480000Y-28575000D03*
D12*
X152400000Y-28575000D03*
D10*
X297815000Y-4445000D03*
X291465000Y-6985000D03*
D11*
X290195000Y-9525000D03*
X300355000Y-9525000D03*
D12*
X295275000Y-9525000D03*
X85725000Y-77470000D03*
D17*
X85725000Y-92710000D03*
D12*
X180975000Y-77470000D03*
D17*
X180975000Y-92710000D03*
D10*
X145415000Y-80645000D03*
X139065000Y-83185000D03*
D11*
X147955000Y-85725000D03*
X137795000Y-85725000D03*
D12*
X142875000Y-85725000D03*
D10*
X316865000Y-61595000D03*
X310515000Y-64135000D03*
D11*
X309245000Y-66675000D03*
X319405000Y-66675000D03*
D12*
X314325000Y-66675000D03*
D10*
X69215000Y-4445000D03*
X62865000Y-6985000D03*
D11*
X61595000Y-9525000D03*
X71755000Y-9525000D03*
D12*
X66675000Y-9525000D03*
D10*
X131127500Y-61595000D03*
X124777500Y-64135000D03*
D11*
X123507500Y-66675000D03*
X133667500Y-66675000D03*
D12*
X128587500Y-66675000D03*
D10*
X64452500Y-80645000D03*
X58102500Y-83185000D03*
D12*
X61912500Y-85725000D03*
D11*
X56832500Y-85725000D03*
X66992500Y-85725000D03*
D10*
X16827500Y-23495000D03*
X10477500Y-26035000D03*
D12*
X14287500Y-28575000D03*
D11*
X9207500Y-28575000D03*
X19367500Y-28575000D03*
D18*
X325325000Y-37025000D03*
X325325000Y-35125000D03*
D10*
X173990000Y-23495000D03*
X167640000Y-26035000D03*
D11*
X166370000Y-28575000D03*
X176530000Y-28575000D03*
D12*
X171450000Y-28575000D03*
D10*
X266858750Y-42545000D03*
X260508750Y-45085000D03*
D17*
X276256750Y-40640000D03*
D12*
X276256750Y-55880000D03*
D11*
X269398750Y-47625000D03*
X259238750Y-47625000D03*
D12*
X252380750Y-55880000D03*
X264318750Y-47625000D03*
D17*
X252380750Y-40640000D03*
D10*
X140652500Y-42545000D03*
X134302500Y-45085000D03*
D11*
X133032500Y-47625000D03*
X143192500Y-47625000D03*
D12*
X138112500Y-47625000D03*
D10*
X254952500Y-42545000D03*
X248602500Y-45085000D03*
D11*
X247332500Y-47625000D03*
X257492500Y-47625000D03*
D12*
X252412500Y-47625000D03*
D10*
X207327500Y-61595000D03*
X200977500Y-64135000D03*
D11*
X199707500Y-66675000D03*
X209867500Y-66675000D03*
D12*
X204787500Y-66675000D03*
D10*
X64452500Y-42545000D03*
X58102500Y-45085000D03*
D11*
X56832500Y-47625000D03*
X66992500Y-47625000D03*
D12*
X61912500Y-47625000D03*
D10*
X297815000Y-61595000D03*
X291465000Y-64135000D03*
D11*
X290195000Y-66675000D03*
X300355000Y-66675000D03*
D12*
X295275000Y-66675000D03*
D11*
X271780000Y-9525000D03*
D17*
X254762000Y-2540000D03*
D12*
X266700000Y-9525000D03*
D17*
X278638000Y-2540000D03*
D11*
X261620000Y-9525000D03*
D12*
X278638000Y-17780000D03*
X254762000Y-17780000D03*
D10*
X269240000Y-4445000D03*
X262890000Y-6985000D03*
X297815000Y-23495000D03*
X291465000Y-26035000D03*
D11*
X290195000Y-28575000D03*
X300355000Y-28575000D03*
D12*
X295275000Y-28575000D03*
D10*
X35877500Y-61595000D03*
X29527500Y-64135000D03*
D11*
X28257500Y-66675000D03*
X38417500Y-66675000D03*
D12*
X33337500Y-66675000D03*
D14*
X193725000Y-85725000D03*
D10*
X202565000Y-4445000D03*
X196215000Y-6985000D03*
D11*
X194945000Y-9525000D03*
X205105000Y-9525000D03*
D12*
X200025000Y-9525000D03*
D10*
X59690000Y-23495000D03*
X53340000Y-26035000D03*
D11*
X52070000Y-28575000D03*
X62230000Y-28575000D03*
D12*
X57150000Y-28575000D03*
D10*
X31115000Y-4445000D03*
X24765000Y-6985000D03*
D11*
X23495000Y-9525000D03*
X33655000Y-9525000D03*
D12*
X28575000Y-9525000D03*
D10*
X40640000Y-23495000D03*
X34290000Y-26035000D03*
D11*
X33020000Y-28575000D03*
X43180000Y-28575000D03*
D12*
X38100000Y-28575000D03*
D10*
X259715216Y-80645072D03*
X253365216Y-83185072D03*
D11*
X252095216Y-85725072D03*
X262255216Y-85725072D03*
D12*
X257175216Y-85725072D03*
D10*
X135890000Y-23495000D03*
X129540000Y-26035000D03*
D11*
X128270000Y-28575000D03*
X138430000Y-28575000D03*
D12*
X133350000Y-28575000D03*
D10*
X226377500Y-61595000D03*
X220027500Y-64135000D03*
D11*
X218757500Y-66675000D03*
X228917500Y-66675000D03*
D12*
X223837500Y-66675000D03*
D10*
X231140000Y-80645000D03*
X224790000Y-83185000D03*
D11*
X223520000Y-85725000D03*
X233680000Y-85725000D03*
D12*
X228600000Y-85725000D03*
D10*
X212090000Y-23495000D03*
X205740000Y-26035000D03*
D11*
X204470000Y-28575000D03*
X214630000Y-28575000D03*
D12*
X209550000Y-28575000D03*
D10*
X112077500Y-61595000D03*
X105727500Y-64135000D03*
D11*
X104457500Y-66675000D03*
X114617500Y-66675000D03*
D12*
X109537500Y-66675000D03*
D10*
X235902696Y-80645072D03*
X229552696Y-83185072D03*
D11*
X228282696Y-85725072D03*
D12*
X233362696Y-85725072D03*
D11*
X238442696Y-85725072D03*
D18*
X325325000Y-30125000D03*
X325325000Y-32025000D03*
D10*
X316865000Y-4445000D03*
X310515000Y-6985000D03*
D11*
X309245000Y-9525000D03*
X319405000Y-9525000D03*
D12*
X314325000Y-9525000D03*
D19*
X322025000Y-57625000D03*
X322025000Y-18625000D03*
D10*
X23971250Y-61595000D03*
X17621250Y-64135000D03*
D17*
X33369250Y-59690000D03*
D12*
X33369250Y-74930000D03*
D11*
X26511250Y-66675000D03*
X16351250Y-66675000D03*
D12*
X9493250Y-74930000D03*
X21431250Y-66675000D03*
D17*
X9493250Y-59690000D03*
D10*
X254952500Y-80645000D03*
X248602500Y-83185000D03*
D12*
X252412500Y-85725000D03*
D11*
X247332500Y-85725000D03*
X257492500Y-85725000D03*
D10*
X183515000Y-4445000D03*
X177165000Y-6985000D03*
D11*
X175895000Y-9525000D03*
X186055000Y-9525000D03*
D12*
X180975000Y-9525000D03*
D14*
X304800000Y-19050000D03*
D10*
X231140000Y-23495000D03*
X224790000Y-26035000D03*
D11*
X223520000Y-28575000D03*
X233680000Y-28575000D03*
D12*
X228600000Y-28575000D03*
D10*
X116840000Y-23495000D03*
X110490000Y-26035000D03*
D11*
X109220000Y-28575000D03*
X119380000Y-28575000D03*
D12*
X114300000Y-28575000D03*
D10*
X316865000Y-23495000D03*
X310515000Y-26035000D03*
D11*
X309245000Y-28575000D03*
X319405000Y-28575000D03*
D12*
X314325000Y-28575000D03*
D10*
X102552500Y-42545000D03*
X96202500Y-45085000D03*
D11*
X94932500Y-47625000D03*
X105092500Y-47625000D03*
D12*
X100012500Y-47625000D03*
D10*
X169227500Y-61595000D03*
X162877500Y-64135000D03*
D11*
X161607500Y-66675000D03*
X171767500Y-66675000D03*
D12*
X166687500Y-66675000D03*
D10*
X50165000Y-4445000D03*
X43815000Y-6985000D03*
D11*
X42545000Y-9525000D03*
X52705000Y-9525000D03*
D12*
X47625000Y-9525000D03*
D10*
X40640000Y-80645000D03*
X34290000Y-83185000D03*
D11*
X33020000Y-85725000D03*
X43180000Y-85725000D03*
D12*
X38100000Y-85725000D03*
D18*
X325325000Y-27025000D03*
X325325000Y-25125000D03*
D10*
X164465000Y-4445000D03*
X158115000Y-6985000D03*
D11*
X156845000Y-9525000D03*
X167005000Y-9525000D03*
D12*
X161925000Y-9525000D03*
D10*
X188277500Y-61595000D03*
X181927500Y-64135000D03*
D11*
X180657500Y-66675000D03*
X190817500Y-66675000D03*
D12*
X185737500Y-66675000D03*
D10*
X93027500Y-61595000D03*
X86677500Y-64135000D03*
D11*
X85407500Y-66675000D03*
X95567500Y-66675000D03*
D12*
X90487500Y-66675000D03*
D20*
X44648467Y-70485048D03*
D21*
X44648467Y-62865048D03*
D20*
X179189205Y-32385016D03*
D21*
X179189205Y-24765016D03*
D20*
X207764229Y-13335000D03*
D21*
X207764229Y-5715000D03*
D20*
X49410971Y-89535064D03*
D21*
X49410971Y-81915064D03*
D20*
X102989141Y-32385016D03*
D21*
X102989141Y-24765016D03*
D20*
X264914285Y-89535072D03*
D21*
X264914285Y-81915072D03*
D20*
X306586187Y-89535064D03*
D21*
X306586187Y-81915064D03*
D20*
X79176621Y-70485048D03*
D21*
X79176621Y-62865048D03*
D20*
X283964293Y-70485048D03*
D21*
X283964293Y-62865048D03*
D20*
X136326669Y-70485048D03*
D21*
X136326669Y-62865048D03*
D20*
X88701629Y-51435032D03*
D21*
X88701629Y-43815032D03*
D20*
X160139189Y-32385016D03*
D21*
X160139189Y-24765016D03*
D20*
X212526733Y-70485048D03*
D21*
X212526733Y-62865048D03*
D20*
X188714213Y-13335000D03*
D21*
X188714213Y-5715000D03*
D20*
X74414117Y-13335000D03*
D21*
X74414117Y-5715000D03*
D20*
X303014309Y-51435032D03*
D21*
X303014309Y-43815032D03*
D20*
X244673635Y-51434968D03*
D21*
X244673635Y-43814968D03*
D20*
X242292391Y-70485056D03*
D21*
X242292391Y-62865056D03*
D20*
X272058033Y-51435032D03*
D21*
X272058033Y-43815032D03*
D20*
X283964293Y-89535064D03*
D21*
X283964293Y-81915064D03*
D20*
X198239221Y-32384952D03*
D21*
X198239221Y-24764952D03*
D20*
X24407825Y-51434968D03*
D21*
X24407825Y-43814968D03*
D20*
X255389269Y-32384952D03*
D21*
X255389269Y-24764952D03*
D20*
X241101765Y-89535064D03*
D21*
X241101765Y-81915064D03*
D20*
X22026573Y-32384952D03*
D21*
X22026573Y-24764952D03*
D20*
X203001725Y-51435032D03*
D21*
X203001725Y-43815032D03*
D20*
X117276653Y-70485048D03*
D21*
X117276653Y-62865048D03*
D20*
X212526733Y-89535064D03*
D21*
X212526733Y-81915064D03*
D20*
X303014309Y-89535064D03*
D21*
X303014309Y-81915064D03*
D20*
X131564165Y-13334936D03*
D21*
X131564165Y-5714936D03*
D20*
X217289237Y-32384952D03*
D21*
X217289237Y-24764952D03*
D20*
X69651613Y-51434968D03*
D21*
X69651613Y-43814968D03*
D20*
X245864261Y-13334936D03*
D21*
X245864261Y-5714936D03*
D20*
X183951709Y-51434968D03*
D21*
X183951709Y-43814968D03*
D20*
X41076589Y-70485048D03*
D21*
X41076589Y-62865048D03*
D20*
X249436147Y-13335008D03*
D21*
X249436147Y-5715008D03*
D20*
X83939125Y-32385016D03*
D21*
X83939125Y-24765016D03*
D20*
X169664197Y-13334936D03*
D21*
X169664197Y-5714936D03*
D20*
X236339253Y-32385016D03*
D21*
X236339253Y-24765016D03*
D20*
X60126605Y-70485048D03*
D21*
X60126605Y-62865048D03*
D20*
X303014309Y-13334936D03*
D21*
X303014309Y-5714936D03*
D20*
X303014309Y-70485048D03*
D21*
X303014309Y-62865048D03*
D20*
X141089173Y-32384952D03*
D21*
X141089173Y-24764952D03*
D20*
X155376685Y-70485048D03*
D21*
X155376685Y-62865048D03*
D20*
X164901693Y-51434968D03*
D21*
X164901693Y-43814968D03*
D20*
X126801661Y-51434968D03*
D21*
X126801661Y-43814968D03*
D20*
X122039157Y-32385016D03*
D21*
X122039157Y-24765016D03*
D20*
X150614181Y-13334936D03*
D21*
X150614181Y-5714936D03*
D20*
X306586187Y-32385016D03*
D21*
X306586187Y-24765016D03*
D20*
X222051741Y-51434968D03*
D21*
X222051741Y-43814968D03*
D20*
X93464133Y-13335000D03*
D21*
X93464133Y-5715000D03*
D20*
X50601597Y-51435032D03*
D21*
X50601597Y-43815032D03*
D20*
X150614181Y-89535064D03*
D21*
X150614181Y-81915064D03*
D20*
X303014309Y-32385016D03*
D21*
X303014309Y-24765016D03*
D20*
X36314085Y-13334936D03*
D21*
X36314085Y-5714936D03*
D20*
X231576749Y-70485048D03*
D21*
X231576749Y-62865048D03*
D20*
X112514149Y-13334936D03*
D21*
X112514149Y-5714936D03*
D20*
X306586187Y-13335000D03*
D21*
X306586187Y-5715000D03*
D20*
X145851677Y-51435032D03*
D21*
X145851677Y-43815032D03*
D20*
X55364101Y-13334936D03*
D21*
X55364101Y-5714936D03*
D22*
X131643539Y-79613186D03*
D23*
X129103539Y-79613186D03*
X131643539Y-82153186D03*
X129103539Y-82153186D03*
X131643539Y-84693186D03*
X129103539Y-84693186D03*
D20*
X226814245Y-13335000D03*
D21*
X226814245Y-5715000D03*
D20*
X64889109Y-32384952D03*
D21*
X64889109Y-24764952D03*
D20*
X45839093Y-32385016D03*
D21*
X45839093Y-24765016D03*
D20*
X98226637Y-70485048D03*
D21*
X98226637Y-62865048D03*
D20*
X306586187Y-51435032D03*
D21*
X306586187Y-43815032D03*
D20*
X45839093Y-89535064D03*
D21*
X45839093Y-81915064D03*
D20*
X306586187Y-70485048D03*
D21*
X306586187Y-62865048D03*
D20*
X193476717Y-70485048D03*
D21*
X193476717Y-62865048D03*
D20*
X17264069Y-13335000D03*
D21*
X17264069Y-5715000D03*
D20*
X241101757Y-51434968D03*
D21*
X241101757Y-43814968D03*
D20*
X174426701Y-70485048D03*
D21*
X174426701Y-62865048D03*
D20*
X283964301Y-13335000D03*
D21*
X283964301Y-5715000D03*
D20*
X69651613Y-89535064D03*
D21*
X69651613Y-81915064D03*
D20*
X107751645Y-51434968D03*
D21*
X107751645Y-43814968D03*
M02*
