%TF.GenerationSoftware,KiCad,Pcbnew,(5.99.0-9376-g8dcf5404fc)*%
%TF.CreationDate,2021-02-24T21:32:48+01:00*%
%TF.ProjectId,gud70,67756437-302e-46b6-9963-61645f706362,rev?*%
%TF.SameCoordinates,Original*%
%TF.FileFunction,Copper,L1,Top*%
%TF.FilePolarity,Positive*%
%FSLAX46Y46*%
G04 Gerber Fmt 4.6, Leading zero omitted, Abs format (unit mm)*
G04 Created by KiCad (PCBNEW (5.99.0-9376-g8dcf5404fc)) date 2021-02-24 21:32:48*
%MOMM*%
%LPD*%
G01*
G04 APERTURE LIST*
%TA.AperFunction,ComponentPad*%
%ADD10C,2.286000*%
%TD*%
%TA.AperFunction,SMDPad,CuDef*%
%ADD11R,1.000000X1.700000*%
%TD*%
%TA.AperFunction,ComponentPad*%
%ADD12R,1.800000X3.000000*%
%TD*%
%TA.AperFunction,ComponentPad*%
%ADD13O,1.800000X3.000000*%
%TD*%
%TA.AperFunction,SMDPad,CuDef*%
%ADD14R,1.000000X1.000000*%
%TD*%
%TA.AperFunction,ComponentPad*%
%ADD15R,1.600000X1.600000*%
%TD*%
%TA.AperFunction,ComponentPad*%
%ADD16C,1.600000*%
%TD*%
%TA.AperFunction,ComponentPad*%
%ADD17R,1.700000X1.700000*%
%TD*%
%TA.AperFunction,ComponentPad*%
%ADD18O,1.700000X1.700000*%
%TD*%
%TA.AperFunction,ViaPad*%
%ADD19C,0.600000*%
%TD*%
%TA.AperFunction,Conductor*%
%ADD20C,0.500000*%
%TD*%
%TA.AperFunction,Conductor*%
%ADD21C,0.250000*%
%TD*%
G04 APERTURE END LIST*
D10*
X150177500Y-61595000D03*
X143827500Y-64135000D03*
D11*
X160253250Y-81979751D03*
X160253250Y-88279751D03*
X156453250Y-81979751D03*
X156453250Y-88279751D03*
D10*
X14446250Y-61595000D03*
X8096250Y-64135000D03*
X97790000Y-23495000D03*
X91440000Y-26035000D03*
X73977500Y-61595000D03*
X67627500Y-64135000D03*
X16827500Y-80645000D03*
X10477500Y-83185000D03*
X207327500Y-80645000D03*
X200977500Y-83185000D03*
X54927500Y-61595000D03*
X48577500Y-64135000D03*
X78740000Y-23495000D03*
X72390000Y-26035000D03*
X83502500Y-42545000D03*
X77152500Y-45085000D03*
X126365000Y-4445000D03*
X120015000Y-6985000D03*
X107315000Y-4445000D03*
X100965000Y-6985000D03*
X278765000Y-80645000D03*
X272415000Y-83185000D03*
X259715216Y-4445008D03*
X253365216Y-6985008D03*
X274002728Y-23495024D03*
X267652728Y-26035024D03*
X316865000Y-42545000D03*
X310515000Y-45085000D03*
X252571250Y-61595000D03*
X246221250Y-64135000D03*
X193040000Y-23495000D03*
X186690000Y-26035000D03*
X235902500Y-42545000D03*
X229552500Y-45085000D03*
X159702500Y-42545000D03*
X153352500Y-45085000D03*
X278765232Y-4445008D03*
X272415232Y-6985008D03*
D12*
X27825000Y-37325000D03*
D13*
X30365000Y-37325000D03*
X32905000Y-37325000D03*
X35445000Y-37325000D03*
X37985000Y-37325000D03*
X40525000Y-37325000D03*
X43065000Y-37325000D03*
X45605000Y-37325000D03*
X48145000Y-37325000D03*
D10*
X297815000Y-80645000D03*
X291465000Y-83185000D03*
X14446250Y-42545000D03*
X8096250Y-45085000D03*
X316865000Y-80645000D03*
X310515000Y-83185000D03*
X178752500Y-42545000D03*
X172402500Y-45085000D03*
X12065000Y-4445000D03*
X5715000Y-6985000D03*
X45402500Y-42545000D03*
X39052500Y-45085000D03*
X121602500Y-42545000D03*
X115252500Y-45085000D03*
X197802500Y-42545000D03*
X191452500Y-45085000D03*
X88265000Y-4445000D03*
X81915000Y-6985000D03*
X240665000Y-4445000D03*
X234315000Y-6985000D03*
X278765000Y-61595000D03*
X272415000Y-64135000D03*
X250190000Y-23495000D03*
X243840000Y-26035000D03*
X276383750Y-33020000D03*
X270033750Y-35560000D03*
D14*
X325325000Y-20125000D03*
X325325000Y-22025000D03*
D10*
X221615000Y-4445000D03*
X215265000Y-6985000D03*
X216852500Y-42545000D03*
X210502500Y-45085000D03*
X262096468Y-61595056D03*
X255746468Y-64135056D03*
X19208750Y-42545000D03*
X12858750Y-45085000D03*
X145415000Y-4445000D03*
X139065000Y-6985000D03*
X297815000Y-42545000D03*
X291465000Y-45085000D03*
X154940000Y-23495000D03*
X148590000Y-26035000D03*
X297815000Y-4445000D03*
X291465000Y-6985000D03*
X145415000Y-80645000D03*
X139065000Y-83185000D03*
X316865000Y-61595000D03*
X310515000Y-64135000D03*
X69215000Y-4445000D03*
X62865000Y-6985000D03*
X131127500Y-61595000D03*
X124777500Y-64135000D03*
X64452500Y-80645000D03*
X58102500Y-83185000D03*
X16827500Y-23495000D03*
X10477500Y-26035000D03*
D14*
X325325000Y-37025000D03*
X325325000Y-35125000D03*
D10*
X173990000Y-23495000D03*
X167640000Y-26035000D03*
X266858750Y-42545000D03*
X260508750Y-45085000D03*
X140652500Y-42545000D03*
X134302500Y-45085000D03*
X254952500Y-42545000D03*
X248602500Y-45085000D03*
X207327500Y-61595000D03*
X200977500Y-64135000D03*
X64452500Y-42545000D03*
X58102500Y-45085000D03*
X297815000Y-61595000D03*
X291465000Y-64135000D03*
X269240000Y-4445000D03*
X262890000Y-6985000D03*
X297815000Y-23495000D03*
X291465000Y-26035000D03*
X35877500Y-61595000D03*
X29527500Y-64135000D03*
X202565000Y-4445000D03*
X196215000Y-6985000D03*
X59690000Y-23495000D03*
X53340000Y-26035000D03*
X31115000Y-4445000D03*
X24765000Y-6985000D03*
X40640000Y-23495000D03*
X34290000Y-26035000D03*
X259715216Y-80645072D03*
X253365216Y-83185072D03*
X135890000Y-23495000D03*
X129540000Y-26035000D03*
X226377500Y-61595000D03*
X220027500Y-64135000D03*
X231140000Y-80645000D03*
X224790000Y-83185000D03*
X212090000Y-23495000D03*
X205740000Y-26035000D03*
X112077500Y-61595000D03*
X105727500Y-64135000D03*
X235902696Y-80645072D03*
X229552696Y-83185072D03*
D14*
X325325000Y-30125000D03*
X325325000Y-32025000D03*
D10*
X316865000Y-4445000D03*
X310515000Y-6985000D03*
X23971250Y-61595000D03*
X17621250Y-64135000D03*
X254952500Y-80645000D03*
X248602500Y-83185000D03*
X183515000Y-4445000D03*
X177165000Y-6985000D03*
X231140000Y-23495000D03*
X224790000Y-26035000D03*
X116840000Y-23495000D03*
X110490000Y-26035000D03*
X316865000Y-23495000D03*
X310515000Y-26035000D03*
X102552500Y-42545000D03*
X96202500Y-45085000D03*
X169227500Y-61595000D03*
X162877500Y-64135000D03*
X50165000Y-4445000D03*
X43815000Y-6985000D03*
X40640000Y-80645000D03*
X34290000Y-83185000D03*
D14*
X325325000Y-27025000D03*
X325325000Y-25125000D03*
D10*
X164465000Y-4445000D03*
X158115000Y-6985000D03*
X188277500Y-61595000D03*
X181927500Y-64135000D03*
X93027500Y-61595000D03*
X86677500Y-64135000D03*
D15*
X44648467Y-70485048D03*
D16*
X44648467Y-62865048D03*
D15*
X179189205Y-32385016D03*
D16*
X179189205Y-24765016D03*
D15*
X207764229Y-13335000D03*
D16*
X207764229Y-5715000D03*
D15*
X49410971Y-89535064D03*
D16*
X49410971Y-81915064D03*
D15*
X102989141Y-32385016D03*
D16*
X102989141Y-24765016D03*
D15*
X264914285Y-89535072D03*
D16*
X264914285Y-81915072D03*
D15*
X306586187Y-89535064D03*
D16*
X306586187Y-81915064D03*
D15*
X79176621Y-70485048D03*
D16*
X79176621Y-62865048D03*
D15*
X283964293Y-70485048D03*
D16*
X283964293Y-62865048D03*
D15*
X136326669Y-70485048D03*
D16*
X136326669Y-62865048D03*
D15*
X88701629Y-51435032D03*
D16*
X88701629Y-43815032D03*
D15*
X160139189Y-32385016D03*
D16*
X160139189Y-24765016D03*
D15*
X212526733Y-70485048D03*
D16*
X212526733Y-62865048D03*
D15*
X188714213Y-13335000D03*
D16*
X188714213Y-5715000D03*
D15*
X74414117Y-13335000D03*
D16*
X74414117Y-5715000D03*
D15*
X303014309Y-51435032D03*
D16*
X303014309Y-43815032D03*
D15*
X244673635Y-51434968D03*
D16*
X244673635Y-43814968D03*
D15*
X242292391Y-70485056D03*
D16*
X242292391Y-62865056D03*
D15*
X272058033Y-51435032D03*
D16*
X272058033Y-43815032D03*
D15*
X283964293Y-89535064D03*
D16*
X283964293Y-81915064D03*
D15*
X198239221Y-32384952D03*
D16*
X198239221Y-24764952D03*
D15*
X24407825Y-51434968D03*
D16*
X24407825Y-43814968D03*
D15*
X255389269Y-32384952D03*
D16*
X255389269Y-24764952D03*
D15*
X241101765Y-89535064D03*
D16*
X241101765Y-81915064D03*
D15*
X22026573Y-32384952D03*
D16*
X22026573Y-24764952D03*
D15*
X203001725Y-51435032D03*
D16*
X203001725Y-43815032D03*
D15*
X117276653Y-70485048D03*
D16*
X117276653Y-62865048D03*
D15*
X212526733Y-89535064D03*
D16*
X212526733Y-81915064D03*
D15*
X303014309Y-89535064D03*
D16*
X303014309Y-81915064D03*
D15*
X131564165Y-13334936D03*
D16*
X131564165Y-5714936D03*
D15*
X217289237Y-32384952D03*
D16*
X217289237Y-24764952D03*
D15*
X69651613Y-51434968D03*
D16*
X69651613Y-43814968D03*
D15*
X245864261Y-13334936D03*
D16*
X245864261Y-5714936D03*
D15*
X183951709Y-51434968D03*
D16*
X183951709Y-43814968D03*
D15*
X41076589Y-70485048D03*
D16*
X41076589Y-62865048D03*
D15*
X249436147Y-13335008D03*
D16*
X249436147Y-5715008D03*
D15*
X83939125Y-32385016D03*
D16*
X83939125Y-24765016D03*
D15*
X169664197Y-13334936D03*
D16*
X169664197Y-5714936D03*
D15*
X236339253Y-32385016D03*
D16*
X236339253Y-24765016D03*
D15*
X60126605Y-70485048D03*
D16*
X60126605Y-62865048D03*
D15*
X303014309Y-13334936D03*
D16*
X303014309Y-5714936D03*
D15*
X303014309Y-70485048D03*
D16*
X303014309Y-62865048D03*
D15*
X141089173Y-32384952D03*
D16*
X141089173Y-24764952D03*
D15*
X155376685Y-70485048D03*
D16*
X155376685Y-62865048D03*
D15*
X164901693Y-51434968D03*
D16*
X164901693Y-43814968D03*
D15*
X126801661Y-51434968D03*
D16*
X126801661Y-43814968D03*
D15*
X122039157Y-32385016D03*
D16*
X122039157Y-24765016D03*
D15*
X150614181Y-13334936D03*
D16*
X150614181Y-5714936D03*
D15*
X306586187Y-32385016D03*
D16*
X306586187Y-24765016D03*
D15*
X222051741Y-51434968D03*
D16*
X222051741Y-43814968D03*
D15*
X93464133Y-13335000D03*
D16*
X93464133Y-5715000D03*
D15*
X50601597Y-51435032D03*
D16*
X50601597Y-43815032D03*
D15*
X150614181Y-89535064D03*
D16*
X150614181Y-81915064D03*
D15*
X303014309Y-32385016D03*
D16*
X303014309Y-24765016D03*
D15*
X36314085Y-13334936D03*
D16*
X36314085Y-5714936D03*
D15*
X231576749Y-70485048D03*
D16*
X231576749Y-62865048D03*
D15*
X112514149Y-13334936D03*
D16*
X112514149Y-5714936D03*
D15*
X306586187Y-13335000D03*
D16*
X306586187Y-5715000D03*
D15*
X145851677Y-51435032D03*
D16*
X145851677Y-43815032D03*
D15*
X55364101Y-13334936D03*
D16*
X55364101Y-5714936D03*
D17*
X131643539Y-79613186D03*
D18*
X129103539Y-79613186D03*
X131643539Y-82153186D03*
X129103539Y-82153186D03*
X131643539Y-84693186D03*
X129103539Y-84693186D03*
D15*
X226814245Y-13335000D03*
D16*
X226814245Y-5715000D03*
D15*
X64889109Y-32384952D03*
D16*
X64889109Y-24764952D03*
D15*
X45839093Y-32385016D03*
D16*
X45839093Y-24765016D03*
D15*
X98226637Y-70485048D03*
D16*
X98226637Y-62865048D03*
D15*
X306586187Y-51435032D03*
D16*
X306586187Y-43815032D03*
D15*
X45839093Y-89535064D03*
D16*
X45839093Y-81915064D03*
D15*
X306586187Y-70485048D03*
D16*
X306586187Y-62865048D03*
D15*
X193476717Y-70485048D03*
D16*
X193476717Y-62865048D03*
D15*
X17264069Y-13335000D03*
D16*
X17264069Y-5715000D03*
D15*
X241101757Y-51434968D03*
D16*
X241101757Y-43814968D03*
D15*
X174426701Y-70485048D03*
D16*
X174426701Y-62865048D03*
D15*
X283964301Y-13335000D03*
D16*
X283964301Y-5715000D03*
D15*
X69651613Y-89535064D03*
D16*
X69651613Y-81915064D03*
D15*
X107751645Y-51434968D03*
D16*
X107751645Y-43814968D03*
D19*
X109325000Y-83075000D03*
X116325000Y-78532873D03*
X29325000Y-54075000D03*
X35825000Y-52575000D03*
X124825000Y-89575000D03*
X105825000Y-78575000D03*
X122325000Y-87575000D03*
X92325000Y-83575000D03*
X35325000Y-41075000D03*
X112325000Y-83575000D03*
X111325000Y-79075000D03*
X121825000Y-84075000D03*
X122325000Y-76575000D03*
X134325000Y-92075000D03*
X105325000Y-82075000D03*
X91825000Y-87075000D03*
X98325000Y-91075000D03*
X32146894Y-43457841D03*
X63016966Y-55342315D03*
X29325000Y-41075000D03*
X157825000Y-91575000D03*
X60711681Y-57672832D03*
X100825000Y-83575000D03*
X61317231Y-57150040D03*
X325325000Y-33575000D03*
X108346958Y-88701629D03*
X93464133Y-85725064D03*
X112525623Y-85118277D03*
X97036011Y-89296942D03*
X104198371Y-88701629D03*
X113109462Y-77390682D03*
X120253218Y-86975065D03*
X100607889Y-73818804D03*
X117276653Y-85725064D03*
X325325000Y-23575000D03*
X119657905Y-77985995D03*
X100250698Y-13335000D03*
X108142268Y-73818804D03*
X107342265Y-73818804D03*
X106918210Y-32385016D03*
X37266653Y-51434968D03*
X111439139Y-51434968D03*
X106542262Y-73818804D03*
X26431822Y-51434968D03*
X113109462Y-85725064D03*
X113347584Y-70485048D03*
X101203202Y-85725064D03*
X8096250Y-71080363D03*
X29527500Y-71199410D03*
X48577500Y-72866336D03*
X69056300Y-73223491D03*
X88701629Y-73585078D03*
X108942271Y-73818804D03*
X131663312Y-57249187D03*
X117659152Y-72293784D03*
X122634470Y-57150040D03*
X118524424Y-72589203D03*
X123229783Y-57745353D03*
X150415664Y-57546836D03*
X119411274Y-72586237D03*
X123825096Y-58340666D03*
X168870359Y-58142141D03*
X120253218Y-72628178D03*
X187622710Y-58439789D03*
X124420409Y-58935979D03*
X200977500Y-74652403D03*
X220027500Y-74057106D03*
X244673643Y-73818812D03*
X274141636Y-72925843D03*
X291465000Y-72866540D03*
X32742207Y-42267215D03*
X105370393Y-83909438D03*
X62507857Y-55959414D03*
X110132897Y-84534438D03*
X111323523Y-85725064D03*
X61912544Y-56554727D03*
X255577500Y-44648475D03*
X316865000Y-72191357D03*
X136921982Y-75039117D03*
X138707921Y-75039117D03*
X323325000Y-22575000D03*
X168496208Y-76825000D03*
X180469039Y-22062335D03*
X167890687Y-76200000D03*
X322575000Y-22215002D03*
X179825000Y-21575000D03*
X321950000Y-21575000D03*
X179259313Y-21009313D03*
X167325000Y-75575000D03*
X178693626Y-20443626D03*
X166759313Y-75009313D03*
X321325000Y-20575000D03*
D20*
X64889117Y-57214466D02*
X64889117Y-70624358D01*
X91825000Y-87075000D02*
X78086983Y-87075000D01*
X62403150Y-71391167D02*
X62403150Y-59364301D01*
X78086983Y-87075000D02*
X62403150Y-71391167D01*
X78094948Y-83830189D02*
X92069811Y-83830189D01*
X92069811Y-83830189D02*
X92325000Y-83575000D01*
X64889117Y-70624358D02*
X78094948Y-83830189D01*
X63016966Y-55342315D02*
X64889117Y-57214466D01*
D21*
X160253250Y-89146750D02*
X157825000Y-91575000D01*
X160253250Y-88279751D02*
X160253250Y-81979751D01*
X160253250Y-88279751D02*
X160253250Y-89146750D01*
D20*
X62403150Y-59364301D02*
X60711681Y-57672832D01*
X112514149Y-88106316D02*
X109537584Y-88106316D01*
X113109462Y-77390682D02*
X104179767Y-77390682D01*
X325325000Y-23575000D02*
X325325000Y-25125000D01*
X325325000Y-33575000D02*
X325325000Y-35125000D01*
X113109462Y-84534438D02*
X112525623Y-85118277D01*
X119985249Y-87243034D02*
X120253218Y-86975065D01*
X325325000Y-22025000D02*
X325325000Y-23575000D01*
X93298527Y-85559458D02*
X93464133Y-85725064D01*
X61317231Y-57150040D02*
X63103170Y-58935979D01*
X109537584Y-88106316D02*
X108942271Y-88701629D01*
X113109462Y-77390682D02*
X113109462Y-84534438D01*
X63103170Y-71101209D02*
X77561419Y-85559458D01*
X127476348Y-77985995D02*
X129103539Y-79613186D01*
X63103170Y-58935979D02*
X63103170Y-71101209D01*
X104198371Y-88701629D02*
X97631324Y-88701629D01*
X117276653Y-85725064D02*
X117276653Y-80367247D01*
X112514149Y-88106316D02*
X119121967Y-88106316D01*
X325325000Y-32025000D02*
X325325000Y-33575000D01*
X117276653Y-80367247D02*
X119657905Y-77985995D01*
X119121967Y-88106316D02*
X119985249Y-87243034D01*
X97631324Y-88701629D02*
X97036011Y-89296942D01*
X104179767Y-77390682D02*
X100607889Y-73818804D01*
X119657905Y-77985995D02*
X127476348Y-77985995D01*
X108942271Y-88701629D02*
X108346958Y-88701629D01*
X108346958Y-88701629D02*
X104198371Y-88701629D01*
X77561419Y-85559458D02*
X93298527Y-85559458D01*
D21*
X112514149Y-52982849D02*
X112514149Y-45243780D01*
X107751645Y-30360955D02*
X107751645Y-26789077D01*
X108142268Y-72423488D02*
X103281599Y-67562819D01*
X100250698Y-15120939D02*
X100250698Y-16432108D01*
X103281599Y-62215399D02*
X112514149Y-52982849D01*
X107751645Y-23933055D02*
X107751645Y-26789077D01*
X112514149Y-42983059D02*
X112514149Y-45243780D01*
X108142268Y-73818804D02*
X108142268Y-72423488D01*
X107751645Y-38220555D02*
X112514149Y-42983059D01*
X100250698Y-16432108D02*
X107751645Y-23933055D01*
X103281599Y-67562819D02*
X103281599Y-62215399D01*
X100250698Y-15120939D02*
X100250698Y-13335000D01*
X107751645Y-30360955D02*
X107751645Y-38220555D01*
X107301635Y-38406955D02*
X107301635Y-37650014D01*
X107342265Y-72259895D02*
X102831589Y-67749219D01*
X249436147Y-17859390D02*
X254198651Y-22621894D01*
X102831590Y-62028998D02*
X112064139Y-52796449D01*
X107301635Y-37650014D02*
X107301635Y-32768441D01*
X112064139Y-45693790D02*
X112064139Y-43169459D01*
X254198651Y-31194334D02*
X255389269Y-32384952D01*
X102831589Y-67749219D02*
X102831590Y-62028998D01*
X254198651Y-22621894D02*
X254198651Y-31194334D01*
X112064139Y-43169459D02*
X107301635Y-38406955D01*
X112064139Y-52796449D02*
X112064139Y-45693790D01*
X107301635Y-32768441D02*
X106918210Y-32385016D01*
X107342265Y-73818804D02*
X107342265Y-72259895D01*
X249436147Y-13335008D02*
X249436147Y-17859390D01*
X106542262Y-73818804D02*
X106542262Y-72096302D01*
X106542262Y-72096302D02*
X102381580Y-67935618D01*
X102381581Y-61842597D02*
X111439139Y-52785039D01*
X111439139Y-52785039D02*
X111439139Y-51434968D01*
X102381580Y-67935618D02*
X102381581Y-61842597D01*
X26431822Y-51434968D02*
X37266653Y-51434968D01*
X113347584Y-70485048D02*
X114300088Y-71437552D01*
X114300088Y-84534437D02*
X114002431Y-84832094D01*
X114002431Y-84832094D02*
X113109462Y-85725064D01*
X114300088Y-71437552D02*
X114300088Y-84534437D01*
X269939651Y-39464099D02*
X269939651Y-38572125D01*
X275491776Y-33020000D02*
X276383750Y-33020000D01*
X266858750Y-42545000D02*
X269939651Y-39464099D01*
X269939651Y-38572125D02*
X275491776Y-33020000D01*
X111323523Y-87511003D02*
X118526655Y-87511003D01*
X109537584Y-85725064D02*
X111323523Y-87511003D01*
X123100065Y-86350065D02*
X132600065Y-86350065D01*
X108942271Y-85725064D02*
X109537584Y-85725064D01*
X150614181Y-89535064D02*
X143864936Y-89535064D01*
X101203202Y-85725064D02*
X97036011Y-85725064D01*
X119687593Y-86350065D02*
X123100065Y-86350065D01*
X101203202Y-85725064D02*
X108942271Y-85725064D01*
X69651613Y-89535064D02*
X93226011Y-89535064D01*
X135785064Y-89535064D02*
X143864936Y-89535064D01*
X132600065Y-86350065D02*
X135785064Y-89535064D01*
X97036011Y-85725064D02*
X93226011Y-89535064D01*
X118526655Y-87511003D02*
X119687593Y-86350065D01*
X7143748Y-60721918D02*
X8096250Y-61674420D01*
X8096250Y-61674420D02*
X8096250Y-64135000D01*
X7143748Y-58340666D02*
X7143748Y-60721918D01*
X10477500Y-80129121D02*
X10477500Y-83185000D01*
X8096250Y-64135000D02*
X8096250Y-71080363D01*
X5715000Y-21272500D02*
X10477500Y-26035000D01*
X6548435Y-76200056D02*
X10477500Y-80129121D01*
X8096250Y-71080363D02*
X8096250Y-71675676D01*
X8096250Y-71675676D02*
X6548435Y-73223491D01*
X8096250Y-45085000D02*
X8096250Y-57388164D01*
X8096250Y-57388164D02*
X7143748Y-58340666D01*
X10477500Y-26035000D02*
X10477500Y-42703750D01*
X10477500Y-42703750D02*
X8096250Y-45085000D01*
X6548435Y-73223491D02*
X6548435Y-76200056D01*
X5715000Y-6985000D02*
X5715000Y-21272500D01*
X29527500Y-78422500D02*
X34290000Y-83185000D01*
X36670010Y-42702510D02*
X39052500Y-45085000D01*
X34290000Y-33747595D02*
X36670010Y-36127605D01*
X24765000Y-6985000D02*
X24765000Y-16510000D01*
X36670010Y-36127605D02*
X36670010Y-37265323D01*
X34290000Y-26035000D02*
X34290000Y-33747595D01*
X39052500Y-45085000D02*
X39052500Y-61555381D01*
X36472881Y-64135000D02*
X29527500Y-64135000D01*
X36670010Y-37265323D02*
X36670010Y-42702510D01*
X24765000Y-16510000D02*
X34290000Y-26035000D01*
X39052500Y-61555381D02*
X36472881Y-64135000D01*
X29527500Y-71199410D02*
X29527500Y-78422500D01*
X29527500Y-64135000D02*
X29527500Y-71199410D01*
X48577500Y-72866336D02*
X48577500Y-73660000D01*
X58102500Y-54610000D02*
X48577500Y-64135000D01*
X53340000Y-40322500D02*
X58102500Y-45085000D01*
X48577500Y-73660000D02*
X58102500Y-83185000D01*
X43815000Y-16510000D02*
X53340000Y-26035000D01*
X53340000Y-26035000D02*
X53340000Y-40322500D01*
X48577500Y-64135000D02*
X48577500Y-72866336D01*
X58102500Y-45085000D02*
X58102500Y-54610000D01*
X43815000Y-6985000D02*
X43815000Y-16510000D01*
X72390000Y-40322500D02*
X77152500Y-45085000D01*
X62865000Y-16510000D02*
X72390000Y-26035000D01*
X77152500Y-45085000D02*
X77152500Y-54610000D01*
X67627500Y-64135000D02*
X67627500Y-71794691D01*
X77152500Y-54610000D02*
X67627500Y-64135000D01*
X67627500Y-71794691D02*
X69056300Y-73223491D01*
X62865000Y-6985000D02*
X62865000Y-16510000D01*
X72390000Y-26035000D02*
X72390000Y-40322500D01*
X81915000Y-6985000D02*
X81915000Y-16510000D01*
X81915000Y-16510000D02*
X91440000Y-26035000D01*
X96202500Y-45085000D02*
X96202500Y-54610000D01*
X88701629Y-73585078D02*
X86677500Y-71560949D01*
X86677500Y-71560949D02*
X86677500Y-64135000D01*
X96202500Y-54610000D02*
X86677500Y-64135000D01*
X91440000Y-40322500D02*
X96202500Y-45085000D01*
X91440000Y-26035000D02*
X91440000Y-40322500D01*
X110490000Y-40322500D02*
X115252500Y-45085000D01*
X115252500Y-45085000D02*
X115252500Y-54610000D01*
X100965000Y-16510000D02*
X110490000Y-26035000D01*
X110490000Y-26035000D02*
X110490000Y-40322500D01*
X105727500Y-64135000D02*
X105727500Y-67627468D01*
X105727500Y-69372310D02*
X105727500Y-67627468D01*
X115252500Y-54610000D02*
X105727500Y-64135000D01*
X108942271Y-72587081D02*
X105727500Y-69372310D01*
X100965000Y-6985000D02*
X100965000Y-16510000D01*
X108942271Y-73818804D02*
X108942271Y-72587081D01*
X129540000Y-26035000D02*
X129540000Y-40322500D01*
X129540000Y-40322500D02*
X134302500Y-45085000D01*
X134302500Y-54610000D02*
X131663312Y-57249187D01*
X118513015Y-71964202D02*
X119948511Y-70528706D01*
X117659152Y-72293784D02*
X117988734Y-71964202D01*
X134302500Y-45085000D02*
X134302500Y-54610000D01*
X120015000Y-6985000D02*
X120015000Y-16510000D01*
X131663312Y-57249187D02*
X124777500Y-64135000D01*
X117988734Y-71964202D02*
X118513015Y-71964202D01*
X119948511Y-70528706D02*
X119948511Y-59835999D01*
X120015000Y-16510000D02*
X129540000Y-26035000D01*
X119948511Y-59835999D02*
X122634470Y-57150040D01*
X148590000Y-40322500D02*
X153352500Y-45085000D01*
X153352500Y-54610000D02*
X150415664Y-57546836D01*
X143827500Y-64135000D02*
X143827500Y-78422500D01*
X120398521Y-60576615D02*
X123229783Y-57745353D01*
X148590000Y-26035000D02*
X148590000Y-40322500D01*
X139065000Y-6985000D02*
X139065000Y-16510000D01*
X153352500Y-45085000D02*
X153352500Y-54610000D01*
X120398521Y-70715106D02*
X120398521Y-60576615D01*
X139065000Y-16510000D02*
X148590000Y-26035000D01*
X120253218Y-70860409D02*
X120398521Y-70715106D01*
X118524424Y-72589203D02*
X120253218Y-70860409D01*
X150415664Y-57546836D02*
X143827500Y-64135000D01*
X143827500Y-78422500D02*
X139065000Y-83185000D01*
X168870359Y-58142141D02*
X162877500Y-64135000D01*
X172402500Y-45085000D02*
X172402500Y-54610000D01*
X119411274Y-72586237D02*
X120848531Y-71148980D01*
X167640000Y-26035000D02*
X167640000Y-40322500D01*
X172402500Y-54610000D02*
X168870359Y-58142141D01*
X120848531Y-61317231D02*
X123825096Y-58340666D01*
X120848531Y-71148980D02*
X120848531Y-61317231D01*
X167640000Y-21193002D02*
X167640000Y-26035000D01*
X167640000Y-40322500D02*
X172402500Y-45085000D01*
X158115000Y-11668002D02*
X167640000Y-21193002D01*
X158115000Y-6985000D02*
X158115000Y-11668002D01*
X187622710Y-58439789D02*
X181927500Y-64135000D01*
X177165000Y-6985000D02*
X177165000Y-16510000D01*
X121443844Y-61912544D02*
X124420409Y-58935979D01*
X121443844Y-71437552D02*
X121443844Y-61912544D01*
X177165000Y-16510000D02*
X186690000Y-26035000D01*
X186690000Y-40322500D02*
X191452500Y-45085000D01*
X191452500Y-54610000D02*
X187622710Y-58439789D01*
X186690000Y-26035000D02*
X186690000Y-40322500D01*
X120848531Y-72032865D02*
X121443844Y-71437552D01*
X191452500Y-45085000D02*
X191452500Y-54610000D01*
X120253218Y-72628178D02*
X120848531Y-72032865D01*
X210502500Y-54610000D02*
X200977500Y-64135000D01*
X196215000Y-16510000D02*
X205740000Y-26035000D01*
X205740000Y-40322500D02*
X210502500Y-45085000D01*
X200977500Y-64135000D02*
X200977500Y-74652403D01*
X200977500Y-74652403D02*
X200977500Y-83185000D01*
X196215000Y-6985000D02*
X196215000Y-16510000D01*
X205740000Y-26035000D02*
X205740000Y-40322500D01*
X210502500Y-45085000D02*
X210502500Y-54610000D01*
X224790000Y-26035000D02*
X224790000Y-40322500D01*
X229552500Y-54610000D02*
X220027500Y-64135000D01*
X220027500Y-74057106D02*
X220027500Y-78422500D01*
X215265000Y-6985000D02*
X215265000Y-16510000D01*
X229552500Y-45085000D02*
X229552500Y-54610000D01*
X220027500Y-78422500D02*
X224790000Y-83185000D01*
X220027500Y-64135000D02*
X220027500Y-74057106D01*
X215265000Y-16510000D02*
X224790000Y-26035000D01*
X224790000Y-40322500D02*
X229552500Y-45085000D01*
X247808996Y-64135000D02*
X246221250Y-64135000D01*
X246221250Y-80803750D02*
X246419825Y-81002325D01*
X246419825Y-81002325D02*
X248602500Y-83185000D01*
X249118611Y-42545000D02*
X254952500Y-42545000D01*
X243840000Y-37266389D02*
X249118611Y-42545000D01*
X254952500Y-56991496D02*
X247808996Y-64135000D01*
X243840000Y-26035000D02*
X243840000Y-37266389D01*
X244673643Y-73818812D02*
X244673643Y-79256143D01*
X234315000Y-16510000D02*
X243840000Y-26035000D01*
X254952500Y-42545000D02*
X254952500Y-56991496D01*
X244673643Y-72628186D02*
X244673643Y-73818812D01*
X244673643Y-79256143D02*
X246419825Y-81002325D01*
X246221250Y-71080579D02*
X244673643Y-72628186D01*
X234315000Y-6985000D02*
X234315000Y-16510000D01*
X246221250Y-64135000D02*
X246221250Y-71080579D01*
X260508750Y-43468554D02*
X260508750Y-45085000D01*
X278011171Y-22621894D02*
X278011171Y-28846915D01*
X272415000Y-71199206D02*
X274141636Y-72925843D01*
X273558231Y-8128007D02*
X273558231Y-18168954D01*
X272415232Y-6985008D02*
X273558231Y-8128007D01*
X274439293Y-76318669D02*
X272415000Y-78342962D01*
X273558231Y-18168954D02*
X278011171Y-22621894D01*
X270033750Y-35560000D02*
X268417304Y-35560000D01*
X278011171Y-28846915D02*
X271298086Y-35560000D01*
X260508750Y-45085000D02*
X260508750Y-52228750D01*
X271298086Y-35560000D02*
X270033750Y-35560000D01*
X274141636Y-72925843D02*
X274439293Y-73223499D01*
X260508750Y-52228750D02*
X272415000Y-64135000D01*
X272415000Y-78342962D02*
X272415000Y-83185000D01*
X268417304Y-35560000D02*
X260508750Y-43468554D01*
X274439293Y-73223499D02*
X274439293Y-76318669D01*
X272415000Y-64135000D02*
X272415000Y-71199206D01*
X291465000Y-6985000D02*
X291465000Y-26035000D01*
X291465000Y-72866540D02*
X291465000Y-83185000D01*
X291465000Y-45085000D02*
X291465000Y-64135000D01*
X291465000Y-64135000D02*
X291465000Y-72866540D01*
X291465000Y-26035000D02*
X291465000Y-45085000D01*
X30365000Y-37325000D02*
X30365000Y-39890008D01*
X30365000Y-39890008D02*
X32742207Y-42267215D01*
X125158845Y-85868187D02*
X130468538Y-85868187D01*
X112484461Y-86025065D02*
X113375086Y-86915690D01*
X156217400Y-88043901D02*
X156453250Y-88279751D01*
X111786024Y-85262563D02*
X112484461Y-85961000D01*
X110432899Y-83909438D02*
X111786024Y-85262563D01*
X112484461Y-85961000D02*
X112484461Y-86025065D01*
X156453250Y-88279751D02*
X156453250Y-81979751D01*
X119514782Y-85868187D02*
X118467279Y-86915690D01*
X134994254Y-88043901D02*
X131643539Y-84693186D01*
X148890657Y-88043901D02*
X134994254Y-88043901D01*
X113375086Y-86915690D02*
X117276653Y-86915690D01*
X118467279Y-86915690D02*
X117276653Y-86915690D01*
X105370393Y-83909438D02*
X110432899Y-83909438D01*
X130468538Y-85868187D02*
X131643539Y-84693186D01*
X125158845Y-85868187D02*
X119514782Y-85868187D01*
X111786024Y-85262563D02*
X111948524Y-85425063D01*
X148890657Y-88043901D02*
X156217400Y-88043901D01*
X149853161Y-88043901D02*
X148890657Y-88043901D01*
X62507857Y-55959414D02*
X64293796Y-57745353D01*
X64293796Y-66079735D02*
X64293796Y-70842239D01*
X64293796Y-57745353D02*
X64293796Y-66079735D01*
X77985995Y-84534438D02*
X110132897Y-84534438D01*
X64293796Y-70842239D02*
X77985995Y-84534438D01*
X63698483Y-70883336D02*
X77799595Y-84984448D01*
X108492261Y-84984448D02*
X109392281Y-84984448D01*
X63698483Y-58340666D02*
X63698483Y-70883336D01*
X77799595Y-84984448D02*
X108492261Y-84984448D01*
X109392281Y-84984448D02*
X109567272Y-85159439D01*
X110757898Y-85159439D02*
X111323523Y-85725064D01*
X109567272Y-85159439D02*
X110757898Y-85159439D01*
X61912544Y-56554727D02*
X63698483Y-58340666D01*
X255577500Y-44648475D02*
X258365842Y-44648475D01*
X267907651Y-35106666D02*
X267907651Y-26035024D01*
X258365842Y-44648475D02*
X267907651Y-35106666D01*
X316865000Y-4445000D02*
X316865000Y-23495000D01*
X316865000Y-61595000D02*
X316865000Y-72191357D01*
X316865000Y-42545000D02*
X316865000Y-61595000D01*
X316865000Y-23495000D02*
X316865000Y-42545000D01*
X316865000Y-72191357D02*
X316865000Y-80645000D01*
X129103539Y-82153186D02*
X130373539Y-80883186D01*
X130373539Y-78598184D02*
X133932606Y-75039117D01*
X130373539Y-80883186D02*
X130373539Y-78598184D01*
X133932606Y-75039117D02*
X136921982Y-75039117D01*
X138707921Y-75088804D02*
X138707921Y-75039117D01*
X131643539Y-82153186D02*
X138707921Y-75088804D01*
X177325000Y-72575000D02*
X177325000Y-62484230D01*
X323325000Y-22125000D02*
X323325000Y-22575000D01*
X187325000Y-43165770D02*
X182325000Y-38165770D01*
X182325000Y-23918296D02*
X180469039Y-22062335D01*
X325325000Y-20125000D02*
X323325000Y-22125000D01*
X187325000Y-52484230D02*
X187325000Y-43165770D01*
X177325000Y-62484230D02*
X187325000Y-52484230D01*
X173075000Y-76825000D02*
X177325000Y-72575000D01*
X168496208Y-76825000D02*
X173075000Y-76825000D01*
X182325000Y-38165770D02*
X182325000Y-23918296D01*
X181825000Y-24302180D02*
X179825000Y-22302180D01*
X186825000Y-52347820D02*
X186825000Y-43302180D01*
X176825000Y-72347820D02*
X176825000Y-62347820D01*
X176825000Y-62347820D02*
X186825000Y-52347820D01*
X167890687Y-76200000D02*
X172972820Y-76200000D01*
X322575000Y-22215002D02*
X322575000Y-25825000D01*
X186825000Y-43302180D02*
X181825000Y-38302180D01*
X323775000Y-27025000D02*
X325325000Y-27025000D01*
X181825000Y-38302180D02*
X181825000Y-24302180D01*
X179825000Y-22302180D02*
X179825000Y-21575000D01*
X322575000Y-25825000D02*
X323775000Y-27025000D01*
X172972820Y-76200000D02*
X176825000Y-72347820D01*
X179259313Y-21009313D02*
X178959314Y-21309312D01*
X172961410Y-75575000D02*
X176325000Y-72211410D01*
X167325000Y-75575000D02*
X172961410Y-75575000D01*
X186275009Y-43388599D02*
X181325000Y-38438590D01*
X176325000Y-72211410D02*
X176325000Y-62211410D01*
X176325000Y-62211410D02*
X186275010Y-52261400D01*
X322875000Y-30125000D02*
X321950000Y-29200000D01*
X186275010Y-52261400D02*
X186275009Y-43388599D01*
X181325000Y-38438590D02*
X181325000Y-24438590D01*
X325325000Y-30125000D02*
X322875000Y-30125000D01*
X178959314Y-21309312D02*
X178959314Y-22072904D01*
X181325000Y-24438590D02*
X179393205Y-22506795D01*
X178959314Y-22072904D02*
X179393205Y-22506795D01*
X321950000Y-21575000D02*
X321950000Y-29200000D01*
X321325000Y-33025000D02*
X325325000Y-37025000D01*
X167193626Y-74575000D02*
X171325000Y-74575000D01*
X178393627Y-22143627D02*
X178825000Y-22575000D01*
X178693626Y-20443626D02*
X178393627Y-20743625D01*
X166759313Y-75009313D02*
X167193626Y-74575000D01*
X180825000Y-38575000D02*
X180825000Y-24575000D01*
X185825000Y-43575000D02*
X180825000Y-38575000D01*
X173325000Y-74575000D02*
X175825000Y-72075000D01*
X321325000Y-20575000D02*
X321325000Y-33025000D01*
X175825000Y-72075000D02*
X175825000Y-62075000D01*
X180825000Y-24575000D02*
X178825000Y-22575000D01*
X175825000Y-62075000D02*
X185825000Y-52075000D01*
X185825000Y-52075000D02*
X185825000Y-43575000D01*
X178393627Y-20743625D02*
X178393627Y-22143627D01*
X171325000Y-74575000D02*
X173325000Y-74575000D01*
%TA.AperFunction,Conductor*%
G36*
X100726308Y-86379132D02*
G01*
X100836413Y-86451183D01*
X101006399Y-86514400D01*
X101013380Y-86515331D01*
X101013382Y-86515332D01*
X101058629Y-86521369D01*
X101186165Y-86538386D01*
X101193176Y-86537748D01*
X101193180Y-86537748D01*
X101333261Y-86524998D01*
X101366779Y-86521948D01*
X101373481Y-86519770D01*
X101373483Y-86519770D01*
X101532563Y-86468082D01*
X101532566Y-86468081D01*
X101539262Y-86465905D01*
X101689517Y-86376335D01*
X101754034Y-86358564D01*
X109222990Y-86358564D01*
X109291111Y-86378566D01*
X109312085Y-86395469D01*
X110049337Y-87132721D01*
X110083363Y-87195033D01*
X110078298Y-87265848D01*
X110035751Y-87322684D01*
X109969231Y-87347495D01*
X109960242Y-87347816D01*
X109603578Y-87347816D01*
X109584628Y-87346383D01*
X109571465Y-87344380D01*
X109571459Y-87344380D01*
X109564230Y-87343280D01*
X109556938Y-87343873D01*
X109556935Y-87343873D01*
X109513565Y-87347401D01*
X109503350Y-87347816D01*
X109494698Y-87347816D01*
X109481129Y-87349398D01*
X109465121Y-87351264D01*
X109460746Y-87351697D01*
X109395277Y-87357022D01*
X109395274Y-87357023D01*
X109387979Y-87357616D01*
X109381018Y-87359871D01*
X109375123Y-87361049D01*
X109369210Y-87362447D01*
X109361941Y-87363294D01*
X109293317Y-87388203D01*
X109289189Y-87389620D01*
X109226716Y-87409858D01*
X109226711Y-87409860D01*
X109219754Y-87412114D01*
X109213500Y-87415909D01*
X109208022Y-87418417D01*
X109202603Y-87421131D01*
X109195720Y-87423629D01*
X109134661Y-87463661D01*
X109130972Y-87465988D01*
X109106754Y-87480684D01*
X109073376Y-87500938D01*
X109073372Y-87500941D01*
X109068578Y-87503850D01*
X109064372Y-87507565D01*
X109059274Y-87512067D01*
X109056690Y-87514288D01*
X109053960Y-87516571D01*
X109047837Y-87520585D01*
X109042802Y-87525900D01*
X108998707Y-87572448D01*
X108996329Y-87574890D01*
X108684079Y-87887140D01*
X108621767Y-87921166D01*
X108552720Y-87916744D01*
X108532721Y-87909623D01*
X108525729Y-87908789D01*
X108525728Y-87908789D01*
X108442679Y-87898886D01*
X108352637Y-87888149D01*
X108345634Y-87888885D01*
X108345633Y-87888885D01*
X108179279Y-87906369D01*
X108179275Y-87906370D01*
X108172271Y-87907106D01*
X108086199Y-87936407D01*
X108045595Y-87943129D01*
X104499993Y-87943129D01*
X104457727Y-87935828D01*
X104425234Y-87924258D01*
X104384134Y-87909623D01*
X104377142Y-87908789D01*
X104377141Y-87908789D01*
X104294092Y-87898886D01*
X104204050Y-87888149D01*
X104197047Y-87888885D01*
X104197046Y-87888885D01*
X104030692Y-87906369D01*
X104030688Y-87906370D01*
X104023684Y-87907106D01*
X103937612Y-87936407D01*
X103897008Y-87943129D01*
X97697318Y-87943129D01*
X97678368Y-87941696D01*
X97665205Y-87939693D01*
X97665199Y-87939693D01*
X97657970Y-87938593D01*
X97650678Y-87939186D01*
X97650675Y-87939186D01*
X97607305Y-87942714D01*
X97597090Y-87943129D01*
X97588438Y-87943129D01*
X97574869Y-87944711D01*
X97558861Y-87946577D01*
X97554486Y-87947010D01*
X97489017Y-87952335D01*
X97489014Y-87952336D01*
X97481719Y-87952929D01*
X97474758Y-87955184D01*
X97468863Y-87956362D01*
X97462950Y-87957760D01*
X97455681Y-87958607D01*
X97387057Y-87983516D01*
X97382929Y-87984933D01*
X97320456Y-88005171D01*
X97320451Y-88005173D01*
X97313494Y-88007427D01*
X97307240Y-88011222D01*
X97301762Y-88013730D01*
X97296343Y-88016444D01*
X97289460Y-88018942D01*
X97228401Y-88058974D01*
X97224712Y-88061301D01*
X97200494Y-88075997D01*
X97167116Y-88096251D01*
X97167112Y-88096254D01*
X97162318Y-88099163D01*
X97158112Y-88102878D01*
X97153014Y-88107380D01*
X97150430Y-88109601D01*
X97147700Y-88111884D01*
X97141577Y-88115898D01*
X97136542Y-88121213D01*
X97092447Y-88167761D01*
X97090069Y-88170203D01*
X96722000Y-88538272D01*
X96690056Y-88560723D01*
X96689640Y-88560865D01*
X96535170Y-88655895D01*
X96405594Y-88782786D01*
X96401783Y-88788700D01*
X96401781Y-88788702D01*
X96354953Y-88861365D01*
X96307349Y-88935231D01*
X96304938Y-88941856D01*
X96247731Y-89099031D01*
X96247730Y-89099035D01*
X96245321Y-89105654D01*
X96222590Y-89285584D01*
X96240288Y-89466078D01*
X96297534Y-89638166D01*
X96301181Y-89644188D01*
X96301182Y-89644190D01*
X96319637Y-89674662D01*
X96391483Y-89793295D01*
X96517467Y-89923755D01*
X96523359Y-89927610D01*
X96523363Y-89927614D01*
X96576148Y-89962155D01*
X96669222Y-90023061D01*
X96839208Y-90086278D01*
X96846189Y-90087209D01*
X96846191Y-90087210D01*
X96895777Y-90093826D01*
X97018974Y-90110264D01*
X97025985Y-90109626D01*
X97025989Y-90109626D01*
X97191237Y-90094586D01*
X97199588Y-90093826D01*
X97206290Y-90091648D01*
X97206292Y-90091648D01*
X97365372Y-90039960D01*
X97365375Y-90039959D01*
X97372071Y-90037783D01*
X97467921Y-89980645D01*
X97521800Y-89948527D01*
X97521802Y-89948526D01*
X97527852Y-89944919D01*
X97659188Y-89819850D01*
X97759551Y-89668791D01*
X97762055Y-89662200D01*
X97763871Y-89657420D01*
X97792563Y-89613071D01*
X97908600Y-89497034D01*
X97970912Y-89463008D01*
X97997695Y-89460129D01*
X103895980Y-89460129D01*
X103939900Y-89468031D01*
X104001568Y-89490965D01*
X104008549Y-89491896D01*
X104008551Y-89491897D01*
X104058137Y-89498513D01*
X104181334Y-89514951D01*
X104188345Y-89514313D01*
X104188349Y-89514313D01*
X104328430Y-89501563D01*
X104361948Y-89498513D01*
X104368650Y-89496335D01*
X104368652Y-89496335D01*
X104461102Y-89466296D01*
X104500038Y-89460129D01*
X108044567Y-89460129D01*
X108088487Y-89468031D01*
X108150155Y-89490965D01*
X108157136Y-89491896D01*
X108157138Y-89491897D01*
X108206724Y-89498513D01*
X108329921Y-89514951D01*
X108336932Y-89514313D01*
X108336936Y-89514313D01*
X108477017Y-89501563D01*
X108510535Y-89498513D01*
X108517237Y-89496335D01*
X108517239Y-89496335D01*
X108609689Y-89466296D01*
X108648625Y-89460129D01*
X108876284Y-89460129D01*
X108895234Y-89461562D01*
X108908391Y-89463564D01*
X108908395Y-89463564D01*
X108915625Y-89464664D01*
X108922917Y-89464071D01*
X108922920Y-89464071D01*
X108966281Y-89460544D01*
X108976495Y-89460129D01*
X108985157Y-89460129D01*
X108988791Y-89459705D01*
X108988795Y-89459705D01*
X109014754Y-89456678D01*
X109019133Y-89456245D01*
X109027918Y-89455530D01*
X109091876Y-89450329D01*
X109098839Y-89448073D01*
X109104727Y-89446897D01*
X109110644Y-89445499D01*
X109117914Y-89444651D01*
X109186538Y-89419742D01*
X109190666Y-89418325D01*
X109253139Y-89398087D01*
X109253144Y-89398085D01*
X109260101Y-89395831D01*
X109266355Y-89392036D01*
X109271833Y-89389528D01*
X109277252Y-89386814D01*
X109284135Y-89384316D01*
X109345194Y-89344284D01*
X109348883Y-89341957D01*
X109373101Y-89327261D01*
X109406479Y-89307007D01*
X109406483Y-89307004D01*
X109411277Y-89304095D01*
X109420581Y-89295878D01*
X109423165Y-89293657D01*
X109425895Y-89291374D01*
X109432018Y-89287360D01*
X109437583Y-89281486D01*
X109481148Y-89235497D01*
X109483526Y-89233055D01*
X109814860Y-88901721D01*
X109877172Y-88867695D01*
X109903955Y-88864816D01*
X119055980Y-88864816D01*
X119074930Y-88866249D01*
X119088087Y-88868251D01*
X119088091Y-88868251D01*
X119095321Y-88869351D01*
X119102613Y-88868758D01*
X119102616Y-88868758D01*
X119145977Y-88865231D01*
X119156191Y-88864816D01*
X119164853Y-88864816D01*
X119168487Y-88864392D01*
X119168491Y-88864392D01*
X119194450Y-88861365D01*
X119198829Y-88860932D01*
X119207614Y-88860217D01*
X119271572Y-88855016D01*
X119278535Y-88852760D01*
X119284423Y-88851584D01*
X119290340Y-88850186D01*
X119297610Y-88849338D01*
X119366234Y-88824429D01*
X119370362Y-88823012D01*
X119432835Y-88802774D01*
X119432840Y-88802772D01*
X119439797Y-88800518D01*
X119446051Y-88796723D01*
X119451529Y-88794215D01*
X119456948Y-88791501D01*
X119463831Y-88789003D01*
X119473314Y-88782786D01*
X119484329Y-88775564D01*
X119524890Y-88748971D01*
X119528579Y-88746644D01*
X119552797Y-88731948D01*
X119586175Y-88711694D01*
X119586179Y-88711691D01*
X119590973Y-88708782D01*
X119600277Y-88700565D01*
X119602861Y-88698344D01*
X119605591Y-88696061D01*
X119611714Y-88692047D01*
X119660844Y-88640184D01*
X119663222Y-88637742D01*
X120567731Y-87733233D01*
X120592309Y-87714099D01*
X120739007Y-87626650D01*
X120739009Y-87626649D01*
X120745059Y-87623042D01*
X120876395Y-87497973D01*
X120969648Y-87357616D01*
X120972857Y-87352786D01*
X120972858Y-87352784D01*
X120976758Y-87346914D01*
X121041160Y-87177374D01*
X121053155Y-87092028D01*
X121082444Y-87027355D01*
X121142048Y-86988782D01*
X121177929Y-86983565D01*
X132285471Y-86983565D01*
X132353592Y-87003567D01*
X132374566Y-87020470D01*
X134788095Y-89433999D01*
X134822121Y-89496311D01*
X134825000Y-89523094D01*
X134825000Y-93290999D01*
X134804998Y-93359120D01*
X134751342Y-93405613D01*
X134699000Y-93416999D01*
X91451000Y-93416999D01*
X91382879Y-93396997D01*
X91336386Y-93343341D01*
X91325000Y-93290999D01*
X91325000Y-90294564D01*
X91345002Y-90226443D01*
X91398658Y-90179950D01*
X91451000Y-90168564D01*
X93147627Y-90168564D01*
X93158531Y-90169078D01*
X93165922Y-90170730D01*
X93173848Y-90170481D01*
X93173849Y-90170481D01*
X93232877Y-90168626D01*
X93236834Y-90168564D01*
X93265589Y-90168564D01*
X93269856Y-90168025D01*
X93281698Y-90167092D01*
X93313346Y-90166097D01*
X93317971Y-90165952D01*
X93325894Y-90165703D01*
X93345345Y-90160052D01*
X93364706Y-90156042D01*
X93367431Y-90155698D01*
X93376941Y-90154497D01*
X93376944Y-90154496D01*
X93384799Y-90153504D01*
X93392164Y-90150588D01*
X93392168Y-90150587D01*
X93425912Y-90137227D01*
X93437141Y-90133382D01*
X93479589Y-90121050D01*
X93486417Y-90117012D01*
X93497022Y-90110741D01*
X93514773Y-90102045D01*
X93526237Y-90097506D01*
X93526240Y-90097504D01*
X93533611Y-90094586D01*
X93569379Y-90068599D01*
X93579302Y-90062080D01*
X93617352Y-90039578D01*
X93617770Y-90039209D01*
X93631853Y-90025126D01*
X93646878Y-90012292D01*
X93663094Y-90000510D01*
X93691041Y-89966728D01*
X93699030Y-89957949D01*
X97261510Y-86395469D01*
X97323822Y-86361443D01*
X97350605Y-86358564D01*
X100657315Y-86358564D01*
X100726308Y-86379132D01*
G37*
%TD.AperFunction*%
%TA.AperFunction,Conductor*%
G36*
X96011154Y-85637950D02*
G01*
X96057647Y-85691606D01*
X96067751Y-85761880D01*
X96038257Y-85826460D01*
X96032128Y-85833043D01*
X93000512Y-88864659D01*
X92938200Y-88898685D01*
X92911417Y-88901564D01*
X91451000Y-88901564D01*
X91382879Y-88881562D01*
X91336386Y-88827906D01*
X91325000Y-88775564D01*
X91325000Y-86443958D01*
X91345002Y-86375837D01*
X91398658Y-86329344D01*
X91451000Y-86317958D01*
X92860457Y-86317958D01*
X92928578Y-86337960D01*
X92940719Y-86346834D01*
X92945589Y-86351877D01*
X92951481Y-86355732D01*
X92951485Y-86355736D01*
X93039494Y-86413327D01*
X93097344Y-86451183D01*
X93267330Y-86514400D01*
X93274311Y-86515331D01*
X93274313Y-86515332D01*
X93319560Y-86521369D01*
X93447096Y-86538386D01*
X93454107Y-86537748D01*
X93454111Y-86537748D01*
X93594192Y-86524998D01*
X93627710Y-86521948D01*
X93634412Y-86519770D01*
X93634414Y-86519770D01*
X93793494Y-86468082D01*
X93793497Y-86468081D01*
X93800193Y-86465905D01*
X93942804Y-86380892D01*
X93949922Y-86376649D01*
X93949924Y-86376648D01*
X93955974Y-86373041D01*
X94087310Y-86247972D01*
X94187673Y-86096913D01*
X94252075Y-85927373D01*
X94267503Y-85817598D01*
X94276765Y-85751700D01*
X94276765Y-85751697D01*
X94277316Y-85747778D01*
X94277394Y-85742189D01*
X94277531Y-85741747D01*
X94277675Y-85739870D01*
X94278100Y-85739903D01*
X94298345Y-85674354D01*
X94352644Y-85628615D01*
X94403382Y-85617948D01*
X95943033Y-85617948D01*
X96011154Y-85637950D01*
G37*
%TD.AperFunction*%
%TA.AperFunction,Conductor*%
G36*
X127178098Y-78764497D02*
G01*
X127199072Y-78781400D01*
X127723421Y-79305749D01*
X127757447Y-79368061D01*
X127758315Y-79417265D01*
X127746090Y-79484869D01*
X127746039Y-79490209D01*
X127743952Y-79707648D01*
X127743877Y-79715419D01*
X127780541Y-79943047D01*
X127855033Y-80161242D01*
X127965224Y-80363766D01*
X128107963Y-80544830D01*
X128111928Y-80548406D01*
X128275198Y-80695675D01*
X128275204Y-80695680D01*
X128279168Y-80699255D01*
X128283681Y-80702114D01*
X128283683Y-80702115D01*
X128401781Y-80776917D01*
X128448626Y-80830265D01*
X128459193Y-80900471D01*
X128430126Y-80965244D01*
X128399725Y-80991080D01*
X128304735Y-81048721D01*
X128304728Y-81048726D01*
X128300170Y-81051492D01*
X128126031Y-81202601D01*
X128122648Y-81206727D01*
X128122644Y-81206731D01*
X128024854Y-81325995D01*
X127979843Y-81380891D01*
X127865784Y-81581263D01*
X127787117Y-81797988D01*
X127786168Y-81803237D01*
X127786167Y-81803240D01*
X127765363Y-81918290D01*
X127746090Y-82024869D01*
X127746039Y-82030209D01*
X127744636Y-82176396D01*
X127743877Y-82255419D01*
X127780541Y-82483047D01*
X127855033Y-82701242D01*
X127965224Y-82903766D01*
X128107963Y-83084830D01*
X128161078Y-83132739D01*
X128275198Y-83235675D01*
X128275204Y-83235680D01*
X128279168Y-83239255D01*
X128283681Y-83242114D01*
X128283683Y-83242115D01*
X128402251Y-83317215D01*
X128449096Y-83370563D01*
X128459663Y-83440769D01*
X128430596Y-83505543D01*
X128400195Y-83531378D01*
X128305025Y-83589128D01*
X128296435Y-83595392D01*
X128130423Y-83739450D01*
X128123003Y-83747081D01*
X127983639Y-83917046D01*
X127977614Y-83925813D01*
X127868881Y-84116830D01*
X127864416Y-84126494D01*
X127789421Y-84333102D01*
X127786650Y-84343370D01*
X127772547Y-84421360D01*
X127773966Y-84434600D01*
X127788601Y-84439186D01*
X129231539Y-84439186D01*
X129299660Y-84459188D01*
X129346153Y-84512844D01*
X129357539Y-84565186D01*
X129357539Y-84821186D01*
X129337537Y-84889307D01*
X129283881Y-84935800D01*
X129231539Y-84947186D01*
X127786942Y-84947186D01*
X127773761Y-84951056D01*
X127771794Y-84965609D01*
X127780177Y-85017657D01*
X127782750Y-85027975D01*
X127796407Y-85067976D01*
X127799488Y-85138906D01*
X127763732Y-85200241D01*
X127700491Y-85232509D01*
X127677165Y-85234687D01*
X119593166Y-85234687D01*
X119582262Y-85234173D01*
X119574871Y-85232521D01*
X119566945Y-85232770D01*
X119566944Y-85232770D01*
X119507916Y-85234625D01*
X119503959Y-85234687D01*
X119475204Y-85234687D01*
X119470937Y-85235226D01*
X119459095Y-85236159D01*
X119427447Y-85237154D01*
X119422822Y-85237299D01*
X119414899Y-85237548D01*
X119395449Y-85243199D01*
X119376087Y-85247209D01*
X119373362Y-85247553D01*
X119363852Y-85248754D01*
X119363849Y-85248755D01*
X119355994Y-85249747D01*
X119348629Y-85252663D01*
X119348625Y-85252664D01*
X119314881Y-85266024D01*
X119303654Y-85269868D01*
X119261204Y-85282201D01*
X119254376Y-85286239D01*
X119243771Y-85292510D01*
X119226020Y-85301206D01*
X119214556Y-85305745D01*
X119214553Y-85305747D01*
X119207182Y-85308665D01*
X119200766Y-85313326D01*
X119200767Y-85313326D01*
X119171415Y-85334652D01*
X119161492Y-85341170D01*
X119123441Y-85363673D01*
X119123023Y-85364042D01*
X119108940Y-85378125D01*
X119093915Y-85390959D01*
X119077699Y-85402741D01*
X119060412Y-85423638D01*
X119049753Y-85436522D01*
X119041763Y-85445302D01*
X118241780Y-86245285D01*
X118179468Y-86279311D01*
X118152685Y-86282190D01*
X118110512Y-86282190D01*
X118042391Y-86262188D01*
X117995898Y-86208532D01*
X117985794Y-86138258D01*
X117997863Y-86100420D01*
X118000193Y-86096913D01*
X118002697Y-86090323D01*
X118042846Y-85984627D01*
X118064595Y-85927373D01*
X118080023Y-85817598D01*
X118089285Y-85751700D01*
X118089285Y-85751697D01*
X118089836Y-85747778D01*
X118090153Y-85725064D01*
X118069937Y-85544834D01*
X118042162Y-85465075D01*
X118035153Y-85423638D01*
X118035153Y-80733618D01*
X118055155Y-80665497D01*
X118072058Y-80644523D01*
X119935181Y-78781400D01*
X119997493Y-78747374D01*
X120024276Y-78744495D01*
X127109977Y-78744495D01*
X127178098Y-78764497D01*
G37*
%TD.AperFunction*%
%TA.AperFunction,Conductor*%
G36*
X115905274Y-69595002D02*
G01*
X115951767Y-69648658D01*
X115963153Y-69701000D01*
X115963153Y-71285048D01*
X115968380Y-71358127D01*
X115983038Y-71408048D01*
X115999889Y-71465436D01*
X116009557Y-71498364D01*
X116014428Y-71505943D01*
X116083704Y-71613739D01*
X116083706Y-71613742D01*
X116088576Y-71621319D01*
X116095386Y-71627220D01*
X116192222Y-71711130D01*
X116192225Y-71711132D01*
X116199034Y-71717032D01*
X116207232Y-71720776D01*
X116275923Y-71752146D01*
X116331983Y-71777748D01*
X116340898Y-71779030D01*
X116340899Y-71779030D01*
X116472205Y-71797909D01*
X116472212Y-71797910D01*
X116476653Y-71798548D01*
X116799143Y-71798548D01*
X116867264Y-71818550D01*
X116913757Y-71872206D01*
X116923861Y-71942480D01*
X116917547Y-71967634D01*
X116868462Y-72102496D01*
X116845731Y-72282426D01*
X116863429Y-72462920D01*
X116865653Y-72469605D01*
X116865653Y-72469606D01*
X116886207Y-72531394D01*
X116920675Y-72635008D01*
X116924322Y-72641030D01*
X116924323Y-72641032D01*
X116997862Y-72762459D01*
X117014624Y-72790137D01*
X117140608Y-72920597D01*
X117146500Y-72924452D01*
X117146504Y-72924456D01*
X117234513Y-72982047D01*
X117292363Y-73019903D01*
X117462349Y-73083120D01*
X117469330Y-73084051D01*
X117469332Y-73084052D01*
X117518918Y-73090668D01*
X117642115Y-73107106D01*
X117649126Y-73106468D01*
X117649130Y-73106468D01*
X117763360Y-73096071D01*
X117819695Y-73090944D01*
X117889347Y-73104689D01*
X117921751Y-73128898D01*
X118005880Y-73216016D01*
X118011772Y-73219871D01*
X118011776Y-73219875D01*
X118079534Y-73264214D01*
X118157635Y-73315322D01*
X118327621Y-73378539D01*
X118334602Y-73379470D01*
X118334604Y-73379471D01*
X118384190Y-73386087D01*
X118507387Y-73402525D01*
X118514398Y-73401887D01*
X118514402Y-73401887D01*
X118654483Y-73389137D01*
X118688001Y-73386087D01*
X118694703Y-73383909D01*
X118694705Y-73383909D01*
X118853785Y-73332221D01*
X118853788Y-73332220D01*
X118860484Y-73330044D01*
X118903289Y-73304527D01*
X118972041Y-73286828D01*
X119032052Y-73305823D01*
X119032305Y-73305323D01*
X119035379Y-73306876D01*
X119036796Y-73307324D01*
X119044485Y-73312356D01*
X119214471Y-73375573D01*
X119221452Y-73376504D01*
X119221454Y-73376505D01*
X119271040Y-73383121D01*
X119394237Y-73399559D01*
X119401248Y-73398921D01*
X119401252Y-73398921D01*
X119542262Y-73386087D01*
X119574851Y-73383121D01*
X119581553Y-73380943D01*
X119581555Y-73380943D01*
X119740634Y-73329255D01*
X119747334Y-73327078D01*
X119747676Y-73328129D01*
X119811354Y-73319137D01*
X119862099Y-73338376D01*
X119886429Y-73354297D01*
X120056415Y-73417514D01*
X120063396Y-73418445D01*
X120063398Y-73418446D01*
X120112984Y-73425062D01*
X120236181Y-73441500D01*
X120243192Y-73440862D01*
X120243196Y-73440862D01*
X120383277Y-73428112D01*
X120416795Y-73425062D01*
X120423497Y-73422884D01*
X120423499Y-73422884D01*
X120582579Y-73371196D01*
X120582582Y-73371195D01*
X120589278Y-73369019D01*
X120696129Y-73305323D01*
X120739007Y-73279763D01*
X120739009Y-73279762D01*
X120745059Y-73276155D01*
X120876395Y-73151086D01*
X120957401Y-73029162D01*
X120972857Y-73005899D01*
X120972858Y-73005897D01*
X120976758Y-73000027D01*
X121041160Y-72830487D01*
X121050721Y-72762459D01*
X121080010Y-72697785D01*
X121086400Y-72690900D01*
X121836357Y-71940943D01*
X121844445Y-71933583D01*
X121850839Y-71929525D01*
X121896714Y-71880673D01*
X121899468Y-71877832D01*
X121919782Y-71857518D01*
X121922427Y-71854107D01*
X121930133Y-71845085D01*
X121954977Y-71818629D01*
X121960401Y-71812853D01*
X121964220Y-71805907D01*
X121970162Y-71795099D01*
X121981016Y-71778575D01*
X121988569Y-71768838D01*
X121988569Y-71768837D01*
X121993427Y-71762575D01*
X122010986Y-71721999D01*
X122016207Y-71711342D01*
X122016324Y-71711130D01*
X122037506Y-71672600D01*
X122039958Y-71663051D01*
X122042543Y-71652984D01*
X122048947Y-71634280D01*
X122053842Y-71622969D01*
X122053844Y-71622962D01*
X122056992Y-71615688D01*
X122063909Y-71572014D01*
X122066317Y-71560389D01*
X122075831Y-71523334D01*
X122075831Y-71523332D01*
X122077309Y-71517577D01*
X122077344Y-71517021D01*
X122077344Y-71497105D01*
X122078895Y-71477395D01*
X122080789Y-71465436D01*
X122082029Y-71457607D01*
X122077903Y-71413961D01*
X122077344Y-71402103D01*
X122077344Y-69701000D01*
X122097346Y-69632879D01*
X122151002Y-69586386D01*
X122203344Y-69575000D01*
X134699000Y-69575000D01*
X134767121Y-69595002D01*
X134813614Y-69648658D01*
X134825000Y-69701000D01*
X134825000Y-74279617D01*
X134804998Y-74347738D01*
X134751342Y-74394231D01*
X134699000Y-74405617D01*
X134010990Y-74405617D01*
X134000086Y-74405103D01*
X133992695Y-74403451D01*
X133984769Y-74403700D01*
X133984768Y-74403700D01*
X133925740Y-74405555D01*
X133921783Y-74405617D01*
X133893028Y-74405617D01*
X133888761Y-74406156D01*
X133876919Y-74407089D01*
X133832723Y-74408478D01*
X133825106Y-74410691D01*
X133813267Y-74414130D01*
X133793908Y-74418139D01*
X133781685Y-74419683D01*
X133781684Y-74419683D01*
X133773818Y-74420677D01*
X133766442Y-74423597D01*
X133766443Y-74423597D01*
X133732717Y-74436949D01*
X133721488Y-74440794D01*
X133686641Y-74450918D01*
X133686640Y-74450919D01*
X133679028Y-74453130D01*
X133672205Y-74457165D01*
X133661589Y-74463443D01*
X133643837Y-74472139D01*
X133625006Y-74479595D01*
X133613366Y-74488052D01*
X133589235Y-74505584D01*
X133579317Y-74512099D01*
X133541265Y-74534603D01*
X133540847Y-74534972D01*
X133526764Y-74549055D01*
X133511739Y-74561889D01*
X133495523Y-74573671D01*
X133469039Y-74605685D01*
X133467577Y-74607452D01*
X133459587Y-74616232D01*
X129981026Y-78094793D01*
X129972938Y-78102153D01*
X129966544Y-78106211D01*
X129961119Y-78111988D01*
X129920670Y-78155062D01*
X129917915Y-78157904D01*
X129897601Y-78178218D01*
X129894956Y-78181629D01*
X129887252Y-78190649D01*
X129856982Y-78222883D01*
X129853165Y-78229827D01*
X129853163Y-78229829D01*
X129847221Y-78240637D01*
X129836367Y-78257161D01*
X129823956Y-78273161D01*
X129820809Y-78280432D01*
X129820809Y-78280433D01*
X129812582Y-78299445D01*
X129767170Y-78354019D01*
X129699462Y-78375378D01*
X129639840Y-78361720D01*
X129621279Y-78352283D01*
X129621278Y-78352283D01*
X129616521Y-78349864D01*
X129506426Y-78315679D01*
X129401434Y-78283077D01*
X129401428Y-78283076D01*
X129396331Y-78281493D01*
X129286211Y-78266898D01*
X129173054Y-78251900D01*
X129173049Y-78251900D01*
X129167769Y-78251200D01*
X129162439Y-78251400D01*
X129162438Y-78251400D01*
X129052569Y-78255525D01*
X128937370Y-78259849D01*
X128932153Y-78260944D01*
X128932150Y-78260944D01*
X128909483Y-78265700D01*
X128838706Y-78260112D01*
X128794514Y-78231480D01*
X128059351Y-77496317D01*
X128046963Y-77481903D01*
X128034737Y-77465289D01*
X127995998Y-77432377D01*
X127988481Y-77425447D01*
X127982364Y-77419330D01*
X127979491Y-77417057D01*
X127979482Y-77417049D01*
X127959005Y-77400849D01*
X127955601Y-77398058D01*
X127905554Y-77355540D01*
X127905552Y-77355539D01*
X127899972Y-77350798D01*
X127893454Y-77347470D01*
X127888429Y-77344118D01*
X127883284Y-77340941D01*
X127877546Y-77336401D01*
X127850337Y-77323684D01*
X127811443Y-77305506D01*
X127807493Y-77303575D01*
X127749003Y-77273709D01*
X127749001Y-77273708D01*
X127742483Y-77270380D01*
X127735376Y-77268641D01*
X127729725Y-77266539D01*
X127723975Y-77264626D01*
X127717346Y-77261528D01*
X127710186Y-77260039D01*
X127710175Y-77260035D01*
X127645855Y-77246656D01*
X127641568Y-77245686D01*
X127576176Y-77229685D01*
X127576170Y-77229684D01*
X127570718Y-77228350D01*
X127565114Y-77228002D01*
X127565112Y-77228002D01*
X127558324Y-77227581D01*
X127554927Y-77227324D01*
X127551387Y-77227008D01*
X127544219Y-77225517D01*
X127536902Y-77225715D01*
X127488809Y-77227017D01*
X127477451Y-77227324D01*
X127472832Y-77227449D01*
X127469423Y-77227495D01*
X119959527Y-77227495D01*
X119917261Y-77220194D01*
X119843668Y-77193989D01*
X119836676Y-77193155D01*
X119836675Y-77193155D01*
X119753626Y-77183252D01*
X119663584Y-77172515D01*
X119656581Y-77173251D01*
X119656580Y-77173251D01*
X119490226Y-77190735D01*
X119490222Y-77190736D01*
X119483218Y-77191472D01*
X119476547Y-77193743D01*
X119318204Y-77247647D01*
X119318201Y-77247648D01*
X119311534Y-77249918D01*
X119157064Y-77344948D01*
X119146248Y-77355540D01*
X119034177Y-77465289D01*
X119027488Y-77471839D01*
X118929243Y-77624284D01*
X118926834Y-77630904D01*
X118923700Y-77637216D01*
X118921977Y-77636360D01*
X118899365Y-77671854D01*
X116786975Y-79784244D01*
X116772564Y-79796629D01*
X116755947Y-79808858D01*
X116751204Y-79814441D01*
X116723035Y-79847598D01*
X116716105Y-79855114D01*
X116709988Y-79861231D01*
X116707715Y-79864104D01*
X116707707Y-79864113D01*
X116691507Y-79884590D01*
X116688716Y-79887994D01*
X116683799Y-79893782D01*
X116641456Y-79943623D01*
X116638128Y-79950141D01*
X116634776Y-79955166D01*
X116631599Y-79960311D01*
X116627059Y-79966049D01*
X116623960Y-79972680D01*
X116596164Y-80032152D01*
X116594233Y-80036102D01*
X116570427Y-80082724D01*
X116561038Y-80101112D01*
X116559299Y-80108219D01*
X116557197Y-80113870D01*
X116555284Y-80119620D01*
X116552186Y-80126249D01*
X116550697Y-80133409D01*
X116550693Y-80133420D01*
X116537314Y-80197740D01*
X116536344Y-80202027D01*
X116520343Y-80267419D01*
X116520342Y-80267425D01*
X116519008Y-80272877D01*
X116518660Y-80278481D01*
X116518660Y-80278483D01*
X116518239Y-80285271D01*
X116517982Y-80288668D01*
X116517666Y-80292208D01*
X116516175Y-80299376D01*
X116516373Y-80306693D01*
X116518107Y-80370763D01*
X116518153Y-80374172D01*
X116518153Y-85423115D01*
X116510554Y-85466209D01*
X116488373Y-85527153D01*
X116488372Y-85527157D01*
X116485963Y-85533776D01*
X116463232Y-85713706D01*
X116480930Y-85894200D01*
X116538176Y-86066288D01*
X116541823Y-86072310D01*
X116541824Y-86072312D01*
X116553093Y-86090919D01*
X116571272Y-86159548D01*
X116549462Y-86227112D01*
X116494586Y-86272158D01*
X116445317Y-86282190D01*
X113943321Y-86282190D01*
X113875200Y-86262188D01*
X113828707Y-86208532D01*
X113818603Y-86138258D01*
X113830672Y-86100420D01*
X113833002Y-86096913D01*
X113835506Y-86090323D01*
X113875655Y-85984627D01*
X113897404Y-85927373D01*
X113906965Y-85859345D01*
X113936254Y-85794671D01*
X113942644Y-85787786D01*
X114478370Y-85252060D01*
X114478373Y-85252056D01*
X114692601Y-85037828D01*
X114700689Y-85030468D01*
X114707083Y-85026410D01*
X114752958Y-84977558D01*
X114755712Y-84974717D01*
X114776026Y-84954403D01*
X114778671Y-84950992D01*
X114786377Y-84941970D01*
X114811221Y-84915514D01*
X114816645Y-84909738D01*
X114820464Y-84902792D01*
X114826406Y-84891984D01*
X114837260Y-84875460D01*
X114844811Y-84865726D01*
X114844812Y-84865724D01*
X114849671Y-84859460D01*
X114867234Y-84818876D01*
X114872441Y-84808247D01*
X114893750Y-84769485D01*
X114898789Y-84749859D01*
X114905190Y-84731165D01*
X114910087Y-84719849D01*
X114913236Y-84712572D01*
X114920152Y-84668906D01*
X114922559Y-84657281D01*
X114933553Y-84614462D01*
X114933588Y-84613906D01*
X114933588Y-84593990D01*
X114935139Y-84574279D01*
X114937033Y-84562321D01*
X114938273Y-84554492D01*
X114934147Y-84510843D01*
X114933588Y-84498986D01*
X114933588Y-71515935D01*
X114934102Y-71505031D01*
X114935754Y-71497640D01*
X114933650Y-71430686D01*
X114933588Y-71426728D01*
X114933588Y-71397974D01*
X114933049Y-71393707D01*
X114932115Y-71381857D01*
X114930976Y-71345592D01*
X114930727Y-71337669D01*
X114925076Y-71318218D01*
X114921066Y-71298856D01*
X114919521Y-71286622D01*
X114919520Y-71286619D01*
X114918528Y-71278764D01*
X114915612Y-71271399D01*
X114915611Y-71271395D01*
X114902251Y-71237651D01*
X114898406Y-71226422D01*
X114886074Y-71183974D01*
X114882036Y-71177146D01*
X114875765Y-71166541D01*
X114867069Y-71148790D01*
X114862530Y-71137326D01*
X114862528Y-71137323D01*
X114859610Y-71129952D01*
X114833623Y-71094184D01*
X114827104Y-71084261D01*
X114807636Y-71051342D01*
X114804602Y-71046211D01*
X114804233Y-71045793D01*
X114790150Y-71031710D01*
X114777316Y-71016685D01*
X114765534Y-71000469D01*
X114731752Y-70972522D01*
X114722973Y-70964533D01*
X114181875Y-70423435D01*
X114147849Y-70361123D01*
X114145755Y-70348386D01*
X114141653Y-70311816D01*
X114141653Y-70311815D01*
X114140868Y-70304818D01*
X114081225Y-70133546D01*
X113985119Y-69979744D01*
X113976329Y-69970892D01*
X113862294Y-69856060D01*
X113857326Y-69851057D01*
X113788509Y-69807384D01*
X113741711Y-69753996D01*
X113731206Y-69683781D01*
X113760330Y-69619033D01*
X113819836Y-69580309D01*
X113856024Y-69575000D01*
X115837153Y-69575000D01*
X115905274Y-69595002D01*
G37*
%TD.AperFunction*%
%TA.AperFunction,Conductor*%
G36*
X96855258Y-69595002D02*
G01*
X96901751Y-69648658D01*
X96913137Y-69701000D01*
X96913137Y-71285048D01*
X96918364Y-71358127D01*
X96933022Y-71408048D01*
X96949873Y-71465436D01*
X96959541Y-71498364D01*
X96964412Y-71505943D01*
X97033688Y-71613739D01*
X97033690Y-71613742D01*
X97038560Y-71621319D01*
X97045370Y-71627220D01*
X97142206Y-71711130D01*
X97142209Y-71711132D01*
X97149018Y-71717032D01*
X97157216Y-71720776D01*
X97225907Y-71752146D01*
X97281967Y-71777748D01*
X97290882Y-71779030D01*
X97290883Y-71779030D01*
X97422189Y-71797909D01*
X97422196Y-71797910D01*
X97426637Y-71798548D01*
X99026637Y-71798548D01*
X99099716Y-71793321D01*
X99183098Y-71768838D01*
X99231307Y-71754683D01*
X99231309Y-71754682D01*
X99239953Y-71752144D01*
X99303772Y-71711130D01*
X99355328Y-71677997D01*
X99355331Y-71677995D01*
X99362908Y-71673125D01*
X99371637Y-71663051D01*
X99452719Y-71569479D01*
X99452721Y-71569476D01*
X99458621Y-71562667D01*
X99503025Y-71465436D01*
X99515595Y-71437912D01*
X99515595Y-71437911D01*
X99519337Y-71429718D01*
X99520619Y-71420802D01*
X99539498Y-71289496D01*
X99539499Y-71289489D01*
X99540137Y-71285048D01*
X99540137Y-69701000D01*
X99560139Y-69632879D01*
X99613795Y-69586386D01*
X99666137Y-69575000D01*
X103072867Y-69575000D01*
X103140988Y-69595002D01*
X103161962Y-69611905D01*
X105871857Y-72321802D01*
X105905883Y-72384114D01*
X105908762Y-72410897D01*
X105908762Y-73272348D01*
X105888673Y-73340603D01*
X105813600Y-73457093D01*
X105802925Y-73486422D01*
X105753982Y-73620893D01*
X105753981Y-73620897D01*
X105751572Y-73627516D01*
X105728841Y-73807446D01*
X105746539Y-73987940D01*
X105803785Y-74160028D01*
X105897734Y-74315157D01*
X106023718Y-74445617D01*
X106029610Y-74449472D01*
X106029614Y-74449476D01*
X106088565Y-74488052D01*
X106175473Y-74544923D01*
X106345459Y-74608140D01*
X106352440Y-74609071D01*
X106352442Y-74609072D01*
X106402028Y-74615688D01*
X106525225Y-74632126D01*
X106532236Y-74631488D01*
X106532240Y-74631488D01*
X106672321Y-74618738D01*
X106705839Y-74615688D01*
X106712541Y-74613510D01*
X106712543Y-74613510D01*
X106871623Y-74561822D01*
X106871626Y-74561821D01*
X106878322Y-74559645D01*
X106884370Y-74556040D01*
X106890791Y-74553127D01*
X106892040Y-74555880D01*
X106947779Y-74541542D01*
X106987438Y-74549372D01*
X107052777Y-74573671D01*
X107145462Y-74608140D01*
X107152443Y-74609071D01*
X107152445Y-74609072D01*
X107202031Y-74615688D01*
X107325228Y-74632126D01*
X107332239Y-74631488D01*
X107332243Y-74631488D01*
X107472324Y-74618738D01*
X107505842Y-74615688D01*
X107512544Y-74613510D01*
X107512546Y-74613510D01*
X107671626Y-74561822D01*
X107671629Y-74561821D01*
X107678325Y-74559645D01*
X107684373Y-74556040D01*
X107690794Y-74553127D01*
X107692043Y-74555880D01*
X107747782Y-74541542D01*
X107787441Y-74549372D01*
X107852780Y-74573671D01*
X107945465Y-74608140D01*
X107952446Y-74609071D01*
X107952448Y-74609072D01*
X108002034Y-74615688D01*
X108125231Y-74632126D01*
X108132242Y-74631488D01*
X108132246Y-74631488D01*
X108272327Y-74618738D01*
X108305845Y-74615688D01*
X108312547Y-74613510D01*
X108312549Y-74613510D01*
X108471629Y-74561822D01*
X108471632Y-74561821D01*
X108478328Y-74559645D01*
X108484376Y-74556040D01*
X108490797Y-74553127D01*
X108492046Y-74555880D01*
X108547785Y-74541542D01*
X108587444Y-74549372D01*
X108652783Y-74573671D01*
X108745468Y-74608140D01*
X108752449Y-74609071D01*
X108752451Y-74609072D01*
X108802037Y-74615688D01*
X108925234Y-74632126D01*
X108932245Y-74631488D01*
X108932249Y-74631488D01*
X109072330Y-74618738D01*
X109105848Y-74615688D01*
X109112550Y-74613510D01*
X109112552Y-74613510D01*
X109271632Y-74561822D01*
X109271635Y-74561821D01*
X109278331Y-74559645D01*
X109404796Y-74484257D01*
X109428060Y-74470389D01*
X109428062Y-74470388D01*
X109434112Y-74466781D01*
X109565448Y-74341712D01*
X109665811Y-74190653D01*
X109730213Y-74021113D01*
X109755454Y-73841518D01*
X109755771Y-73818804D01*
X109735555Y-73638574D01*
X109675912Y-73467302D01*
X109594917Y-73337682D01*
X109575771Y-73270913D01*
X109575771Y-72665477D01*
X109576285Y-72654563D01*
X109577938Y-72647170D01*
X109575833Y-72580196D01*
X109575771Y-72576239D01*
X109575771Y-72547503D01*
X109575232Y-72543232D01*
X109574299Y-72531394D01*
X109573159Y-72495123D01*
X109572910Y-72487198D01*
X109570697Y-72479580D01*
X109567258Y-72467742D01*
X109563249Y-72448383D01*
X109561705Y-72436160D01*
X109561705Y-72436159D01*
X109560711Y-72428293D01*
X109553824Y-72410897D01*
X109544439Y-72387192D01*
X109540594Y-72375963D01*
X109530470Y-72341116D01*
X109530469Y-72341115D01*
X109528258Y-72333503D01*
X109517945Y-72316064D01*
X109509249Y-72298312D01*
X109504713Y-72286856D01*
X109501793Y-72279481D01*
X109475804Y-72243710D01*
X109469287Y-72233789D01*
X109449819Y-72200871D01*
X109446785Y-72195740D01*
X109446416Y-72195322D01*
X109432333Y-72181239D01*
X109419499Y-72166214D01*
X109407717Y-72149998D01*
X109373935Y-72122051D01*
X109365156Y-72114062D01*
X107041189Y-69790095D01*
X107007163Y-69727783D01*
X107012228Y-69656968D01*
X107054775Y-69600132D01*
X107121295Y-69575321D01*
X107130284Y-69575000D01*
X112838723Y-69575000D01*
X112906844Y-69595002D01*
X112953337Y-69648658D01*
X112963441Y-69718932D01*
X112933947Y-69783512D01*
X112904745Y-69808318D01*
X112852742Y-69840310D01*
X112852740Y-69840312D01*
X112846743Y-69844001D01*
X112717167Y-69970892D01*
X112618922Y-70123337D01*
X112597542Y-70182080D01*
X112559304Y-70287137D01*
X112559303Y-70287141D01*
X112556894Y-70293760D01*
X112534163Y-70473690D01*
X112551861Y-70654184D01*
X112609107Y-70826272D01*
X112612754Y-70832294D01*
X112612755Y-70832296D01*
X112695388Y-70968739D01*
X112703056Y-70981401D01*
X112829040Y-71111861D01*
X112834932Y-71115716D01*
X112834936Y-71115720D01*
X112922945Y-71173311D01*
X112980795Y-71211167D01*
X112987399Y-71213623D01*
X113144179Y-71271929D01*
X113144181Y-71271930D01*
X113150781Y-71274384D01*
X113157764Y-71275316D01*
X113157765Y-71275316D01*
X113212638Y-71282638D01*
X113277515Y-71311474D01*
X113285068Y-71318436D01*
X113629683Y-71663051D01*
X113663709Y-71725363D01*
X113666588Y-71752146D01*
X113666588Y-76557568D01*
X113646586Y-76625689D01*
X113592930Y-76672182D01*
X113522656Y-76682286D01*
X113478551Y-76665979D01*
X113478357Y-76666377D01*
X113474380Y-76664438D01*
X113473078Y-76663956D01*
X113466077Y-76659513D01*
X113295225Y-76598676D01*
X113288233Y-76597842D01*
X113288232Y-76597842D01*
X113205183Y-76587939D01*
X113115141Y-76577202D01*
X113108138Y-76577938D01*
X113108137Y-76577938D01*
X112941783Y-76595422D01*
X112941779Y-76595423D01*
X112934775Y-76596159D01*
X112848703Y-76625460D01*
X112808099Y-76632182D01*
X104546138Y-76632182D01*
X104478017Y-76612180D01*
X104457043Y-76595277D01*
X101366552Y-73504786D01*
X101343000Y-73471524D01*
X101341530Y-73467302D01*
X101277862Y-73365412D01*
X101249156Y-73319472D01*
X101249155Y-73319470D01*
X101245424Y-73313500D01*
X101237801Y-73305823D01*
X101122599Y-73189816D01*
X101117631Y-73184813D01*
X100964504Y-73087635D01*
X100793652Y-73026798D01*
X100786660Y-73025964D01*
X100786659Y-73025964D01*
X100703459Y-73016043D01*
X100613568Y-73005324D01*
X100606565Y-73006060D01*
X100606564Y-73006060D01*
X100440210Y-73023544D01*
X100440206Y-73023545D01*
X100433202Y-73024281D01*
X100426531Y-73026552D01*
X100268188Y-73080456D01*
X100268185Y-73080457D01*
X100261518Y-73082727D01*
X100107048Y-73177757D01*
X100064039Y-73219875D01*
X100002884Y-73279763D01*
X99977472Y-73304648D01*
X99973661Y-73310562D01*
X99973659Y-73310564D01*
X99931434Y-73376084D01*
X99879227Y-73457093D01*
X99868552Y-73486422D01*
X99819609Y-73620893D01*
X99819608Y-73620897D01*
X99817199Y-73627516D01*
X99794468Y-73807446D01*
X99812166Y-73987940D01*
X99869412Y-74160028D01*
X99963361Y-74315157D01*
X100089345Y-74445617D01*
X100095237Y-74449472D01*
X100095241Y-74449476D01*
X100154192Y-74488052D01*
X100241100Y-74544923D01*
X100247700Y-74547377D01*
X100253992Y-74550556D01*
X100253649Y-74551236D01*
X100292730Y-74576326D01*
X103596764Y-77880360D01*
X103609149Y-77894771D01*
X103621378Y-77911388D01*
X103626961Y-77916131D01*
X103660118Y-77944300D01*
X103667634Y-77951230D01*
X103673751Y-77957347D01*
X103676624Y-77959620D01*
X103676633Y-77959628D01*
X103697110Y-77975828D01*
X103700514Y-77978619D01*
X103750561Y-78021137D01*
X103756143Y-78025879D01*
X103762661Y-78029207D01*
X103767686Y-78032559D01*
X103772831Y-78035736D01*
X103778569Y-78040276D01*
X103785200Y-78043375D01*
X103844672Y-78071171D01*
X103848622Y-78073102D01*
X103907112Y-78102968D01*
X103907114Y-78102969D01*
X103913632Y-78106297D01*
X103920739Y-78108036D01*
X103926390Y-78110138D01*
X103932140Y-78112051D01*
X103938769Y-78115149D01*
X103945929Y-78116638D01*
X103945940Y-78116642D01*
X104010260Y-78130021D01*
X104014547Y-78130991D01*
X104079939Y-78146992D01*
X104079945Y-78146993D01*
X104085397Y-78148327D01*
X104091001Y-78148675D01*
X104091003Y-78148675D01*
X104097791Y-78149096D01*
X104101188Y-78149353D01*
X104104728Y-78149669D01*
X104111896Y-78151160D01*
X104119213Y-78150962D01*
X104167665Y-78149651D01*
X104183283Y-78149228D01*
X104186691Y-78149182D01*
X112224962Y-78149182D01*
X112293083Y-78169184D01*
X112339576Y-78222840D01*
X112350962Y-78275182D01*
X112350962Y-84168068D01*
X112330960Y-84236189D01*
X112314057Y-84257163D01*
X112211614Y-84359606D01*
X112179669Y-84382058D01*
X112179252Y-84382200D01*
X112030171Y-84473914D01*
X111961672Y-84492572D01*
X111893958Y-84471233D01*
X111875056Y-84455691D01*
X110936290Y-83516925D01*
X110928930Y-83508837D01*
X110924872Y-83502443D01*
X110876020Y-83456568D01*
X110873179Y-83453814D01*
X110852865Y-83433500D01*
X110849454Y-83430855D01*
X110840432Y-83423149D01*
X110823109Y-83406881D01*
X110808200Y-83392881D01*
X110801256Y-83389064D01*
X110801254Y-83389062D01*
X110790446Y-83383120D01*
X110773922Y-83372266D01*
X110764185Y-83364713D01*
X110764184Y-83364713D01*
X110757922Y-83359855D01*
X110717346Y-83342296D01*
X110706689Y-83337075D01*
X110667947Y-83315776D01*
X110660264Y-83313804D01*
X110660263Y-83313803D01*
X110648331Y-83310739D01*
X110629627Y-83304335D01*
X110618314Y-83299439D01*
X110618307Y-83299437D01*
X110611035Y-83296290D01*
X110603211Y-83295051D01*
X110603208Y-83295050D01*
X110567364Y-83289373D01*
X110555743Y-83286966D01*
X110518681Y-83277451D01*
X110518680Y-83277451D01*
X110512924Y-83275973D01*
X110512368Y-83275938D01*
X110492447Y-83275938D01*
X110472737Y-83274387D01*
X110460785Y-83272494D01*
X110460784Y-83272494D01*
X110452955Y-83271254D01*
X110445063Y-83272000D01*
X110409317Y-83275379D01*
X110397459Y-83275938D01*
X105917515Y-83275938D01*
X105850001Y-83256323D01*
X105732963Y-83182048D01*
X105732962Y-83182047D01*
X105727008Y-83178269D01*
X105556156Y-83117432D01*
X105549164Y-83116598D01*
X105549163Y-83116598D01*
X105466114Y-83106695D01*
X105376072Y-83095958D01*
X105369069Y-83096694D01*
X105369068Y-83096694D01*
X105202714Y-83114178D01*
X105202710Y-83114179D01*
X105195706Y-83114915D01*
X105189035Y-83117186D01*
X105030692Y-83171090D01*
X105030689Y-83171091D01*
X105024022Y-83173361D01*
X104869552Y-83268391D01*
X104811138Y-83325595D01*
X104746328Y-83389062D01*
X104739976Y-83395282D01*
X104736165Y-83401196D01*
X104736163Y-83401198D01*
X104687323Y-83476982D01*
X104641731Y-83547727D01*
X104625802Y-83591492D01*
X104582113Y-83711527D01*
X104582112Y-83711531D01*
X104579703Y-83718150D01*
X104576048Y-83747081D01*
X104570534Y-83790730D01*
X104542152Y-83855807D01*
X104483093Y-83895208D01*
X104445528Y-83900938D01*
X91451000Y-83900938D01*
X91382879Y-83880936D01*
X91336386Y-83827280D01*
X91325000Y-83774938D01*
X91325000Y-69701000D01*
X91345002Y-69632879D01*
X91398658Y-69586386D01*
X91451000Y-69575000D01*
X96787137Y-69575000D01*
X96855258Y-69595002D01*
G37*
%TD.AperFunction*%
%TA.AperFunction,Conductor*%
G36*
X25916317Y-52063770D02*
G01*
X26065033Y-52161087D01*
X26235019Y-52224304D01*
X26242000Y-52225235D01*
X26242002Y-52225236D01*
X26291588Y-52231852D01*
X26414785Y-52248290D01*
X26421796Y-52247652D01*
X26421800Y-52247652D01*
X26561881Y-52234902D01*
X26595399Y-52231852D01*
X26602101Y-52229674D01*
X26602103Y-52229674D01*
X26761183Y-52177986D01*
X26761186Y-52177985D01*
X26767882Y-52175809D01*
X26918137Y-52086239D01*
X26982654Y-52068468D01*
X36720766Y-52068468D01*
X36789759Y-52089036D01*
X36899864Y-52161087D01*
X37069850Y-52224304D01*
X37205318Y-52242379D01*
X37215665Y-52243760D01*
X37280541Y-52272596D01*
X37319529Y-52331929D01*
X37325000Y-52368653D01*
X37325000Y-54949000D01*
X37304998Y-55017121D01*
X37251342Y-55063614D01*
X37199000Y-55075000D01*
X23951000Y-55075000D01*
X23882879Y-55054998D01*
X23836386Y-55001342D01*
X23825000Y-54949000D01*
X23825000Y-52874468D01*
X23845002Y-52806347D01*
X23898658Y-52759854D01*
X23951000Y-52748468D01*
X25207825Y-52748468D01*
X25280904Y-52743241D01*
X25358990Y-52720313D01*
X25412495Y-52704603D01*
X25412497Y-52704602D01*
X25421141Y-52702064D01*
X25459297Y-52677542D01*
X25536516Y-52627917D01*
X25536519Y-52627915D01*
X25544096Y-52623045D01*
X25588931Y-52571303D01*
X25633907Y-52519399D01*
X25633909Y-52519396D01*
X25639809Y-52512587D01*
X25700525Y-52379638D01*
X25702104Y-52368653D01*
X25720686Y-52239416D01*
X25720687Y-52239409D01*
X25721325Y-52234968D01*
X25721325Y-52169202D01*
X25741327Y-52101081D01*
X25794983Y-52054588D01*
X25865257Y-52044484D01*
X25916317Y-52063770D01*
G37*
%TD.AperFunction*%
%TA.AperFunction,Conductor*%
G36*
X33596817Y-33595002D02*
G01*
X33643310Y-33648658D01*
X33654634Y-33697043D01*
X33656438Y-33754461D01*
X33656500Y-33758418D01*
X33656500Y-33787173D01*
X33656996Y-33791098D01*
X33656996Y-33791099D01*
X33657039Y-33791438D01*
X33657972Y-33803282D01*
X33659361Y-33847478D01*
X33661573Y-33855090D01*
X33665012Y-33866928D01*
X33669022Y-33886290D01*
X33671560Y-33906383D01*
X33674476Y-33913748D01*
X33674477Y-33913752D01*
X33687837Y-33947496D01*
X33691681Y-33958723D01*
X33704014Y-34001173D01*
X33708052Y-34008001D01*
X33714323Y-34018606D01*
X33723019Y-34036357D01*
X33727558Y-34047821D01*
X33730478Y-34055195D01*
X33735139Y-34061610D01*
X33756465Y-34090962D01*
X33762983Y-34100885D01*
X33785486Y-34138936D01*
X33785855Y-34139354D01*
X33799938Y-34153437D01*
X33812772Y-34168462D01*
X33824554Y-34184678D01*
X33858335Y-34212624D01*
X33867115Y-34220614D01*
X34887856Y-35241355D01*
X34921882Y-35303667D01*
X34916817Y-35374482D01*
X34874270Y-35431318D01*
X34845046Y-35447641D01*
X34816508Y-35458911D01*
X34811944Y-35461680D01*
X34811945Y-35461680D01*
X34616732Y-35580138D01*
X34616729Y-35580140D01*
X34612171Y-35582906D01*
X34431647Y-35739557D01*
X34428264Y-35743683D01*
X34428259Y-35743688D01*
X34283484Y-35920255D01*
X34280098Y-35924385D01*
X34277457Y-35929024D01*
X34276058Y-35931060D01*
X34220989Y-35975870D01*
X34150436Y-35983794D01*
X34086799Y-35952316D01*
X34067699Y-35930058D01*
X34048505Y-35901549D01*
X34006594Y-35839296D01*
X33997245Y-35829495D01*
X33908442Y-35736406D01*
X33841613Y-35666351D01*
X33649852Y-35523677D01*
X33645101Y-35521261D01*
X33645097Y-35521259D01*
X33441549Y-35417770D01*
X33441548Y-35417770D01*
X33436793Y-35415352D01*
X33208528Y-35344474D01*
X33148540Y-35336523D01*
X32976868Y-35313769D01*
X32976865Y-35313769D01*
X32971585Y-35313069D01*
X32966256Y-35313269D01*
X32966255Y-35313269D01*
X32880862Y-35316475D01*
X32732738Y-35322036D01*
X32694234Y-35330115D01*
X32504043Y-35370021D01*
X32504040Y-35370022D01*
X32498816Y-35371118D01*
X32276508Y-35458911D01*
X32271944Y-35461680D01*
X32271945Y-35461680D01*
X32076732Y-35580138D01*
X32076729Y-35580140D01*
X32072171Y-35582906D01*
X31891647Y-35739557D01*
X31888264Y-35743683D01*
X31888259Y-35743688D01*
X31743484Y-35920255D01*
X31740098Y-35924385D01*
X31737457Y-35929024D01*
X31736058Y-35931060D01*
X31680989Y-35975870D01*
X31610436Y-35983794D01*
X31546799Y-35952316D01*
X31527699Y-35930058D01*
X31508505Y-35901549D01*
X31466594Y-35839296D01*
X31457245Y-35829495D01*
X31368442Y-35736406D01*
X31301613Y-35666351D01*
X31109852Y-35523677D01*
X31105101Y-35521261D01*
X31105097Y-35521259D01*
X30901549Y-35417770D01*
X30901548Y-35417770D01*
X30896793Y-35415352D01*
X30668528Y-35344474D01*
X30608540Y-35336523D01*
X30436868Y-35313769D01*
X30436865Y-35313769D01*
X30431585Y-35313069D01*
X30426256Y-35313269D01*
X30426255Y-35313269D01*
X30340862Y-35316475D01*
X30192738Y-35322036D01*
X30154234Y-35330115D01*
X29964043Y-35370021D01*
X29964040Y-35370022D01*
X29958816Y-35371118D01*
X29736508Y-35458911D01*
X29731944Y-35461680D01*
X29731945Y-35461680D01*
X29536732Y-35580138D01*
X29536729Y-35580140D01*
X29532171Y-35582906D01*
X29402200Y-35695689D01*
X29337643Y-35725228D01*
X29267362Y-35715174D01*
X29213673Y-35668720D01*
X29198726Y-35636022D01*
X29194180Y-35620540D01*
X29186767Y-35604308D01*
X29117574Y-35496640D01*
X29105888Y-35483153D01*
X29009160Y-35399338D01*
X28994152Y-35389693D01*
X28877725Y-35336523D01*
X28860612Y-35331498D01*
X28729446Y-35312639D01*
X28720505Y-35312000D01*
X28097115Y-35312000D01*
X28081876Y-35316475D01*
X28080671Y-35317865D01*
X28079000Y-35325548D01*
X28079000Y-39319885D01*
X28083475Y-39335124D01*
X28084865Y-39336329D01*
X28092548Y-39338000D01*
X28722743Y-39338000D01*
X28727250Y-39337839D01*
X28791269Y-39333260D01*
X28804491Y-39330874D01*
X28929458Y-39294181D01*
X28945692Y-39286767D01*
X29053360Y-39217574D01*
X29066847Y-39205888D01*
X29150662Y-39109160D01*
X29160307Y-39094152D01*
X29203907Y-38998680D01*
X29250400Y-38945024D01*
X29318521Y-38925022D01*
X29386642Y-38945024D01*
X29409692Y-38964052D01*
X29424703Y-38979788D01*
X29424708Y-38979792D01*
X29428387Y-38983649D01*
X29620148Y-39126323D01*
X29624903Y-39128741D01*
X29624907Y-39128743D01*
X29662604Y-39147909D01*
X29714262Y-39196612D01*
X29731500Y-39260226D01*
X29731500Y-39811624D01*
X29730986Y-39822528D01*
X29729334Y-39829919D01*
X29729583Y-39837845D01*
X29729583Y-39837846D01*
X29731438Y-39896874D01*
X29731500Y-39900831D01*
X29731500Y-39929586D01*
X29731996Y-39933511D01*
X29731996Y-39933512D01*
X29732039Y-39933851D01*
X29732972Y-39945695D01*
X29734361Y-39989891D01*
X29736573Y-39997503D01*
X29740012Y-40009341D01*
X29744022Y-40028703D01*
X29746560Y-40048796D01*
X29749476Y-40056161D01*
X29749477Y-40056165D01*
X29762837Y-40089909D01*
X29766681Y-40101136D01*
X29779014Y-40143586D01*
X29783052Y-40150414D01*
X29789323Y-40161019D01*
X29798019Y-40178770D01*
X29802558Y-40190234D01*
X29805478Y-40197608D01*
X29810139Y-40204023D01*
X29831465Y-40233375D01*
X29837983Y-40243298D01*
X29860486Y-40281349D01*
X29860855Y-40281767D01*
X29874938Y-40295850D01*
X29887772Y-40310875D01*
X29899554Y-40327091D01*
X29933335Y-40355037D01*
X29942115Y-40363027D01*
X31907086Y-42327999D01*
X31941112Y-42390311D01*
X31943390Y-42404797D01*
X31946484Y-42436351D01*
X32003730Y-42608439D01*
X32007377Y-42614461D01*
X32007378Y-42614463D01*
X32067256Y-42713333D01*
X32097679Y-42763568D01*
X32223663Y-42894028D01*
X32229555Y-42897883D01*
X32229559Y-42897887D01*
X32261518Y-42918800D01*
X32375418Y-42993334D01*
X32545404Y-43056551D01*
X32552385Y-43057482D01*
X32552387Y-43057483D01*
X32601973Y-43064099D01*
X32725170Y-43080537D01*
X32732181Y-43079899D01*
X32732185Y-43079899D01*
X32872266Y-43067149D01*
X32905784Y-43064099D01*
X32912486Y-43061921D01*
X32912488Y-43061921D01*
X33071568Y-43010233D01*
X33071571Y-43010232D01*
X33078267Y-43008056D01*
X33234048Y-42915192D01*
X33365384Y-42790123D01*
X33440205Y-42677508D01*
X33461846Y-42644936D01*
X33461847Y-42644934D01*
X33465747Y-42639064D01*
X33530149Y-42469524D01*
X33545556Y-42359901D01*
X33554839Y-42293851D01*
X33554839Y-42293848D01*
X33555390Y-42289929D01*
X33555707Y-42267215D01*
X33535491Y-42086985D01*
X33475848Y-41915713D01*
X33379742Y-41761911D01*
X33251949Y-41633224D01*
X33098822Y-41536046D01*
X33046389Y-41517376D01*
X32934610Y-41477573D01*
X32934607Y-41477572D01*
X32927970Y-41475209D01*
X32910847Y-41473167D01*
X32878343Y-41469291D01*
X32813070Y-41441363D01*
X32804168Y-41433272D01*
X31035405Y-39664509D01*
X31001379Y-39602197D01*
X30998500Y-39575414D01*
X30998500Y-39258975D01*
X31018502Y-39190854D01*
X31059135Y-39151256D01*
X31193263Y-39069865D01*
X31193267Y-39069862D01*
X31197829Y-39067094D01*
X31378353Y-38910443D01*
X31381736Y-38906317D01*
X31381741Y-38906312D01*
X31526516Y-38729745D01*
X31526519Y-38729741D01*
X31529902Y-38725615D01*
X31532543Y-38720976D01*
X31533942Y-38718940D01*
X31589011Y-38674130D01*
X31659564Y-38666206D01*
X31723201Y-38697684D01*
X31742301Y-38719942D01*
X31748708Y-38729459D01*
X31803406Y-38810704D01*
X31807085Y-38814561D01*
X31807087Y-38814563D01*
X31819190Y-38827250D01*
X31968387Y-38983649D01*
X32160148Y-39126323D01*
X32164899Y-39128739D01*
X32164903Y-39128741D01*
X32368451Y-39232230D01*
X32373207Y-39234648D01*
X32601472Y-39305526D01*
X32606761Y-39306227D01*
X32833132Y-39336231D01*
X32833135Y-39336231D01*
X32838415Y-39336931D01*
X32843744Y-39336731D01*
X32843745Y-39336731D01*
X32966162Y-39332135D01*
X33077262Y-39327964D01*
X33194066Y-39303456D01*
X33305957Y-39279979D01*
X33305960Y-39279978D01*
X33311184Y-39278882D01*
X33533492Y-39191089D01*
X33636238Y-39128741D01*
X33733268Y-39069862D01*
X33733271Y-39069860D01*
X33737829Y-39067094D01*
X33918353Y-38910443D01*
X33921736Y-38906317D01*
X33921741Y-38906312D01*
X34066516Y-38729745D01*
X34066519Y-38729741D01*
X34069902Y-38725615D01*
X34072543Y-38720976D01*
X34073942Y-38718940D01*
X34129011Y-38674130D01*
X34199564Y-38666206D01*
X34263201Y-38697684D01*
X34282301Y-38719942D01*
X34288708Y-38729459D01*
X34343406Y-38810704D01*
X34347085Y-38814561D01*
X34347087Y-38814563D01*
X34359190Y-38827250D01*
X34508387Y-38983649D01*
X34700148Y-39126323D01*
X34704899Y-39128739D01*
X34704903Y-39128741D01*
X34908451Y-39232230D01*
X34913207Y-39234648D01*
X35141472Y-39305526D01*
X35146761Y-39306227D01*
X35373132Y-39336231D01*
X35373135Y-39336231D01*
X35378415Y-39336931D01*
X35383744Y-39336731D01*
X35383745Y-39336731D01*
X35506162Y-39332135D01*
X35617262Y-39327964D01*
X35734066Y-39303456D01*
X35845957Y-39279979D01*
X35845960Y-39279978D01*
X35851184Y-39278882D01*
X35864228Y-39273731D01*
X35934932Y-39267311D01*
X35997884Y-39300138D01*
X36033095Y-39361788D01*
X36036510Y-39390922D01*
X36036510Y-42624126D01*
X36035996Y-42635030D01*
X36034344Y-42642421D01*
X36034593Y-42650347D01*
X36034593Y-42650348D01*
X36036448Y-42709376D01*
X36036510Y-42713333D01*
X36036510Y-42742088D01*
X36037006Y-42746013D01*
X36037006Y-42746014D01*
X36037049Y-42746353D01*
X36037982Y-42758197D01*
X36039371Y-42802393D01*
X36041583Y-42810005D01*
X36045022Y-42821843D01*
X36049032Y-42841205D01*
X36051570Y-42861298D01*
X36054486Y-42868663D01*
X36054487Y-42868667D01*
X36067847Y-42902411D01*
X36071691Y-42913638D01*
X36084024Y-42956088D01*
X36088062Y-42962916D01*
X36094333Y-42973521D01*
X36103029Y-42991272D01*
X36104818Y-42995790D01*
X36110488Y-43010110D01*
X36115149Y-43016525D01*
X36136475Y-43045877D01*
X36142993Y-43055800D01*
X36165496Y-43093851D01*
X36165865Y-43094269D01*
X36179948Y-43108352D01*
X36192782Y-43123377D01*
X36204564Y-43139593D01*
X36233106Y-43163205D01*
X36238345Y-43167539D01*
X36247125Y-43175529D01*
X37288095Y-44216499D01*
X37322121Y-44278811D01*
X37325000Y-44305594D01*
X37325000Y-46258275D01*
X37304998Y-46326396D01*
X37245282Y-46375467D01*
X37175840Y-46402891D01*
X37171276Y-46405661D01*
X37171273Y-46405662D01*
X37072818Y-46465406D01*
X36978600Y-46522579D01*
X36804347Y-46673788D01*
X36800960Y-46677919D01*
X36661446Y-46848067D01*
X36661442Y-46848073D01*
X36658062Y-46852195D01*
X36543928Y-47052700D01*
X36465209Y-47269568D01*
X36424155Y-47496599D01*
X36421941Y-47727301D01*
X36458629Y-47955078D01*
X36533170Y-48173418D01*
X36643434Y-48376076D01*
X36786267Y-48557259D01*
X36957585Y-48711785D01*
X36962092Y-48714640D01*
X36962095Y-48714642D01*
X37069899Y-48782925D01*
X37152490Y-48835238D01*
X37157416Y-48837294D01*
X37157417Y-48837294D01*
X37247522Y-48874893D01*
X37302687Y-48919585D01*
X37325000Y-48991175D01*
X37325000Y-50502501D01*
X37304998Y-50570622D01*
X37251342Y-50617115D01*
X37212171Y-50627811D01*
X37191992Y-50629932D01*
X37091966Y-50640445D01*
X37085295Y-50642716D01*
X36926952Y-50696620D01*
X36926949Y-50696621D01*
X36920282Y-50698891D01*
X36785429Y-50781853D01*
X36783912Y-50782786D01*
X36717890Y-50801468D01*
X26978944Y-50801468D01*
X26911430Y-50781853D01*
X26794392Y-50707578D01*
X26794391Y-50707577D01*
X26788437Y-50703799D01*
X26617585Y-50642962D01*
X26610593Y-50642128D01*
X26610592Y-50642128D01*
X26527543Y-50632225D01*
X26437501Y-50621488D01*
X26430498Y-50622224D01*
X26430497Y-50622224D01*
X26264143Y-50639708D01*
X26264139Y-50639709D01*
X26257135Y-50640445D01*
X26250464Y-50642716D01*
X26092121Y-50696620D01*
X26092118Y-50696621D01*
X26085451Y-50698891D01*
X25930981Y-50793921D01*
X25925947Y-50798851D01*
X25924901Y-50799668D01*
X25858908Y-50825848D01*
X25789237Y-50812192D01*
X25738008Y-50763038D01*
X25721325Y-50700381D01*
X25721325Y-50634968D01*
X25716098Y-50561889D01*
X25674921Y-50421652D01*
X25633596Y-50357349D01*
X25600774Y-50306277D01*
X25600772Y-50306274D01*
X25595902Y-50298697D01*
X25536189Y-50246955D01*
X25492256Y-50208886D01*
X25492253Y-50208884D01*
X25485444Y-50202984D01*
X25352495Y-50142268D01*
X25343580Y-50140986D01*
X25343579Y-50140986D01*
X25212273Y-50122107D01*
X25212266Y-50122106D01*
X25207825Y-50121468D01*
X23951000Y-50121468D01*
X23882879Y-50101466D01*
X23836386Y-50047810D01*
X23825000Y-49995468D01*
X23825000Y-45177668D01*
X23845002Y-45109547D01*
X23898658Y-45063054D01*
X23968932Y-45052950D01*
X23983611Y-45055961D01*
X24174423Y-45107089D01*
X24174425Y-45107089D01*
X24179738Y-45108513D01*
X24407825Y-45128468D01*
X24635912Y-45108513D01*
X24641225Y-45107089D01*
X24641227Y-45107089D01*
X24851758Y-45050677D01*
X24851760Y-45050676D01*
X24857068Y-45049254D01*
X24862050Y-45046931D01*
X25059588Y-44954818D01*
X25059593Y-44954815D01*
X25064575Y-44952492D01*
X25069084Y-44949335D01*
X25247616Y-44824326D01*
X25247619Y-44824324D01*
X25252127Y-44821167D01*
X25414024Y-44659270D01*
X25545349Y-44471718D01*
X25547672Y-44466736D01*
X25547675Y-44466731D01*
X25639788Y-44269193D01*
X25639789Y-44269192D01*
X25642111Y-44264211D01*
X25654896Y-44216499D01*
X25699946Y-44048370D01*
X25699946Y-44048368D01*
X25701370Y-44043055D01*
X25721325Y-43814968D01*
X25701370Y-43586881D01*
X25642111Y-43365725D01*
X25639788Y-43360743D01*
X25547675Y-43163205D01*
X25547672Y-43163200D01*
X25545349Y-43158218D01*
X25532308Y-43139593D01*
X25417183Y-42975177D01*
X25417181Y-42975174D01*
X25414024Y-42970666D01*
X25252127Y-42808769D01*
X25247619Y-42805612D01*
X25247616Y-42805610D01*
X25069084Y-42680601D01*
X25069082Y-42680600D01*
X25064575Y-42677444D01*
X25059593Y-42675121D01*
X25059588Y-42675118D01*
X24862050Y-42583005D01*
X24862049Y-42583004D01*
X24857068Y-42580682D01*
X24851760Y-42579260D01*
X24851758Y-42579259D01*
X24641227Y-42522847D01*
X24641225Y-42522847D01*
X24635912Y-42521423D01*
X24407825Y-42501468D01*
X24179738Y-42521423D01*
X24174425Y-42522847D01*
X24174423Y-42522847D01*
X23983611Y-42573975D01*
X23912635Y-42572285D01*
X23853839Y-42532491D01*
X23825891Y-42467227D01*
X23825000Y-42452268D01*
X23825000Y-37592548D01*
X26412000Y-37592548D01*
X26412000Y-38822743D01*
X26412161Y-38827250D01*
X26416740Y-38891269D01*
X26419126Y-38904491D01*
X26455819Y-39029458D01*
X26463233Y-39045692D01*
X26532426Y-39153360D01*
X26544112Y-39166847D01*
X26640840Y-39250662D01*
X26655848Y-39260307D01*
X26772275Y-39313477D01*
X26789388Y-39318502D01*
X26920554Y-39337361D01*
X26929495Y-39338000D01*
X27552885Y-39338000D01*
X27568124Y-39333525D01*
X27569329Y-39332135D01*
X27571000Y-39324452D01*
X27571000Y-37597115D01*
X27566525Y-37581876D01*
X27565135Y-37580671D01*
X27557452Y-37579000D01*
X26430115Y-37579000D01*
X26414876Y-37583475D01*
X26413671Y-37584865D01*
X26412000Y-37592548D01*
X23825000Y-37592548D01*
X23825000Y-35829495D01*
X26412000Y-35829495D01*
X26412000Y-37052885D01*
X26416475Y-37068124D01*
X26417865Y-37069329D01*
X26425548Y-37071000D01*
X27552885Y-37071000D01*
X27568124Y-37066525D01*
X27569329Y-37065135D01*
X27571000Y-37057452D01*
X27571000Y-35330115D01*
X27566525Y-35314876D01*
X27565135Y-35313671D01*
X27557452Y-35312000D01*
X26927257Y-35312000D01*
X26922750Y-35312161D01*
X26858731Y-35316740D01*
X26845509Y-35319126D01*
X26720542Y-35355819D01*
X26704308Y-35363233D01*
X26596640Y-35432426D01*
X26583153Y-35444112D01*
X26499338Y-35540840D01*
X26489693Y-35555848D01*
X26436523Y-35672275D01*
X26431498Y-35689388D01*
X26412639Y-35820554D01*
X26412000Y-35829495D01*
X23825000Y-35829495D01*
X23825000Y-33701000D01*
X23845002Y-33632879D01*
X23898658Y-33586386D01*
X23951000Y-33575000D01*
X33528696Y-33575000D01*
X33596817Y-33595002D01*
G37*
%TD.AperFunction*%
%TA.AperFunction,Conductor*%
G36*
X44734129Y-33595002D02*
G01*
X44748520Y-33605775D01*
X44761474Y-33617000D01*
X44894423Y-33677716D01*
X44903338Y-33678998D01*
X44903339Y-33678998D01*
X45034645Y-33697877D01*
X45034652Y-33697878D01*
X45039093Y-33698516D01*
X46639093Y-33698516D01*
X46712172Y-33693289D01*
X46790258Y-33670361D01*
X46843763Y-33654651D01*
X46843765Y-33654650D01*
X46852409Y-33652112D01*
X46941273Y-33595002D01*
X47009394Y-33575000D01*
X51199000Y-33575000D01*
X51267121Y-33595002D01*
X51313614Y-33648658D01*
X51325000Y-33701000D01*
X51325000Y-42449000D01*
X51304998Y-42517121D01*
X51251342Y-42563614D01*
X51199000Y-42575000D01*
X51045985Y-42575000D01*
X51013374Y-42570707D01*
X50834999Y-42522911D01*
X50834997Y-42522911D01*
X50829684Y-42521487D01*
X50601597Y-42501532D01*
X50373510Y-42521487D01*
X50368197Y-42522911D01*
X50368195Y-42522911D01*
X50189820Y-42570707D01*
X50157209Y-42575000D01*
X47177835Y-42575000D01*
X47109714Y-42554998D01*
X47063221Y-42501342D01*
X47052223Y-42458886D01*
X47038994Y-42290800D01*
X47038606Y-42285866D01*
X47037452Y-42281059D01*
X47037451Y-42281053D01*
X46992539Y-42093984D01*
X46977925Y-42033113D01*
X46929296Y-41915713D01*
X46880347Y-41797539D01*
X46880345Y-41797535D01*
X46878452Y-41792965D01*
X46742637Y-41571334D01*
X46573822Y-41373678D01*
X46376166Y-41204863D01*
X46154535Y-41069048D01*
X46149965Y-41067155D01*
X46149961Y-41067153D01*
X45918960Y-40971469D01*
X45918958Y-40971468D01*
X45914387Y-40969575D01*
X45825802Y-40948308D01*
X45666447Y-40910049D01*
X45666441Y-40910048D01*
X45661634Y-40908894D01*
X45402500Y-40888500D01*
X45143366Y-40908894D01*
X45138559Y-40910048D01*
X45138553Y-40910049D01*
X44979198Y-40948308D01*
X44890613Y-40969575D01*
X44886042Y-40971468D01*
X44886040Y-40971469D01*
X44655039Y-41067153D01*
X44655035Y-41067155D01*
X44650465Y-41069048D01*
X44428834Y-41204863D01*
X44231178Y-41373678D01*
X44062363Y-41571334D01*
X43926548Y-41792965D01*
X43924655Y-41797535D01*
X43924653Y-41797539D01*
X43875704Y-41915713D01*
X43827075Y-42033113D01*
X43812461Y-42093984D01*
X43767549Y-42281053D01*
X43767548Y-42281059D01*
X43766394Y-42285866D01*
X43766006Y-42290800D01*
X43752777Y-42458886D01*
X43727491Y-42525227D01*
X43670353Y-42567367D01*
X43627165Y-42575000D01*
X38100024Y-42575000D01*
X38093732Y-42582167D01*
X37879435Y-42826276D01*
X37819462Y-42864274D01*
X37748467Y-42863815D01*
X37695650Y-42832246D01*
X37340415Y-42477011D01*
X37306389Y-42414699D01*
X37303510Y-42387916D01*
X37303510Y-39358703D01*
X37323512Y-39290582D01*
X37377168Y-39244089D01*
X37447442Y-39233985D01*
X37466874Y-39238371D01*
X37676475Y-39303454D01*
X37686867Y-39305739D01*
X37713041Y-39309208D01*
X37727208Y-39307011D01*
X37731000Y-39293827D01*
X37731000Y-35357810D01*
X37730519Y-35356173D01*
X38239000Y-35356173D01*
X38239000Y-39292190D01*
X38242973Y-39305721D01*
X38253580Y-39307246D01*
X38385823Y-39279498D01*
X38396002Y-39276443D01*
X38608301Y-39192603D01*
X38617833Y-39187872D01*
X38812974Y-39069457D01*
X38821564Y-39063193D01*
X38993962Y-38913594D01*
X39001382Y-38905964D01*
X39146104Y-38729462D01*
X39153642Y-38718494D01*
X39208711Y-38673684D01*
X39279264Y-38665760D01*
X39342901Y-38697238D01*
X39362001Y-38719496D01*
X39423406Y-38810704D01*
X39427085Y-38814561D01*
X39427087Y-38814563D01*
X39439190Y-38827250D01*
X39588387Y-38983649D01*
X39780148Y-39126323D01*
X39784899Y-39128739D01*
X39784903Y-39128741D01*
X39988451Y-39232230D01*
X39993207Y-39234648D01*
X40221472Y-39305526D01*
X40226761Y-39306227D01*
X40453132Y-39336231D01*
X40453135Y-39336231D01*
X40458415Y-39336931D01*
X40463744Y-39336731D01*
X40463745Y-39336731D01*
X40586162Y-39332135D01*
X40697262Y-39327964D01*
X40814066Y-39303456D01*
X40925957Y-39279979D01*
X40925960Y-39279978D01*
X40931184Y-39278882D01*
X41153492Y-39191089D01*
X41256238Y-39128741D01*
X41353268Y-39069862D01*
X41353271Y-39069860D01*
X41357829Y-39067094D01*
X41538353Y-38910443D01*
X41541736Y-38906317D01*
X41541741Y-38906312D01*
X41686516Y-38729745D01*
X41686519Y-38729741D01*
X41689902Y-38725615D01*
X41692543Y-38720976D01*
X41693942Y-38718940D01*
X41749011Y-38674130D01*
X41819564Y-38666206D01*
X41883201Y-38697684D01*
X41902301Y-38719942D01*
X41908708Y-38729459D01*
X41963406Y-38810704D01*
X41967085Y-38814561D01*
X41967087Y-38814563D01*
X41979190Y-38827250D01*
X42128387Y-38983649D01*
X42320148Y-39126323D01*
X42324899Y-39128739D01*
X42324903Y-39128741D01*
X42528451Y-39232230D01*
X42533207Y-39234648D01*
X42761472Y-39305526D01*
X42766761Y-39306227D01*
X42993132Y-39336231D01*
X42993135Y-39336231D01*
X42998415Y-39336931D01*
X43003744Y-39336731D01*
X43003745Y-39336731D01*
X43126162Y-39332135D01*
X43237262Y-39327964D01*
X43354066Y-39303456D01*
X43465957Y-39279979D01*
X43465960Y-39279978D01*
X43471184Y-39278882D01*
X43693492Y-39191089D01*
X43796238Y-39128741D01*
X43893268Y-39069862D01*
X43893271Y-39069860D01*
X43897829Y-39067094D01*
X44078353Y-38910443D01*
X44081736Y-38906317D01*
X44081741Y-38906312D01*
X44226516Y-38729745D01*
X44226519Y-38729741D01*
X44229902Y-38725615D01*
X44232543Y-38720976D01*
X44233942Y-38718940D01*
X44289011Y-38674130D01*
X44359564Y-38666206D01*
X44423201Y-38697684D01*
X44442301Y-38719942D01*
X44448708Y-38729459D01*
X44503406Y-38810704D01*
X44507085Y-38814561D01*
X44507087Y-38814563D01*
X44519190Y-38827250D01*
X44668387Y-38983649D01*
X44860148Y-39126323D01*
X44864899Y-39128739D01*
X44864903Y-39128741D01*
X45068451Y-39232230D01*
X45073207Y-39234648D01*
X45301472Y-39305526D01*
X45306761Y-39306227D01*
X45533132Y-39336231D01*
X45533135Y-39336231D01*
X45538415Y-39336931D01*
X45543744Y-39336731D01*
X45543745Y-39336731D01*
X45666162Y-39332135D01*
X45777262Y-39327964D01*
X45894066Y-39303456D01*
X46005957Y-39279979D01*
X46005960Y-39279978D01*
X46011184Y-39278882D01*
X46233492Y-39191089D01*
X46336238Y-39128741D01*
X46433268Y-39069862D01*
X46433271Y-39069860D01*
X46437829Y-39067094D01*
X46618353Y-38910443D01*
X46621736Y-38906317D01*
X46621741Y-38906312D01*
X46766519Y-38729741D01*
X46766520Y-38729740D01*
X46769902Y-38725615D01*
X46772542Y-38720977D01*
X46774243Y-38718502D01*
X46829310Y-38673690D01*
X46899863Y-38665764D01*
X46963501Y-38697239D01*
X46982604Y-38719500D01*
X47040815Y-38805965D01*
X47047476Y-38814250D01*
X47205039Y-38979417D01*
X47212996Y-38986457D01*
X47396129Y-39122712D01*
X47405166Y-39128316D01*
X47608639Y-39231767D01*
X47618490Y-39235767D01*
X47836486Y-39303456D01*
X47846867Y-39305739D01*
X47873041Y-39309208D01*
X47887208Y-39307011D01*
X47891000Y-39293827D01*
X47891000Y-37592548D01*
X48399000Y-37592548D01*
X48399000Y-39292190D01*
X48402973Y-39305721D01*
X48413580Y-39307246D01*
X48545823Y-39279498D01*
X48556002Y-39276443D01*
X48768301Y-39192603D01*
X48777833Y-39187872D01*
X48972974Y-39069457D01*
X48981564Y-39063193D01*
X49153962Y-38913594D01*
X49161382Y-38905964D01*
X49306106Y-38729459D01*
X49312128Y-38720697D01*
X49425049Y-38522326D01*
X49429512Y-38512666D01*
X49507392Y-38298109D01*
X49510163Y-38287841D01*
X49550991Y-38062059D01*
X49551924Y-38053830D01*
X49552930Y-38032512D01*
X49553000Y-38029537D01*
X49553000Y-37597115D01*
X49548525Y-37581876D01*
X49547135Y-37580671D01*
X49539452Y-37579000D01*
X48417115Y-37579000D01*
X48401876Y-37583475D01*
X48400671Y-37584865D01*
X48399000Y-37592548D01*
X47891000Y-37592548D01*
X47891000Y-35357810D01*
X47890519Y-35356173D01*
X48399000Y-35356173D01*
X48399000Y-37052885D01*
X48403475Y-37068124D01*
X48404865Y-37069329D01*
X48412548Y-37071000D01*
X49534885Y-37071000D01*
X49550124Y-37066525D01*
X49551329Y-37065135D01*
X49553000Y-37057452D01*
X49553000Y-36668733D01*
X49552775Y-36663424D01*
X49538250Y-36492236D01*
X49536460Y-36481764D01*
X49479116Y-36260827D01*
X49475581Y-36250787D01*
X49381830Y-36042669D01*
X49376661Y-36033383D01*
X49249185Y-35844036D01*
X49242524Y-35835750D01*
X49084961Y-35670583D01*
X49077004Y-35663543D01*
X48893871Y-35527288D01*
X48884834Y-35521684D01*
X48681361Y-35418233D01*
X48671510Y-35414233D01*
X48453514Y-35346544D01*
X48443133Y-35344261D01*
X48416959Y-35340792D01*
X48402792Y-35342989D01*
X48399000Y-35356173D01*
X47890519Y-35356173D01*
X47887027Y-35344279D01*
X47876420Y-35342754D01*
X47744177Y-35370502D01*
X47733998Y-35373557D01*
X47521699Y-35457397D01*
X47512167Y-35462128D01*
X47317026Y-35580543D01*
X47308436Y-35586807D01*
X47136038Y-35736406D01*
X47128618Y-35744036D01*
X46983896Y-35920538D01*
X46976358Y-35931506D01*
X46921289Y-35976316D01*
X46850736Y-35984240D01*
X46787099Y-35952762D01*
X46767999Y-35930504D01*
X46762400Y-35922187D01*
X46706594Y-35839296D01*
X46697245Y-35829495D01*
X46608442Y-35736406D01*
X46541613Y-35666351D01*
X46349852Y-35523677D01*
X46345101Y-35521261D01*
X46345097Y-35521259D01*
X46141549Y-35417770D01*
X46141548Y-35417770D01*
X46136793Y-35415352D01*
X45908528Y-35344474D01*
X45848540Y-35336523D01*
X45676868Y-35313769D01*
X45676865Y-35313769D01*
X45671585Y-35313069D01*
X45666256Y-35313269D01*
X45666255Y-35313269D01*
X45580862Y-35316475D01*
X45432738Y-35322036D01*
X45394234Y-35330115D01*
X45204043Y-35370021D01*
X45204040Y-35370022D01*
X45198816Y-35371118D01*
X44976508Y-35458911D01*
X44971944Y-35461680D01*
X44971945Y-35461680D01*
X44776732Y-35580138D01*
X44776729Y-35580140D01*
X44772171Y-35582906D01*
X44591647Y-35739557D01*
X44588264Y-35743683D01*
X44588259Y-35743688D01*
X44443484Y-35920255D01*
X44440098Y-35924385D01*
X44437457Y-35929024D01*
X44436058Y-35931060D01*
X44380989Y-35975870D01*
X44310436Y-35983794D01*
X44246799Y-35952316D01*
X44227699Y-35930058D01*
X44208505Y-35901549D01*
X44166594Y-35839296D01*
X44157245Y-35829495D01*
X44068442Y-35736406D01*
X44001613Y-35666351D01*
X43809852Y-35523677D01*
X43805101Y-35521261D01*
X43805097Y-35521259D01*
X43601549Y-35417770D01*
X43601548Y-35417770D01*
X43596793Y-35415352D01*
X43368528Y-35344474D01*
X43308540Y-35336523D01*
X43136868Y-35313769D01*
X43136865Y-35313769D01*
X43131585Y-35313069D01*
X43126256Y-35313269D01*
X43126255Y-35313269D01*
X43040862Y-35316475D01*
X42892738Y-35322036D01*
X42854234Y-35330115D01*
X42664043Y-35370021D01*
X42664040Y-35370022D01*
X42658816Y-35371118D01*
X42436508Y-35458911D01*
X42431944Y-35461680D01*
X42431945Y-35461680D01*
X42236732Y-35580138D01*
X42236729Y-35580140D01*
X42232171Y-35582906D01*
X42051647Y-35739557D01*
X42048264Y-35743683D01*
X42048259Y-35743688D01*
X41903484Y-35920255D01*
X41900098Y-35924385D01*
X41897457Y-35929024D01*
X41896058Y-35931060D01*
X41840989Y-35975870D01*
X41770436Y-35983794D01*
X41706799Y-35952316D01*
X41687699Y-35930058D01*
X41668505Y-35901549D01*
X41626594Y-35839296D01*
X41617245Y-35829495D01*
X41528442Y-35736406D01*
X41461613Y-35666351D01*
X41269852Y-35523677D01*
X41265101Y-35521261D01*
X41265097Y-35521259D01*
X41061549Y-35417770D01*
X41061548Y-35417770D01*
X41056793Y-35415352D01*
X40828528Y-35344474D01*
X40768540Y-35336523D01*
X40596868Y-35313769D01*
X40596865Y-35313769D01*
X40591585Y-35313069D01*
X40586256Y-35313269D01*
X40586255Y-35313269D01*
X40500862Y-35316475D01*
X40352738Y-35322036D01*
X40314234Y-35330115D01*
X40124043Y-35370021D01*
X40124040Y-35370022D01*
X40118816Y-35371118D01*
X39896508Y-35458911D01*
X39891944Y-35461680D01*
X39891945Y-35461680D01*
X39696732Y-35580138D01*
X39696729Y-35580140D01*
X39692171Y-35582906D01*
X39511647Y-35739557D01*
X39508264Y-35743683D01*
X39508259Y-35743688D01*
X39363484Y-35920255D01*
X39360098Y-35924385D01*
X39357458Y-35929023D01*
X39355757Y-35931498D01*
X39300690Y-35976310D01*
X39230137Y-35984236D01*
X39166499Y-35952761D01*
X39147396Y-35930500D01*
X39089185Y-35844035D01*
X39082524Y-35835750D01*
X38924961Y-35670583D01*
X38917004Y-35663543D01*
X38733871Y-35527288D01*
X38724834Y-35521684D01*
X38521361Y-35418233D01*
X38511510Y-35414233D01*
X38293514Y-35346544D01*
X38283133Y-35344261D01*
X38256959Y-35340792D01*
X38242792Y-35342989D01*
X38239000Y-35356173D01*
X37730519Y-35356173D01*
X37727027Y-35344279D01*
X37716420Y-35342754D01*
X37584177Y-35370502D01*
X37573998Y-35373557D01*
X37361699Y-35457397D01*
X37352167Y-35462128D01*
X37155572Y-35581426D01*
X37086958Y-35599665D01*
X37019376Y-35577914D01*
X37001111Y-35562802D01*
X35228404Y-33790095D01*
X35194378Y-33727783D01*
X35199443Y-33656968D01*
X35241990Y-33600132D01*
X35308510Y-33575321D01*
X35317499Y-33575000D01*
X44666008Y-33575000D01*
X44734129Y-33595002D01*
G37*
%TD.AperFunction*%
M02*
