M48
; DRILL file {KiCad (5.99.0-9376-g8dcf5404fc)} date 02/24/21 21:32:49
; FORMAT={-:-/ absolute / inch / decimal}
; #@! TF.CreationDate,2021-02-24T21:32:49+01:00
; #@! TF.GenerationSoftware,Kicad,Pcbnew,(5.99.0-9376-g8dcf5404fc)
; #@! TF.FileFunction,Plated,1,2,PTH
FMAT,2
INCH
T1C0.0157
T2C0.0335
T3C0.0394
T4C0.0590
%
G90
G05
T1
X0.3187Y-2.7984
X1.0406Y-2.025
X1.1545Y-1.6171
X1.1545Y-2.1289
X1.1625Y-2.8031
X1.2656Y-1.7109
X1.2891Y-1.6641
X1.3907Y-1.6171
X1.4104Y-2.0699
X1.4672Y-2.025
X1.9125Y-2.8688
X2.3902Y-2.2706
X2.4141Y-2.25
X2.4375Y-2.2266
X2.4609Y-2.2031
X2.481Y-2.1788
X2.7188Y-2.8828
X3.4922Y-2.8971
X3.6152Y-3.4281
X3.6348Y-3.2904
X3.6797Y-3.375
X3.8203Y-3.5156
X3.8711Y-3.5856
X3.9469Y-0.525
X3.9609Y-2.9063
X3.9695Y-3.2904
X3.9844Y-3.375
X4.1023Y-3.4922
X4.1467Y-3.2313
X4.1484Y-3.3035
X4.1663Y-3.0935
X4.1946Y-2.9063
X4.2094Y-1.275
X4.2261Y-2.9063
X4.2576Y-2.9063
X4.2656Y-3.4922
X4.2891Y-2.9063
X4.3041Y-3.2707
X4.3359Y-3.3281
X4.3828Y-3.375
X4.3829Y-3.1132
X4.3874Y-2.025
X4.4222Y-3.2904
X4.4301Y-3.3511
X4.4531Y-3.0469
X4.4531Y-3.375
X4.4625Y-2.775
X4.5797Y-3.0918
X4.6172Y-3.375
X4.6323Y-2.8462
X4.6663Y-2.8578
X4.7012Y-2.8577
X4.7109Y-3.0703
X4.7344Y-2.8594
X4.7344Y-3.4242
X4.7963Y-3.31
X4.8159Y-3.0148
X4.8159Y-3.4478
X4.8281Y-2.25
X4.8516Y-2.2734
X4.875Y-2.2969
X4.8984Y-2.3203
X4.9144Y-3.5266
X5.1836Y-2.2539
X5.2884Y-3.625
X5.3906Y-2.9543
X5.4609Y-2.9543
X5.9219Y-2.2656
X6.2136Y-3.6053
X6.5653Y-2.9531
X6.5876Y-2.9754
X6.6099Y-3.0
X6.6337Y-3.0246
X6.6484Y-2.2891
X7.0352Y-0.8049
X7.0575Y-0.8271
X7.0797Y-0.8494
X7.1051Y-0.8686
X7.3867Y-2.3008
X7.9125Y-2.9391
X8.6625Y-2.9156
X9.6328Y-2.9063
X10.0621Y-1.7578
X10.793Y-2.8711
X11.475Y-2.8688
X12.475Y-2.8422
X12.6506Y-0.81
X12.6752Y-0.8494
X12.6998Y-0.8746
X12.7293Y-0.8888
X12.8081Y-0.9281
X12.8081Y-1.3219
T2
X5.0828Y-3.1344
X5.0828Y-3.2344
X5.0828Y-3.3344
X5.1828Y-3.1344
X5.1828Y-3.2344
X5.1828Y-3.3344
T3
X0.6797Y-0.225
X0.6797Y-0.525
X0.8672Y-0.975
X0.8672Y-1.275
X0.9609Y-1.725
X0.9609Y-2.025
X1.0955Y-1.4695
X1.1955Y-1.4695
X1.2955Y-1.4695
X1.3955Y-1.4695
X1.4297Y-0.225
X1.4297Y-0.525
X1.4955Y-1.4695
X1.5955Y-1.4695
X1.6172Y-2.475
X1.6172Y-2.775
X1.6955Y-1.4695
X1.7578Y-2.475
X1.7578Y-2.775
X1.7955Y-1.4695
X1.8047Y-0.975
X1.8047Y-1.275
X1.8047Y-3.225
X1.8047Y-3.525
X1.8955Y-1.4695
X1.9453Y-3.225
X1.9453Y-3.525
X1.9922Y-1.725
X1.9922Y-2.025
X2.1797Y-0.225
X2.1797Y-0.525
X2.3672Y-2.475
X2.3672Y-2.775
X2.5547Y-0.975
X2.5547Y-1.275
X2.7422Y-1.725
X2.7422Y-2.025
X2.7422Y-3.225
X2.7422Y-3.525
X2.9297Y-0.225
X2.9297Y-0.525
X3.1172Y-2.475
X3.1172Y-2.775
X3.3047Y-0.975
X3.3047Y-1.275
X3.4922Y-1.725
X3.4922Y-2.025
X3.6797Y-0.225
X3.6797Y-0.525
X3.8672Y-2.475
X3.8672Y-2.775
X4.0547Y-0.975
X4.0547Y-1.275
X4.2422Y-1.725
X4.2422Y-2.025
X4.4297Y-0.225
X4.4297Y-0.525
X4.6172Y-2.475
X4.6172Y-2.775
X4.8047Y-0.975
X4.8047Y-1.275
X4.9922Y-1.725
X4.9922Y-2.025
X5.1797Y-0.225
X5.1797Y-0.525
X5.3672Y-2.475
X5.3672Y-2.775
X5.5547Y-0.975
X5.5547Y-1.275
X5.7422Y-1.725
X5.7422Y-2.025
X5.9297Y-0.225
X5.9297Y-0.525
X5.9297Y-3.225
X5.9297Y-3.525
X6.1172Y-2.475
X6.1172Y-2.775
X6.3047Y-0.975
X6.3047Y-1.275
X6.4922Y-1.725
X6.4922Y-2.025
X6.6797Y-0.225
X6.6797Y-0.525
X6.8672Y-2.475
X6.8672Y-2.775
X7.0547Y-0.975
X7.0547Y-1.275
X7.2422Y-1.725
X7.2422Y-2.025
X7.4297Y-0.225
X7.4297Y-0.525
X7.6172Y-2.475
X7.6172Y-2.775
X7.8047Y-0.975
X7.8047Y-1.275
X7.9922Y-1.725
X7.9922Y-2.025
X8.1797Y-0.225
X8.1797Y-0.525
X8.3672Y-2.475
X8.3672Y-2.775
X8.3672Y-3.225
X8.3672Y-3.525
X8.5547Y-0.975
X8.5547Y-1.275
X8.7422Y-1.725
X8.7422Y-2.025
X8.9297Y-0.225
X8.9297Y-0.525
X9.1172Y-2.475
X9.1172Y-2.775
X9.3047Y-0.975
X9.3047Y-1.275
X9.4922Y-1.725
X9.4922Y-2.025
X9.4922Y-3.225
X9.4922Y-3.525
X9.5391Y-2.475
X9.5391Y-2.775
X9.6328Y-1.725
X9.6328Y-2.025
X9.6797Y-0.225
X9.6797Y-0.525
X9.8203Y-0.225
X9.8203Y-0.525
X10.0547Y-0.975
X10.0547Y-1.275
X10.4297Y-3.225
X10.4297Y-3.525
X10.7109Y-1.725
X10.7109Y-2.025
X11.1797Y-2.475
X11.1797Y-2.775
X11.1797Y-3.225
X11.1797Y-3.525
X11.1797Y-0.225
X11.1797Y-0.525
X11.9297Y-0.225
X11.9297Y-0.525
X11.9297Y-0.975
X11.9297Y-1.275
X11.9297Y-1.725
X11.9297Y-2.025
X11.9297Y-2.475
X11.9297Y-2.775
X11.9297Y-3.225
X11.9297Y-3.525
X12.0703Y-0.225
X12.0703Y-0.525
X12.0703Y-0.975
X12.0703Y-1.275
X12.0703Y-1.725
X12.0703Y-2.025
X12.0703Y-2.475
X12.0703Y-2.775
X12.0703Y-3.225
X12.0703Y-3.525
T4
X0.225Y-0.275
X0.3187Y-1.775
X0.3187Y-2.525
X0.4125Y-1.025
X0.4125Y-3.275
X0.475Y-0.175
X0.5062Y-1.775
X0.5687Y-1.675
X0.5687Y-2.425
X0.6625Y-0.925
X0.6625Y-3.175
X0.6937Y-2.525
X0.7562Y-1.675
X0.9437Y-2.425
X0.975Y-0.275
X1.1625Y-2.525
X1.225Y-0.175
X1.35Y-1.025
X1.35Y-3.275
X1.4125Y-2.425
X1.5375Y-1.775
X1.6Y-0.925
X1.6Y-3.175
X1.725Y-0.275
X1.7875Y-1.675
X1.9125Y-2.525
X1.975Y-0.175
X2.1Y-1.025
X2.1625Y-2.425
X2.2875Y-1.775
X2.2875Y-3.275
X2.35Y-0.925
X2.475Y-0.275
X2.5375Y-1.675
X2.5375Y-3.175
X2.6625Y-2.525
X2.725Y-0.175
X2.85Y-1.025
X2.9125Y-2.425
X3.0375Y-1.775
X3.1Y-0.925
X3.225Y-0.275
X3.2875Y-1.675
X3.4125Y-2.525
X3.475Y-0.175
X3.6Y-1.025
X3.6625Y-2.425
X3.7875Y-1.775
X3.85Y-0.925
X3.975Y-0.275
X4.0375Y-1.675
X4.1625Y-2.525
X4.225Y-0.175
X4.35Y-1.025
X4.4125Y-2.425
X4.5375Y-1.775
X4.6Y-0.925
X4.725Y-0.275
X4.7875Y-1.675
X4.9125Y-2.525
X4.975Y-0.175
X5.1Y-1.025
X5.1625Y-2.425
X5.2875Y-1.775
X5.35Y-0.925
X5.475Y-0.275
X5.475Y-3.275
X5.5375Y-1.675
X5.6625Y-2.525
X5.725Y-0.175
X5.725Y-3.175
X5.85Y-1.025
X5.9125Y-2.425
X6.0375Y-1.775
X6.1Y-0.925
X6.225Y-0.275
X6.2875Y-1.675
X6.4125Y-2.525
X6.475Y-0.175
X6.6Y-1.025
X6.6625Y-2.425
X6.7875Y-1.775
X6.85Y-0.925
X6.975Y-0.275
X7.0375Y-1.675
X7.1625Y-2.525
X7.225Y-0.175
X7.35Y-1.025
X7.4125Y-2.425
X7.5375Y-1.775
X7.6Y-0.925
X7.725Y-0.275
X7.7875Y-1.675
X7.9125Y-2.525
X7.9125Y-3.275
X7.975Y-0.175
X8.1Y-1.025
X8.1625Y-2.425
X8.1625Y-3.175
X8.2875Y-1.775
X8.35Y-0.925
X8.475Y-0.275
X8.5375Y-1.675
X8.6625Y-2.525
X8.725Y-0.175
X8.85Y-1.025
X8.85Y-3.275
X8.9125Y-2.425
X9.0375Y-1.775
X9.0375Y-3.275
X9.1Y-0.925
X9.1Y-3.175
X9.225Y-0.275
X9.2875Y-1.675
X9.2875Y-3.175
X9.475Y-0.175
X9.6Y-1.025
X9.6937Y-2.525
X9.7875Y-1.775
X9.7875Y-3.275
X9.85Y-0.925
X9.9437Y-2.425
X9.975Y-0.275
X9.975Y-3.275
X10.0375Y-1.675
X10.0375Y-3.175
X10.0688Y-2.525
X10.225Y-0.175
X10.225Y-3.175
X10.2562Y-1.775
X10.3188Y-2.425
X10.35Y-0.275
X10.5062Y-1.675
X10.5375Y-1.025
X10.6Y-0.175
X10.6312Y-1.4
X10.725Y-2.525
X10.725Y-3.275
X10.725Y-0.275
X10.7875Y-0.925
X10.8812Y-1.3
X10.975Y-2.425
X10.975Y-3.175
X10.975Y-0.175
X11.475Y-0.275
X11.475Y-1.025
X11.475Y-1.775
X11.475Y-2.525
X11.475Y-3.275
X11.725Y-0.175
X11.725Y-0.925
X11.725Y-1.675
X11.725Y-2.425
X11.725Y-3.175
X12.225Y-0.275
X12.225Y-1.025
X12.225Y-1.775
X12.225Y-2.525
X12.225Y-3.275
X12.475Y-0.175
X12.475Y-0.925
X12.475Y-1.675
X12.475Y-2.425
X12.475Y-3.175
T0
M30
