%TF.GenerationSoftware,KiCad,Pcbnew,(5.99.0-9376-g8dcf5404fc)*%
%TF.CreationDate,2021-02-24T21:32:48+01:00*%
%TF.ProjectId,gud70,67756437-302e-46b6-9963-61645f706362,rev?*%
%TF.SameCoordinates,Original*%
%TF.FileFunction,AssemblyDrawing,Bot*%
%FSLAX46Y46*%
G04 Gerber Fmt 4.6, Leading zero omitted, Abs format (unit mm)*
G04 Created by KiCad (PCBNEW (5.99.0-9376-g8dcf5404fc)) date 2021-02-24 21:32:48*
%MOMM*%
%LPD*%
G01*
G04 APERTURE LIST*
%ADD10C,0.075000*%
%ADD11C,0.130000*%
%ADD12C,0.150000*%
%ADD13C,0.030000*%
%ADD14C,0.080000*%
%ADD15C,0.125000*%
%ADD16C,0.100000*%
G04 APERTURE END LIST*
D10*
X160698712Y-77616872D02*
X160865379Y-77378777D01*
X160984427Y-77616872D02*
X160984427Y-77116872D01*
X160793950Y-77116872D01*
X160746331Y-77140682D01*
X160722522Y-77164491D01*
X160698712Y-77212110D01*
X160698712Y-77283539D01*
X160722522Y-77331158D01*
X160746331Y-77354967D01*
X160793950Y-77378777D01*
X160984427Y-77378777D01*
X160222522Y-77616872D02*
X160508236Y-77616872D01*
X160365379Y-77616872D02*
X160365379Y-77116872D01*
X160412998Y-77188301D01*
X160460617Y-77235920D01*
X160508236Y-77259729D01*
X159912998Y-77116872D02*
X159865379Y-77116872D01*
X159817760Y-77140682D01*
X159793950Y-77164491D01*
X159770141Y-77212110D01*
X159746331Y-77307348D01*
X159746331Y-77426396D01*
X159770141Y-77521634D01*
X159793950Y-77569253D01*
X159817760Y-77593062D01*
X159865379Y-77616872D01*
X159912998Y-77616872D01*
X159960617Y-77593062D01*
X159984427Y-77569253D01*
X160008236Y-77521634D01*
X160032046Y-77426396D01*
X160032046Y-77307348D01*
X160008236Y-77212110D01*
X159984427Y-77164491D01*
X159960617Y-77140682D01*
X159912998Y-77116872D01*
X159555855Y-77164491D02*
X159532046Y-77140682D01*
X159484427Y-77116872D01*
X159365379Y-77116872D01*
X159317760Y-77140682D01*
X159293950Y-77164491D01*
X159270141Y-77212110D01*
X159270141Y-77259729D01*
X159293950Y-77331158D01*
X159579665Y-77616872D01*
X159270141Y-77616872D01*
D11*
X44919895Y-65946476D02*
X44319895Y-65946476D01*
X44319895Y-66089333D01*
X44348467Y-66175048D01*
X44405609Y-66232190D01*
X44462752Y-66260762D01*
X44577038Y-66289333D01*
X44662752Y-66289333D01*
X44777038Y-66260762D01*
X44834181Y-66232190D01*
X44891324Y-66175048D01*
X44919895Y-66089333D01*
X44919895Y-65946476D01*
X44319895Y-66832190D02*
X44319895Y-66546476D01*
X44605609Y-66517905D01*
X44577038Y-66546476D01*
X44548467Y-66603619D01*
X44548467Y-66746476D01*
X44577038Y-66803619D01*
X44605609Y-66832190D01*
X44662752Y-66860762D01*
X44805609Y-66860762D01*
X44862752Y-66832190D01*
X44891324Y-66803619D01*
X44919895Y-66746476D01*
X44919895Y-66603619D01*
X44891324Y-66546476D01*
X44862752Y-66517905D01*
X44319895Y-67232190D02*
X44319895Y-67289333D01*
X44348467Y-67346476D01*
X44377038Y-67375048D01*
X44434181Y-67403619D01*
X44548467Y-67432190D01*
X44691324Y-67432190D01*
X44805609Y-67403619D01*
X44862752Y-67375048D01*
X44891324Y-67346476D01*
X44919895Y-67289333D01*
X44919895Y-67232190D01*
X44891324Y-67175048D01*
X44862752Y-67146476D01*
X44805609Y-67117905D01*
X44691324Y-67089333D01*
X44548467Y-67089333D01*
X44434181Y-67117905D01*
X44377038Y-67146476D01*
X44348467Y-67175048D01*
X44319895Y-67232190D01*
X179460633Y-27846444D02*
X178860633Y-27846444D01*
X178860633Y-27989301D01*
X178889205Y-28075016D01*
X178946347Y-28132158D01*
X179003490Y-28160730D01*
X179117776Y-28189301D01*
X179203490Y-28189301D01*
X179317776Y-28160730D01*
X179374919Y-28132158D01*
X179432062Y-28075016D01*
X179460633Y-27989301D01*
X179460633Y-27846444D01*
X178917776Y-28417873D02*
X178889205Y-28446444D01*
X178860633Y-28503587D01*
X178860633Y-28646444D01*
X178889205Y-28703587D01*
X178917776Y-28732158D01*
X178974919Y-28760730D01*
X179032062Y-28760730D01*
X179117776Y-28732158D01*
X179460633Y-28389301D01*
X179460633Y-28760730D01*
X178860633Y-29303587D02*
X178860633Y-29017873D01*
X179146347Y-28989301D01*
X179117776Y-29017873D01*
X179089205Y-29075016D01*
X179089205Y-29217873D01*
X179117776Y-29275016D01*
X179146347Y-29303587D01*
X179203490Y-29332158D01*
X179346347Y-29332158D01*
X179403490Y-29303587D01*
X179432062Y-29275016D01*
X179460633Y-29217873D01*
X179460633Y-29075016D01*
X179432062Y-29017873D01*
X179403490Y-28989301D01*
X208035657Y-8796428D02*
X207435657Y-8796428D01*
X207435657Y-8939285D01*
X207464229Y-9025000D01*
X207521371Y-9082142D01*
X207578514Y-9110714D01*
X207692800Y-9139285D01*
X207778514Y-9139285D01*
X207892800Y-9110714D01*
X207949943Y-9082142D01*
X208007086Y-9025000D01*
X208035657Y-8939285D01*
X208035657Y-8796428D01*
X208035657Y-9710714D02*
X208035657Y-9367857D01*
X208035657Y-9539285D02*
X207435657Y-9539285D01*
X207521371Y-9482142D01*
X207578514Y-9425000D01*
X207607086Y-9367857D01*
X208035657Y-10282142D02*
X208035657Y-9939285D01*
X208035657Y-10110714D02*
X207435657Y-10110714D01*
X207521371Y-10053571D01*
X207578514Y-9996428D01*
X207607086Y-9939285D01*
X49682399Y-84996492D02*
X49082399Y-84996492D01*
X49082399Y-85139349D01*
X49110971Y-85225064D01*
X49168113Y-85282206D01*
X49225256Y-85310778D01*
X49339542Y-85339349D01*
X49425256Y-85339349D01*
X49539542Y-85310778D01*
X49596685Y-85282206D01*
X49653828Y-85225064D01*
X49682399Y-85139349D01*
X49682399Y-84996492D01*
X49082399Y-85853635D02*
X49082399Y-85739349D01*
X49110971Y-85682206D01*
X49139542Y-85653635D01*
X49225256Y-85596492D01*
X49339542Y-85567921D01*
X49568113Y-85567921D01*
X49625256Y-85596492D01*
X49653828Y-85625064D01*
X49682399Y-85682206D01*
X49682399Y-85796492D01*
X49653828Y-85853635D01*
X49625256Y-85882206D01*
X49568113Y-85910778D01*
X49425256Y-85910778D01*
X49368113Y-85882206D01*
X49339542Y-85853635D01*
X49310971Y-85796492D01*
X49310971Y-85682206D01*
X49339542Y-85625064D01*
X49368113Y-85596492D01*
X49425256Y-85567921D01*
X49082399Y-86453635D02*
X49082399Y-86167921D01*
X49368113Y-86139349D01*
X49339542Y-86167921D01*
X49310971Y-86225064D01*
X49310971Y-86367921D01*
X49339542Y-86425064D01*
X49368113Y-86453635D01*
X49425256Y-86482206D01*
X49568113Y-86482206D01*
X49625256Y-86453635D01*
X49653828Y-86425064D01*
X49682399Y-86367921D01*
X49682399Y-86225064D01*
X49653828Y-86167921D01*
X49625256Y-86139349D01*
D12*
X61364932Y-37171385D02*
X62079218Y-37171385D01*
X62222075Y-37123766D01*
X62317313Y-37028528D01*
X62364932Y-36885671D01*
X62364932Y-36790433D01*
X61364932Y-37552338D02*
X61364932Y-38171385D01*
X61745885Y-37838052D01*
X61745885Y-37980909D01*
X61793504Y-38076147D01*
X61841123Y-38123766D01*
X61936361Y-38171385D01*
X62174456Y-38171385D01*
X62269694Y-38123766D01*
X62317313Y-38076147D01*
X62364932Y-37980909D01*
X62364932Y-37695195D01*
X62317313Y-37599957D01*
X62269694Y-37552338D01*
D11*
X103260569Y-27846444D02*
X102660569Y-27846444D01*
X102660569Y-27989301D01*
X102689141Y-28075016D01*
X102746283Y-28132158D01*
X102803426Y-28160730D01*
X102917712Y-28189301D01*
X103003426Y-28189301D01*
X103117712Y-28160730D01*
X103174855Y-28132158D01*
X103231998Y-28075016D01*
X103260569Y-27989301D01*
X103260569Y-27846444D01*
X102717712Y-28417873D02*
X102689141Y-28446444D01*
X102660569Y-28503587D01*
X102660569Y-28646444D01*
X102689141Y-28703587D01*
X102717712Y-28732158D01*
X102774855Y-28760730D01*
X102831998Y-28760730D01*
X102917712Y-28732158D01*
X103260569Y-28389301D01*
X103260569Y-28760730D01*
X103260569Y-29332158D02*
X103260569Y-28989301D01*
X103260569Y-29160730D02*
X102660569Y-29160730D01*
X102746283Y-29103587D01*
X102803426Y-29046444D01*
X102831998Y-28989301D01*
X265185713Y-84996500D02*
X264585713Y-84996500D01*
X264585713Y-85139357D01*
X264614285Y-85225072D01*
X264671427Y-85282214D01*
X264728570Y-85310786D01*
X264842856Y-85339357D01*
X264928570Y-85339357D01*
X265042856Y-85310786D01*
X265099999Y-85282214D01*
X265157142Y-85225072D01*
X265185713Y-85139357D01*
X265185713Y-84996500D01*
X264585713Y-85539357D02*
X264585713Y-85939357D01*
X265185713Y-85682214D01*
X264585713Y-86110786D02*
X264585713Y-86510786D01*
X265185713Y-86253643D01*
X306857615Y-84996492D02*
X306257615Y-84996492D01*
X306257615Y-85139349D01*
X306286187Y-85225064D01*
X306343329Y-85282206D01*
X306400472Y-85310778D01*
X306514758Y-85339349D01*
X306600472Y-85339349D01*
X306714758Y-85310778D01*
X306771901Y-85282206D01*
X306829044Y-85225064D01*
X306857615Y-85139349D01*
X306857615Y-84996492D01*
X306514758Y-85682206D02*
X306486187Y-85625064D01*
X306457615Y-85596492D01*
X306400472Y-85567921D01*
X306371901Y-85567921D01*
X306314758Y-85596492D01*
X306286187Y-85625064D01*
X306257615Y-85682206D01*
X306257615Y-85796492D01*
X306286187Y-85853635D01*
X306314758Y-85882206D01*
X306371901Y-85910778D01*
X306400472Y-85910778D01*
X306457615Y-85882206D01*
X306486187Y-85853635D01*
X306514758Y-85796492D01*
X306514758Y-85682206D01*
X306543329Y-85625064D01*
X306571901Y-85596492D01*
X306629044Y-85567921D01*
X306743329Y-85567921D01*
X306800472Y-85596492D01*
X306829044Y-85625064D01*
X306857615Y-85682206D01*
X306857615Y-85796492D01*
X306829044Y-85853635D01*
X306800472Y-85882206D01*
X306743329Y-85910778D01*
X306629044Y-85910778D01*
X306571901Y-85882206D01*
X306543329Y-85853635D01*
X306514758Y-85796492D01*
X306257615Y-86282206D02*
X306257615Y-86339349D01*
X306286187Y-86396492D01*
X306314758Y-86425064D01*
X306371901Y-86453635D01*
X306486187Y-86482206D01*
X306629044Y-86482206D01*
X306743329Y-86453635D01*
X306800472Y-86425064D01*
X306829044Y-86396492D01*
X306857615Y-86339349D01*
X306857615Y-86282206D01*
X306829044Y-86225064D01*
X306800472Y-86196492D01*
X306743329Y-86167921D01*
X306629044Y-86139349D01*
X306486187Y-86139349D01*
X306371901Y-86167921D01*
X306314758Y-86196492D01*
X306286187Y-86225064D01*
X306257615Y-86282206D01*
X79448049Y-65946476D02*
X78848049Y-65946476D01*
X78848049Y-66089333D01*
X78876621Y-66175048D01*
X78933763Y-66232190D01*
X78990906Y-66260762D01*
X79105192Y-66289333D01*
X79190906Y-66289333D01*
X79305192Y-66260762D01*
X79362335Y-66232190D01*
X79419478Y-66175048D01*
X79448049Y-66089333D01*
X79448049Y-65946476D01*
X78848049Y-66832190D02*
X78848049Y-66546476D01*
X79133763Y-66517905D01*
X79105192Y-66546476D01*
X79076621Y-66603619D01*
X79076621Y-66746476D01*
X79105192Y-66803619D01*
X79133763Y-66832190D01*
X79190906Y-66860762D01*
X79333763Y-66860762D01*
X79390906Y-66832190D01*
X79419478Y-66803619D01*
X79448049Y-66746476D01*
X79448049Y-66603619D01*
X79419478Y-66546476D01*
X79390906Y-66517905D01*
X78905192Y-67089333D02*
X78876621Y-67117905D01*
X78848049Y-67175048D01*
X78848049Y-67317905D01*
X78876621Y-67375048D01*
X78905192Y-67403619D01*
X78962335Y-67432190D01*
X79019478Y-67432190D01*
X79105192Y-67403619D01*
X79448049Y-67060762D01*
X79448049Y-67432190D01*
D12*
X108394651Y-80795968D02*
X109204175Y-80795968D01*
X109299413Y-80843587D01*
X109347032Y-80891206D01*
X109394651Y-80986444D01*
X109394651Y-81176920D01*
X109347032Y-81272158D01*
X109299413Y-81319777D01*
X109204175Y-81367396D01*
X108394651Y-81367396D01*
X109394651Y-82367396D02*
X109394651Y-81795968D01*
X109394651Y-82081682D02*
X108394651Y-82081682D01*
X108537509Y-81986444D01*
X108632747Y-81891206D01*
X108680366Y-81795968D01*
X101658936Y-76986444D02*
X101658936Y-77462634D01*
X101944650Y-76891206D02*
X100944650Y-77224539D01*
X101944650Y-77557873D01*
X100944650Y-77748349D02*
X100944650Y-78319777D01*
X101944650Y-78034063D02*
X100944650Y-78034063D01*
X101944650Y-78653111D02*
X101277984Y-78653111D01*
X101373222Y-78653111D02*
X101325603Y-78700730D01*
X101277984Y-78795968D01*
X101277984Y-78938825D01*
X101325603Y-79034063D01*
X101420841Y-79081682D01*
X101944650Y-79081682D01*
X101420841Y-79081682D02*
X101325603Y-79129301D01*
X101277984Y-79224539D01*
X101277984Y-79367396D01*
X101325603Y-79462634D01*
X101420841Y-79510253D01*
X101944650Y-79510253D01*
X101897031Y-80367396D02*
X101944650Y-80272158D01*
X101944650Y-80081682D01*
X101897031Y-79986444D01*
X101801793Y-79938825D01*
X101420841Y-79938825D01*
X101325603Y-79986444D01*
X101277984Y-80081682D01*
X101277984Y-80272158D01*
X101325603Y-80367396D01*
X101420841Y-80415015D01*
X101516079Y-80415015D01*
X101611317Y-79938825D01*
X101277984Y-81272158D02*
X102087508Y-81272158D01*
X102182746Y-81224539D01*
X102230365Y-81176920D01*
X102277984Y-81081682D01*
X102277984Y-80938825D01*
X102230365Y-80843587D01*
X101897031Y-81272158D02*
X101944650Y-81176920D01*
X101944650Y-80986444D01*
X101897031Y-80891206D01*
X101849412Y-80843587D01*
X101754174Y-80795968D01*
X101468460Y-80795968D01*
X101373222Y-80843587D01*
X101325603Y-80891206D01*
X101277984Y-80986444D01*
X101277984Y-81176920D01*
X101325603Y-81272158D01*
X101944650Y-82176920D02*
X101420841Y-82176920D01*
X101325603Y-82129301D01*
X101277984Y-82034063D01*
X101277984Y-81843587D01*
X101325603Y-81748349D01*
X101897031Y-82176920D02*
X101944650Y-82081682D01*
X101944650Y-81843587D01*
X101897031Y-81748349D01*
X101801793Y-81700730D01*
X101706555Y-81700730D01*
X101611317Y-81748349D01*
X101563698Y-81843587D01*
X101563698Y-82081682D01*
X101516079Y-82176920D01*
X100944650Y-82557873D02*
X100944650Y-83176920D01*
X101325603Y-82843587D01*
X101325603Y-82986444D01*
X101373222Y-83081682D01*
X101420841Y-83129301D01*
X101516079Y-83176920D01*
X101754174Y-83176920D01*
X101849412Y-83129301D01*
X101897031Y-83081682D01*
X101944650Y-82986444D01*
X101944650Y-82700730D01*
X101897031Y-82605492D01*
X101849412Y-82557873D01*
X101039889Y-83557873D02*
X100992270Y-83605492D01*
X100944650Y-83700730D01*
X100944650Y-83938825D01*
X100992270Y-84034063D01*
X101039889Y-84081682D01*
X101135127Y-84129301D01*
X101230365Y-84129301D01*
X101373222Y-84081682D01*
X101944650Y-83510253D01*
X101944650Y-84129301D01*
X100944650Y-84557873D02*
X101754174Y-84557873D01*
X101849412Y-84605492D01*
X101897031Y-84653111D01*
X101944650Y-84748349D01*
X101944650Y-84938825D01*
X101897031Y-85034063D01*
X101849412Y-85081682D01*
X101754174Y-85129301D01*
X100944650Y-85129301D01*
X101277984Y-86034063D02*
X101944650Y-86034063D01*
X100897031Y-85795968D02*
X101611317Y-85557873D01*
X101611317Y-86176920D01*
D11*
X284235721Y-65946476D02*
X283635721Y-65946476D01*
X283635721Y-66089333D01*
X283664293Y-66175048D01*
X283721435Y-66232190D01*
X283778578Y-66260762D01*
X283892864Y-66289333D01*
X283978578Y-66289333D01*
X284092864Y-66260762D01*
X284150007Y-66232190D01*
X284207150Y-66175048D01*
X284235721Y-66089333D01*
X284235721Y-65946476D01*
X283635721Y-66803619D02*
X283635721Y-66689333D01*
X283664293Y-66632190D01*
X283692864Y-66603619D01*
X283778578Y-66546476D01*
X283892864Y-66517905D01*
X284121435Y-66517905D01*
X284178578Y-66546476D01*
X284207150Y-66575048D01*
X284235721Y-66632190D01*
X284235721Y-66746476D01*
X284207150Y-66803619D01*
X284178578Y-66832190D01*
X284121435Y-66860762D01*
X283978578Y-66860762D01*
X283921435Y-66832190D01*
X283892864Y-66803619D01*
X283864293Y-66746476D01*
X283864293Y-66632190D01*
X283892864Y-66575048D01*
X283921435Y-66546476D01*
X283978578Y-66517905D01*
X283692864Y-67089333D02*
X283664293Y-67117905D01*
X283635721Y-67175048D01*
X283635721Y-67317905D01*
X283664293Y-67375048D01*
X283692864Y-67403619D01*
X283750007Y-67432190D01*
X283807150Y-67432190D01*
X283892864Y-67403619D01*
X284235721Y-67060762D01*
X284235721Y-67432190D01*
X136598097Y-65946476D02*
X135998097Y-65946476D01*
X135998097Y-66089333D01*
X136026669Y-66175048D01*
X136083811Y-66232190D01*
X136140954Y-66260762D01*
X136255240Y-66289333D01*
X136340954Y-66289333D01*
X136455240Y-66260762D01*
X136512383Y-66232190D01*
X136569526Y-66175048D01*
X136598097Y-66089333D01*
X136598097Y-65946476D01*
X135998097Y-66832190D02*
X135998097Y-66546476D01*
X136283811Y-66517905D01*
X136255240Y-66546476D01*
X136226669Y-66603619D01*
X136226669Y-66746476D01*
X136255240Y-66803619D01*
X136283811Y-66832190D01*
X136340954Y-66860762D01*
X136483811Y-66860762D01*
X136540954Y-66832190D01*
X136569526Y-66803619D01*
X136598097Y-66746476D01*
X136598097Y-66603619D01*
X136569526Y-66546476D01*
X136540954Y-66517905D01*
X135998097Y-67403619D02*
X135998097Y-67117905D01*
X136283811Y-67089333D01*
X136255240Y-67117905D01*
X136226669Y-67175048D01*
X136226669Y-67317905D01*
X136255240Y-67375048D01*
X136283811Y-67403619D01*
X136340954Y-67432190D01*
X136483811Y-67432190D01*
X136540954Y-67403619D01*
X136569526Y-67375048D01*
X136598097Y-67317905D01*
X136598097Y-67175048D01*
X136569526Y-67117905D01*
X136540954Y-67089333D01*
X88973057Y-46896460D02*
X88373057Y-46896460D01*
X88373057Y-47039317D01*
X88401629Y-47125032D01*
X88458771Y-47182174D01*
X88515914Y-47210746D01*
X88630200Y-47239317D01*
X88715914Y-47239317D01*
X88830200Y-47210746D01*
X88887343Y-47182174D01*
X88944486Y-47125032D01*
X88973057Y-47039317D01*
X88973057Y-46896460D01*
X88373057Y-47439317D02*
X88373057Y-47810746D01*
X88601629Y-47610746D01*
X88601629Y-47696460D01*
X88630200Y-47753603D01*
X88658771Y-47782174D01*
X88715914Y-47810746D01*
X88858771Y-47810746D01*
X88915914Y-47782174D01*
X88944486Y-47753603D01*
X88973057Y-47696460D01*
X88973057Y-47525032D01*
X88944486Y-47467889D01*
X88915914Y-47439317D01*
X88373057Y-48325032D02*
X88373057Y-48210746D01*
X88401629Y-48153603D01*
X88430200Y-48125032D01*
X88515914Y-48067889D01*
X88630200Y-48039317D01*
X88858771Y-48039317D01*
X88915914Y-48067889D01*
X88944486Y-48096460D01*
X88973057Y-48153603D01*
X88973057Y-48267889D01*
X88944486Y-48325032D01*
X88915914Y-48353603D01*
X88858771Y-48382174D01*
X88715914Y-48382174D01*
X88658771Y-48353603D01*
X88630200Y-48325032D01*
X88601629Y-48267889D01*
X88601629Y-48153603D01*
X88630200Y-48096460D01*
X88658771Y-48067889D01*
X88715914Y-48039317D01*
X160410617Y-27846444D02*
X159810617Y-27846444D01*
X159810617Y-27989301D01*
X159839189Y-28075016D01*
X159896331Y-28132158D01*
X159953474Y-28160730D01*
X160067760Y-28189301D01*
X160153474Y-28189301D01*
X160267760Y-28160730D01*
X160324903Y-28132158D01*
X160382046Y-28075016D01*
X160410617Y-27989301D01*
X160410617Y-27846444D01*
X159867760Y-28417873D02*
X159839189Y-28446444D01*
X159810617Y-28503587D01*
X159810617Y-28646444D01*
X159839189Y-28703587D01*
X159867760Y-28732158D01*
X159924903Y-28760730D01*
X159982046Y-28760730D01*
X160067760Y-28732158D01*
X160410617Y-28389301D01*
X160410617Y-28760730D01*
X160010617Y-29275016D02*
X160410617Y-29275016D01*
X159782046Y-29132158D02*
X160210617Y-28989301D01*
X160210617Y-29360730D01*
X212798161Y-65946476D02*
X212198161Y-65946476D01*
X212198161Y-66089333D01*
X212226733Y-66175048D01*
X212283875Y-66232190D01*
X212341018Y-66260762D01*
X212455304Y-66289333D01*
X212541018Y-66289333D01*
X212655304Y-66260762D01*
X212712447Y-66232190D01*
X212769590Y-66175048D01*
X212798161Y-66089333D01*
X212798161Y-65946476D01*
X212198161Y-66832190D02*
X212198161Y-66546476D01*
X212483875Y-66517905D01*
X212455304Y-66546476D01*
X212426733Y-66603619D01*
X212426733Y-66746476D01*
X212455304Y-66803619D01*
X212483875Y-66832190D01*
X212541018Y-66860762D01*
X212683875Y-66860762D01*
X212741018Y-66832190D01*
X212769590Y-66803619D01*
X212798161Y-66746476D01*
X212798161Y-66603619D01*
X212769590Y-66546476D01*
X212741018Y-66517905D01*
X212798161Y-67146476D02*
X212798161Y-67260762D01*
X212769590Y-67317905D01*
X212741018Y-67346476D01*
X212655304Y-67403619D01*
X212541018Y-67432190D01*
X212312447Y-67432190D01*
X212255304Y-67403619D01*
X212226733Y-67375048D01*
X212198161Y-67317905D01*
X212198161Y-67203619D01*
X212226733Y-67146476D01*
X212255304Y-67117905D01*
X212312447Y-67089333D01*
X212455304Y-67089333D01*
X212512447Y-67117905D01*
X212541018Y-67146476D01*
X212569590Y-67203619D01*
X212569590Y-67317905D01*
X212541018Y-67375048D01*
X212512447Y-67403619D01*
X212455304Y-67432190D01*
D10*
X34159023Y-50518263D02*
X33920928Y-50351597D01*
X34159023Y-50232549D02*
X33659023Y-50232549D01*
X33659023Y-50423025D01*
X33682833Y-50470644D01*
X33706642Y-50494454D01*
X33754261Y-50518263D01*
X33825690Y-50518263D01*
X33873309Y-50494454D01*
X33897118Y-50470644D01*
X33920928Y-50423025D01*
X33920928Y-50232549D01*
X34159023Y-50994454D02*
X34159023Y-50708739D01*
X34159023Y-50851597D02*
X33659023Y-50851597D01*
X33730452Y-50803977D01*
X33778071Y-50756358D01*
X33801880Y-50708739D01*
D11*
X188985641Y-8796428D02*
X188385641Y-8796428D01*
X188385641Y-8939285D01*
X188414213Y-9025000D01*
X188471355Y-9082142D01*
X188528498Y-9110714D01*
X188642784Y-9139285D01*
X188728498Y-9139285D01*
X188842784Y-9110714D01*
X188899927Y-9082142D01*
X188957070Y-9025000D01*
X188985641Y-8939285D01*
X188985641Y-8796428D01*
X188985641Y-9710714D02*
X188985641Y-9367857D01*
X188985641Y-9539285D02*
X188385641Y-9539285D01*
X188471355Y-9482142D01*
X188528498Y-9425000D01*
X188557070Y-9367857D01*
X188385641Y-10082142D02*
X188385641Y-10139285D01*
X188414213Y-10196428D01*
X188442784Y-10225000D01*
X188499927Y-10253571D01*
X188614213Y-10282142D01*
X188757070Y-10282142D01*
X188871355Y-10253571D01*
X188928498Y-10225000D01*
X188957070Y-10196428D01*
X188985641Y-10139285D01*
X188985641Y-10082142D01*
X188957070Y-10025000D01*
X188928498Y-9996428D01*
X188871355Y-9967857D01*
X188757070Y-9939285D01*
X188614213Y-9939285D01*
X188499927Y-9967857D01*
X188442784Y-9996428D01*
X188414213Y-10025000D01*
X188385641Y-10082142D01*
X74685545Y-9082142D02*
X74085545Y-9082142D01*
X74085545Y-9225000D01*
X74114117Y-9310714D01*
X74171259Y-9367857D01*
X74228402Y-9396428D01*
X74342688Y-9425000D01*
X74428402Y-9425000D01*
X74542688Y-9396428D01*
X74599831Y-9367857D01*
X74656974Y-9310714D01*
X74685545Y-9225000D01*
X74685545Y-9082142D01*
X74285545Y-9939285D02*
X74685545Y-9939285D01*
X74056974Y-9796428D02*
X74485545Y-9653571D01*
X74485545Y-10025000D01*
D10*
X160698712Y-75235620D02*
X160865379Y-74997525D01*
X160984427Y-75235620D02*
X160984427Y-74735620D01*
X160793950Y-74735620D01*
X160746331Y-74759430D01*
X160722522Y-74783239D01*
X160698712Y-74830858D01*
X160698712Y-74902287D01*
X160722522Y-74949906D01*
X160746331Y-74973715D01*
X160793950Y-74997525D01*
X160984427Y-74997525D01*
X160222522Y-75235620D02*
X160508236Y-75235620D01*
X160365379Y-75235620D02*
X160365379Y-74735620D01*
X160412998Y-74807049D01*
X160460617Y-74854668D01*
X160508236Y-74878477D01*
X159912998Y-74735620D02*
X159865379Y-74735620D01*
X159817760Y-74759430D01*
X159793950Y-74783239D01*
X159770141Y-74830858D01*
X159746331Y-74926096D01*
X159746331Y-75045144D01*
X159770141Y-75140382D01*
X159793950Y-75188001D01*
X159817760Y-75211810D01*
X159865379Y-75235620D01*
X159912998Y-75235620D01*
X159960617Y-75211810D01*
X159984427Y-75188001D01*
X160008236Y-75140382D01*
X160032046Y-75045144D01*
X160032046Y-74926096D01*
X160008236Y-74830858D01*
X159984427Y-74783239D01*
X159960617Y-74759430D01*
X159912998Y-74735620D01*
X159317760Y-74902287D02*
X159317760Y-75235620D01*
X159436808Y-74711810D02*
X159555855Y-75068953D01*
X159246331Y-75068953D01*
D11*
X303285737Y-46896460D02*
X302685737Y-46896460D01*
X302685737Y-47039317D01*
X302714309Y-47125032D01*
X302771451Y-47182174D01*
X302828594Y-47210746D01*
X302942880Y-47239317D01*
X303028594Y-47239317D01*
X303142880Y-47210746D01*
X303200023Y-47182174D01*
X303257166Y-47125032D01*
X303285737Y-47039317D01*
X303285737Y-46896460D01*
X302885737Y-47753603D02*
X303285737Y-47753603D01*
X302657166Y-47610746D02*
X303085737Y-47467889D01*
X303085737Y-47839317D01*
X302685737Y-48010746D02*
X302685737Y-48410746D01*
X303285737Y-48153603D01*
X244945063Y-46896396D02*
X244345063Y-46896396D01*
X244345063Y-47039253D01*
X244373635Y-47124968D01*
X244430777Y-47182110D01*
X244487920Y-47210682D01*
X244602206Y-47239253D01*
X244687920Y-47239253D01*
X244802206Y-47210682D01*
X244859349Y-47182110D01*
X244916492Y-47124968D01*
X244945063Y-47039253D01*
X244945063Y-46896396D01*
X244545063Y-47753539D02*
X244945063Y-47753539D01*
X244316492Y-47610682D02*
X244745063Y-47467825D01*
X244745063Y-47839253D01*
X244345063Y-48353539D02*
X244345063Y-48067825D01*
X244630777Y-48039253D01*
X244602206Y-48067825D01*
X244573635Y-48124968D01*
X244573635Y-48267825D01*
X244602206Y-48324968D01*
X244630777Y-48353539D01*
X244687920Y-48382110D01*
X244830777Y-48382110D01*
X244887920Y-48353539D01*
X244916492Y-48324968D01*
X244945063Y-48267825D01*
X244945063Y-48124968D01*
X244916492Y-48067825D01*
X244887920Y-48039253D01*
X242563819Y-65946484D02*
X241963819Y-65946484D01*
X241963819Y-66089341D01*
X241992391Y-66175056D01*
X242049533Y-66232198D01*
X242106676Y-66260770D01*
X242220962Y-66289341D01*
X242306676Y-66289341D01*
X242420962Y-66260770D01*
X242478105Y-66232198D01*
X242535248Y-66175056D01*
X242563819Y-66089341D01*
X242563819Y-65946484D01*
X241963819Y-66803627D02*
X241963819Y-66689341D01*
X241992391Y-66632198D01*
X242020962Y-66603627D01*
X242106676Y-66546484D01*
X242220962Y-66517913D01*
X242449533Y-66517913D01*
X242506676Y-66546484D01*
X242535248Y-66575056D01*
X242563819Y-66632198D01*
X242563819Y-66746484D01*
X242535248Y-66803627D01*
X242506676Y-66832198D01*
X242449533Y-66860770D01*
X242306676Y-66860770D01*
X242249533Y-66832198D01*
X242220962Y-66803627D01*
X242192391Y-66746484D01*
X242192391Y-66632198D01*
X242220962Y-66575056D01*
X242249533Y-66546484D01*
X242306676Y-66517913D01*
X242563819Y-67432198D02*
X242563819Y-67089341D01*
X242563819Y-67260770D02*
X241963819Y-67260770D01*
X242049533Y-67203627D01*
X242106676Y-67146484D01*
X242135248Y-67089341D01*
X272329461Y-46896460D02*
X271729461Y-46896460D01*
X271729461Y-47039317D01*
X271758033Y-47125032D01*
X271815175Y-47182174D01*
X271872318Y-47210746D01*
X271986604Y-47239317D01*
X272072318Y-47239317D01*
X272186604Y-47210746D01*
X272243747Y-47182174D01*
X272300890Y-47125032D01*
X272329461Y-47039317D01*
X272329461Y-46896460D01*
X271929461Y-47753603D02*
X272329461Y-47753603D01*
X271700890Y-47610746D02*
X272129461Y-47467889D01*
X272129461Y-47839317D01*
X271729461Y-48325032D02*
X271729461Y-48210746D01*
X271758033Y-48153603D01*
X271786604Y-48125032D01*
X271872318Y-48067889D01*
X271986604Y-48039317D01*
X272215175Y-48039317D01*
X272272318Y-48067889D01*
X272300890Y-48096460D01*
X272329461Y-48153603D01*
X272329461Y-48267889D01*
X272300890Y-48325032D01*
X272272318Y-48353603D01*
X272215175Y-48382174D01*
X272072318Y-48382174D01*
X272015175Y-48353603D01*
X271986604Y-48325032D01*
X271958033Y-48267889D01*
X271958033Y-48153603D01*
X271986604Y-48096460D01*
X272015175Y-48067889D01*
X272072318Y-48039317D01*
D10*
X29134614Y-50434930D02*
X29134614Y-50268263D01*
X29396519Y-50268263D02*
X28896519Y-50268263D01*
X28896519Y-50506358D01*
X29396519Y-50958739D02*
X29396519Y-50673025D01*
X29396519Y-50815882D02*
X28896519Y-50815882D01*
X28967948Y-50768263D01*
X29015567Y-50720644D01*
X29039376Y-50673025D01*
D11*
X284235721Y-84996492D02*
X283635721Y-84996492D01*
X283635721Y-85139349D01*
X283664293Y-85225064D01*
X283721435Y-85282206D01*
X283778578Y-85310778D01*
X283892864Y-85339349D01*
X283978578Y-85339349D01*
X284092864Y-85310778D01*
X284150007Y-85282206D01*
X284207150Y-85225064D01*
X284235721Y-85139349D01*
X284235721Y-84996492D01*
X283635721Y-85539349D02*
X283635721Y-85939349D01*
X284235721Y-85682206D01*
X283892864Y-86253635D02*
X283864293Y-86196492D01*
X283835721Y-86167921D01*
X283778578Y-86139349D01*
X283750007Y-86139349D01*
X283692864Y-86167921D01*
X283664293Y-86196492D01*
X283635721Y-86253635D01*
X283635721Y-86367921D01*
X283664293Y-86425064D01*
X283692864Y-86453635D01*
X283750007Y-86482206D01*
X283778578Y-86482206D01*
X283835721Y-86453635D01*
X283864293Y-86425064D01*
X283892864Y-86367921D01*
X283892864Y-86253635D01*
X283921435Y-86196492D01*
X283950007Y-86167921D01*
X284007150Y-86139349D01*
X284121435Y-86139349D01*
X284178578Y-86167921D01*
X284207150Y-86196492D01*
X284235721Y-86253635D01*
X284235721Y-86367921D01*
X284207150Y-86425064D01*
X284178578Y-86453635D01*
X284121435Y-86482206D01*
X284007150Y-86482206D01*
X283950007Y-86453635D01*
X283921435Y-86425064D01*
X283892864Y-86367921D01*
X198510649Y-27846380D02*
X197910649Y-27846380D01*
X197910649Y-27989237D01*
X197939221Y-28074952D01*
X197996363Y-28132094D01*
X198053506Y-28160666D01*
X198167792Y-28189237D01*
X198253506Y-28189237D01*
X198367792Y-28160666D01*
X198424935Y-28132094D01*
X198482078Y-28074952D01*
X198510649Y-27989237D01*
X198510649Y-27846380D01*
X197967792Y-28417809D02*
X197939221Y-28446380D01*
X197910649Y-28503523D01*
X197910649Y-28646380D01*
X197939221Y-28703523D01*
X197967792Y-28732094D01*
X198024935Y-28760666D01*
X198082078Y-28760666D01*
X198167792Y-28732094D01*
X198510649Y-28389237D01*
X198510649Y-28760666D01*
X197910649Y-29274952D02*
X197910649Y-29160666D01*
X197939221Y-29103523D01*
X197967792Y-29074952D01*
X198053506Y-29017809D01*
X198167792Y-28989237D01*
X198396363Y-28989237D01*
X198453506Y-29017809D01*
X198482078Y-29046380D01*
X198510649Y-29103523D01*
X198510649Y-29217809D01*
X198482078Y-29274952D01*
X198453506Y-29303523D01*
X198396363Y-29332094D01*
X198253506Y-29332094D01*
X198196363Y-29303523D01*
X198167792Y-29274952D01*
X198139221Y-29217809D01*
X198139221Y-29103523D01*
X198167792Y-29046380D01*
X198196363Y-29017809D01*
X198253506Y-28989237D01*
X24679253Y-46896396D02*
X24079253Y-46896396D01*
X24079253Y-47039253D01*
X24107825Y-47124968D01*
X24164967Y-47182110D01*
X24222110Y-47210682D01*
X24336396Y-47239253D01*
X24422110Y-47239253D01*
X24536396Y-47210682D01*
X24593539Y-47182110D01*
X24650682Y-47124968D01*
X24679253Y-47039253D01*
X24679253Y-46896396D01*
X24079253Y-47439253D02*
X24079253Y-47810682D01*
X24307825Y-47610682D01*
X24307825Y-47696396D01*
X24336396Y-47753539D01*
X24364967Y-47782110D01*
X24422110Y-47810682D01*
X24564967Y-47810682D01*
X24622110Y-47782110D01*
X24650682Y-47753539D01*
X24679253Y-47696396D01*
X24679253Y-47524968D01*
X24650682Y-47467825D01*
X24622110Y-47439253D01*
X24079253Y-48010682D02*
X24079253Y-48382110D01*
X24307825Y-48182110D01*
X24307825Y-48267825D01*
X24336396Y-48324968D01*
X24364967Y-48353539D01*
X24422110Y-48382110D01*
X24564967Y-48382110D01*
X24622110Y-48353539D01*
X24650682Y-48324968D01*
X24679253Y-48267825D01*
X24679253Y-48096396D01*
X24650682Y-48039253D01*
X24622110Y-48010682D01*
D13*
X98726487Y-80272083D02*
X98926487Y-80405417D01*
X98726487Y-80405417D02*
X98926487Y-80272083D01*
X98726487Y-80453036D02*
X98726487Y-80567321D01*
X98926487Y-80510179D02*
X98726487Y-80510179D01*
X98869344Y-80624464D02*
X98869344Y-80719702D01*
X98926487Y-80605417D02*
X98726487Y-80672083D01*
X98926487Y-80738750D01*
X98926487Y-80900655D02*
X98926487Y-80805417D01*
X98726487Y-80805417D01*
X98945534Y-80919702D02*
X98945534Y-81072083D01*
X98736011Y-81224464D02*
X98726487Y-81205417D01*
X98726487Y-81176845D01*
X98736011Y-81148274D01*
X98755058Y-81129226D01*
X98774106Y-81119702D01*
X98812201Y-81110179D01*
X98840772Y-81110179D01*
X98878868Y-81119702D01*
X98897915Y-81129226D01*
X98916963Y-81148274D01*
X98926487Y-81176845D01*
X98926487Y-81195893D01*
X98916963Y-81224464D01*
X98907439Y-81233988D01*
X98840772Y-81233988D01*
X98840772Y-81195893D01*
X98926487Y-81319702D02*
X98726487Y-81319702D01*
X98926487Y-81433988D01*
X98726487Y-81433988D01*
X98926487Y-81529226D02*
X98726487Y-81529226D01*
X98726487Y-81576845D01*
X98736011Y-81605417D01*
X98755058Y-81624464D01*
X98774106Y-81633988D01*
X98812201Y-81643512D01*
X98840772Y-81643512D01*
X98878868Y-81633988D01*
X98897915Y-81624464D01*
X98916963Y-81605417D01*
X98926487Y-81576845D01*
X98926487Y-81529226D01*
D14*
X96657439Y-80576845D02*
X97257439Y-80976845D01*
X96657439Y-80976845D02*
X97257439Y-80576845D01*
X97257439Y-81519702D02*
X97257439Y-81176845D01*
X97257439Y-81348274D02*
X96657439Y-81348274D01*
X96743153Y-81291131D01*
X96800296Y-81233988D01*
X96828868Y-81176845D01*
D11*
X255660697Y-27846380D02*
X255060697Y-27846380D01*
X255060697Y-27989237D01*
X255089269Y-28074952D01*
X255146411Y-28132094D01*
X255203554Y-28160666D01*
X255317840Y-28189237D01*
X255403554Y-28189237D01*
X255517840Y-28160666D01*
X255574983Y-28132094D01*
X255632126Y-28074952D01*
X255660697Y-27989237D01*
X255660697Y-27846380D01*
X255117840Y-28417809D02*
X255089269Y-28446380D01*
X255060697Y-28503523D01*
X255060697Y-28646380D01*
X255089269Y-28703523D01*
X255117840Y-28732094D01*
X255174983Y-28760666D01*
X255232126Y-28760666D01*
X255317840Y-28732094D01*
X255660697Y-28389237D01*
X255660697Y-28760666D01*
X255660697Y-29046380D02*
X255660697Y-29160666D01*
X255632126Y-29217809D01*
X255603554Y-29246380D01*
X255517840Y-29303523D01*
X255403554Y-29332094D01*
X255174983Y-29332094D01*
X255117840Y-29303523D01*
X255089269Y-29274952D01*
X255060697Y-29217809D01*
X255060697Y-29103523D01*
X255089269Y-29046380D01*
X255117840Y-29017809D01*
X255174983Y-28989237D01*
X255317840Y-28989237D01*
X255374983Y-29017809D01*
X255403554Y-29046380D01*
X255432126Y-29103523D01*
X255432126Y-29217809D01*
X255403554Y-29274952D01*
X255374983Y-29303523D01*
X255317840Y-29332094D01*
D15*
X120336551Y-85903635D02*
X120360360Y-85927444D01*
X120431789Y-85951254D01*
X120479408Y-85951254D01*
X120550837Y-85927444D01*
X120598456Y-85879825D01*
X120622265Y-85832206D01*
X120646075Y-85736968D01*
X120646075Y-85665540D01*
X120622265Y-85570302D01*
X120598456Y-85522683D01*
X120550837Y-85475064D01*
X120479408Y-85451254D01*
X120431789Y-85451254D01*
X120360360Y-85475064D01*
X120336551Y-85498873D01*
X120146075Y-85498873D02*
X120122265Y-85475064D01*
X120074646Y-85451254D01*
X119955598Y-85451254D01*
X119907979Y-85475064D01*
X119884170Y-85498873D01*
X119860360Y-85546492D01*
X119860360Y-85594111D01*
X119884170Y-85665540D01*
X120169884Y-85951254D01*
X119860360Y-85951254D01*
D11*
X241373193Y-84996492D02*
X240773193Y-84996492D01*
X240773193Y-85139349D01*
X240801765Y-85225064D01*
X240858907Y-85282206D01*
X240916050Y-85310778D01*
X241030336Y-85339349D01*
X241116050Y-85339349D01*
X241230336Y-85310778D01*
X241287479Y-85282206D01*
X241344622Y-85225064D01*
X241373193Y-85139349D01*
X241373193Y-84996492D01*
X240773193Y-85539349D02*
X240773193Y-85939349D01*
X241373193Y-85682206D01*
X240773193Y-86425064D02*
X240773193Y-86310778D01*
X240801765Y-86253635D01*
X240830336Y-86225064D01*
X240916050Y-86167921D01*
X241030336Y-86139349D01*
X241258907Y-86139349D01*
X241316050Y-86167921D01*
X241344622Y-86196492D01*
X241373193Y-86253635D01*
X241373193Y-86367921D01*
X241344622Y-86425064D01*
X241316050Y-86453635D01*
X241258907Y-86482206D01*
X241116050Y-86482206D01*
X241058907Y-86453635D01*
X241030336Y-86425064D01*
X241001765Y-86367921D01*
X241001765Y-86253635D01*
X241030336Y-86196492D01*
X241058907Y-86167921D01*
X241116050Y-86139349D01*
X22298001Y-27846380D02*
X21698001Y-27846380D01*
X21698001Y-27989237D01*
X21726573Y-28074952D01*
X21783715Y-28132094D01*
X21840858Y-28160666D01*
X21955144Y-28189237D01*
X22040858Y-28189237D01*
X22155144Y-28160666D01*
X22212287Y-28132094D01*
X22269430Y-28074952D01*
X22298001Y-27989237D01*
X22298001Y-27846380D01*
X22298001Y-28760666D02*
X22298001Y-28417809D01*
X22298001Y-28589237D02*
X21698001Y-28589237D01*
X21783715Y-28532094D01*
X21840858Y-28474952D01*
X21869430Y-28417809D01*
X21698001Y-28960666D02*
X21698001Y-29360666D01*
X22298001Y-29103523D01*
D10*
X119741238Y-75830933D02*
X119907905Y-75592838D01*
X120026952Y-75830933D02*
X120026952Y-75330933D01*
X119836476Y-75330933D01*
X119788857Y-75354743D01*
X119765047Y-75378552D01*
X119741238Y-75426171D01*
X119741238Y-75497600D01*
X119765047Y-75545219D01*
X119788857Y-75569028D01*
X119836476Y-75592838D01*
X120026952Y-75592838D01*
X119312666Y-75330933D02*
X119407905Y-75330933D01*
X119455524Y-75354743D01*
X119479333Y-75378552D01*
X119526952Y-75449981D01*
X119550762Y-75545219D01*
X119550762Y-75735695D01*
X119526952Y-75783314D01*
X119503143Y-75807123D01*
X119455524Y-75830933D01*
X119360285Y-75830933D01*
X119312666Y-75807123D01*
X119288857Y-75783314D01*
X119265047Y-75735695D01*
X119265047Y-75616647D01*
X119288857Y-75569028D01*
X119312666Y-75545219D01*
X119360285Y-75521409D01*
X119455524Y-75521409D01*
X119503143Y-75545219D01*
X119526952Y-75569028D01*
X119550762Y-75616647D01*
D11*
X203273153Y-46896460D02*
X202673153Y-46896460D01*
X202673153Y-47039317D01*
X202701725Y-47125032D01*
X202758867Y-47182174D01*
X202816010Y-47210746D01*
X202930296Y-47239317D01*
X203016010Y-47239317D01*
X203130296Y-47210746D01*
X203187439Y-47182174D01*
X203244582Y-47125032D01*
X203273153Y-47039317D01*
X203273153Y-46896460D01*
X202873153Y-47753603D02*
X203273153Y-47753603D01*
X202644582Y-47610746D02*
X203073153Y-47467889D01*
X203073153Y-47839317D01*
X202730296Y-48039317D02*
X202701725Y-48067889D01*
X202673153Y-48125032D01*
X202673153Y-48267889D01*
X202701725Y-48325032D01*
X202730296Y-48353603D01*
X202787439Y-48382174D01*
X202844582Y-48382174D01*
X202930296Y-48353603D01*
X203273153Y-48010746D01*
X203273153Y-48382174D01*
X117548081Y-65946476D02*
X116948081Y-65946476D01*
X116948081Y-66089333D01*
X116976653Y-66175048D01*
X117033795Y-66232190D01*
X117090938Y-66260762D01*
X117205224Y-66289333D01*
X117290938Y-66289333D01*
X117405224Y-66260762D01*
X117462367Y-66232190D01*
X117519510Y-66175048D01*
X117548081Y-66089333D01*
X117548081Y-65946476D01*
X116948081Y-66832190D02*
X116948081Y-66546476D01*
X117233795Y-66517905D01*
X117205224Y-66546476D01*
X117176653Y-66603619D01*
X117176653Y-66746476D01*
X117205224Y-66803619D01*
X117233795Y-66832190D01*
X117290938Y-66860762D01*
X117433795Y-66860762D01*
X117490938Y-66832190D01*
X117519510Y-66803619D01*
X117548081Y-66746476D01*
X117548081Y-66603619D01*
X117519510Y-66546476D01*
X117490938Y-66517905D01*
X117148081Y-67375048D02*
X117548081Y-67375048D01*
X116919510Y-67232190D02*
X117348081Y-67089333D01*
X117348081Y-67460762D01*
X212798161Y-84996492D02*
X212198161Y-84996492D01*
X212198161Y-85139349D01*
X212226733Y-85225064D01*
X212283875Y-85282206D01*
X212341018Y-85310778D01*
X212455304Y-85339349D01*
X212541018Y-85339349D01*
X212655304Y-85310778D01*
X212712447Y-85282206D01*
X212769590Y-85225064D01*
X212798161Y-85139349D01*
X212798161Y-84996492D01*
X212198161Y-85539349D02*
X212198161Y-85939349D01*
X212798161Y-85682206D01*
X212198161Y-86453635D02*
X212198161Y-86167921D01*
X212483875Y-86139349D01*
X212455304Y-86167921D01*
X212426733Y-86225064D01*
X212426733Y-86367921D01*
X212455304Y-86425064D01*
X212483875Y-86453635D01*
X212541018Y-86482206D01*
X212683875Y-86482206D01*
X212741018Y-86453635D01*
X212769590Y-86425064D01*
X212798161Y-86367921D01*
X212798161Y-86225064D01*
X212769590Y-86167921D01*
X212741018Y-86139349D01*
X303285737Y-84996492D02*
X302685737Y-84996492D01*
X302685737Y-85139349D01*
X302714309Y-85225064D01*
X302771451Y-85282206D01*
X302828594Y-85310778D01*
X302942880Y-85339349D01*
X303028594Y-85339349D01*
X303142880Y-85310778D01*
X303200023Y-85282206D01*
X303257166Y-85225064D01*
X303285737Y-85139349D01*
X303285737Y-84996492D01*
X302685737Y-85539349D02*
X302685737Y-85939349D01*
X303285737Y-85682206D01*
X303285737Y-86196492D02*
X303285737Y-86310778D01*
X303257166Y-86367921D01*
X303228594Y-86396492D01*
X303142880Y-86453635D01*
X303028594Y-86482206D01*
X302800023Y-86482206D01*
X302742880Y-86453635D01*
X302714309Y-86425064D01*
X302685737Y-86367921D01*
X302685737Y-86253635D01*
X302714309Y-86196492D01*
X302742880Y-86167921D01*
X302800023Y-86139349D01*
X302942880Y-86139349D01*
X303000023Y-86167921D01*
X303028594Y-86196492D01*
X303057166Y-86253635D01*
X303057166Y-86367921D01*
X303028594Y-86425064D01*
X303000023Y-86453635D01*
X302942880Y-86482206D01*
X131835593Y-9082078D02*
X131235593Y-9082078D01*
X131235593Y-9224936D01*
X131264165Y-9310650D01*
X131321307Y-9367793D01*
X131378450Y-9396364D01*
X131492736Y-9424936D01*
X131578450Y-9424936D01*
X131692736Y-9396364D01*
X131749879Y-9367793D01*
X131807022Y-9310650D01*
X131835593Y-9224936D01*
X131835593Y-9082078D01*
X131235593Y-9624936D02*
X131235593Y-10024936D01*
X131835593Y-9767793D01*
X217560665Y-27846380D02*
X216960665Y-27846380D01*
X216960665Y-27989237D01*
X216989237Y-28074952D01*
X217046379Y-28132094D01*
X217103522Y-28160666D01*
X217217808Y-28189237D01*
X217303522Y-28189237D01*
X217417808Y-28160666D01*
X217474951Y-28132094D01*
X217532094Y-28074952D01*
X217560665Y-27989237D01*
X217560665Y-27846380D01*
X217017808Y-28417809D02*
X216989237Y-28446380D01*
X216960665Y-28503523D01*
X216960665Y-28646380D01*
X216989237Y-28703523D01*
X217017808Y-28732094D01*
X217074951Y-28760666D01*
X217132094Y-28760666D01*
X217217808Y-28732094D01*
X217560665Y-28389237D01*
X217560665Y-28760666D01*
X216960665Y-28960666D02*
X216960665Y-29360666D01*
X217560665Y-29103523D01*
X69923041Y-46896396D02*
X69323041Y-46896396D01*
X69323041Y-47039253D01*
X69351613Y-47124968D01*
X69408755Y-47182110D01*
X69465898Y-47210682D01*
X69580184Y-47239253D01*
X69665898Y-47239253D01*
X69780184Y-47210682D01*
X69837327Y-47182110D01*
X69894470Y-47124968D01*
X69923041Y-47039253D01*
X69923041Y-46896396D01*
X69323041Y-47439253D02*
X69323041Y-47810682D01*
X69551613Y-47610682D01*
X69551613Y-47696396D01*
X69580184Y-47753539D01*
X69608755Y-47782110D01*
X69665898Y-47810682D01*
X69808755Y-47810682D01*
X69865898Y-47782110D01*
X69894470Y-47753539D01*
X69923041Y-47696396D01*
X69923041Y-47524968D01*
X69894470Y-47467825D01*
X69865898Y-47439253D01*
X69323041Y-48353539D02*
X69323041Y-48067825D01*
X69608755Y-48039253D01*
X69580184Y-48067825D01*
X69551613Y-48124968D01*
X69551613Y-48267825D01*
X69580184Y-48324968D01*
X69608755Y-48353539D01*
X69665898Y-48382110D01*
X69808755Y-48382110D01*
X69865898Y-48353539D01*
X69894470Y-48324968D01*
X69923041Y-48267825D01*
X69923041Y-48124968D01*
X69894470Y-48067825D01*
X69865898Y-48039253D01*
X246135689Y-8796364D02*
X245535689Y-8796364D01*
X245535689Y-8939221D01*
X245564261Y-9024936D01*
X245621403Y-9082078D01*
X245678546Y-9110650D01*
X245792832Y-9139221D01*
X245878546Y-9139221D01*
X245992832Y-9110650D01*
X246049975Y-9082078D01*
X246107118Y-9024936D01*
X246135689Y-8939221D01*
X246135689Y-8796364D01*
X246135689Y-9710650D02*
X246135689Y-9367793D01*
X246135689Y-9539221D02*
X245535689Y-9539221D01*
X245621403Y-9482078D01*
X245678546Y-9424936D01*
X245707118Y-9367793D01*
X245535689Y-9910650D02*
X245535689Y-10282078D01*
X245764261Y-10082078D01*
X245764261Y-10167793D01*
X245792832Y-10224936D01*
X245821403Y-10253507D01*
X245878546Y-10282078D01*
X246021403Y-10282078D01*
X246078546Y-10253507D01*
X246107118Y-10224936D01*
X246135689Y-10167793D01*
X246135689Y-9996364D01*
X246107118Y-9939221D01*
X246078546Y-9910650D01*
X184223137Y-46896396D02*
X183623137Y-46896396D01*
X183623137Y-47039253D01*
X183651709Y-47124968D01*
X183708851Y-47182110D01*
X183765994Y-47210682D01*
X183880280Y-47239253D01*
X183965994Y-47239253D01*
X184080280Y-47210682D01*
X184137423Y-47182110D01*
X184194566Y-47124968D01*
X184223137Y-47039253D01*
X184223137Y-46896396D01*
X183823137Y-47753539D02*
X184223137Y-47753539D01*
X183594566Y-47610682D02*
X184023137Y-47467825D01*
X184023137Y-47839253D01*
X184223137Y-48382110D02*
X184223137Y-48039253D01*
X184223137Y-48210682D02*
X183623137Y-48210682D01*
X183708851Y-48153539D01*
X183765994Y-48096396D01*
X183794566Y-48039253D01*
D15*
X119741238Y-78164566D02*
X119765047Y-78188375D01*
X119836476Y-78212185D01*
X119884095Y-78212185D01*
X119955524Y-78188375D01*
X120003143Y-78140756D01*
X120026952Y-78093137D01*
X120050762Y-77997899D01*
X120050762Y-77926471D01*
X120026952Y-77831233D01*
X120003143Y-77783614D01*
X119955524Y-77735995D01*
X119884095Y-77712185D01*
X119836476Y-77712185D01*
X119765047Y-77735995D01*
X119741238Y-77759804D01*
X119312666Y-77878852D02*
X119312666Y-78212185D01*
X119431714Y-77688375D02*
X119550762Y-78045518D01*
X119241238Y-78045518D01*
D11*
X41348017Y-65946476D02*
X40748017Y-65946476D01*
X40748017Y-66089333D01*
X40776589Y-66175048D01*
X40833731Y-66232190D01*
X40890874Y-66260762D01*
X41005160Y-66289333D01*
X41090874Y-66289333D01*
X41205160Y-66260762D01*
X41262303Y-66232190D01*
X41319446Y-66175048D01*
X41348017Y-66089333D01*
X41348017Y-65946476D01*
X40948017Y-66803619D02*
X41348017Y-66803619D01*
X40719446Y-66660762D02*
X41148017Y-66517905D01*
X41148017Y-66889333D01*
X41348017Y-67146476D02*
X41348017Y-67260762D01*
X41319446Y-67317905D01*
X41290874Y-67346476D01*
X41205160Y-67403619D01*
X41090874Y-67432190D01*
X40862303Y-67432190D01*
X40805160Y-67403619D01*
X40776589Y-67375048D01*
X40748017Y-67317905D01*
X40748017Y-67203619D01*
X40776589Y-67146476D01*
X40805160Y-67117905D01*
X40862303Y-67089333D01*
X41005160Y-67089333D01*
X41062303Y-67117905D01*
X41090874Y-67146476D01*
X41119446Y-67203619D01*
X41119446Y-67317905D01*
X41090874Y-67375048D01*
X41062303Y-67403619D01*
X41005160Y-67432190D01*
D10*
X164865903Y-76426246D02*
X165032570Y-76188151D01*
X165151618Y-76426246D02*
X165151618Y-75926246D01*
X164961141Y-75926246D01*
X164913522Y-75950056D01*
X164889713Y-75973865D01*
X164865903Y-76021484D01*
X164865903Y-76092913D01*
X164889713Y-76140532D01*
X164913522Y-76164341D01*
X164961141Y-76188151D01*
X165151618Y-76188151D01*
X164389713Y-76426246D02*
X164675427Y-76426246D01*
X164532570Y-76426246D02*
X164532570Y-75926246D01*
X164580189Y-75997675D01*
X164627808Y-76045294D01*
X164675427Y-76069103D01*
X164080189Y-75926246D02*
X164032570Y-75926246D01*
X163984951Y-75950056D01*
X163961141Y-75973865D01*
X163937332Y-76021484D01*
X163913522Y-76116722D01*
X163913522Y-76235770D01*
X163937332Y-76331008D01*
X163961141Y-76378627D01*
X163984951Y-76402436D01*
X164032570Y-76426246D01*
X164080189Y-76426246D01*
X164127808Y-76402436D01*
X164151618Y-76378627D01*
X164175427Y-76331008D01*
X164199237Y-76235770D01*
X164199237Y-76116722D01*
X164175427Y-76021484D01*
X164151618Y-75973865D01*
X164127808Y-75950056D01*
X164080189Y-75926246D01*
X163746856Y-75926246D02*
X163437332Y-75926246D01*
X163603999Y-76116722D01*
X163532570Y-76116722D01*
X163484951Y-76140532D01*
X163461141Y-76164341D01*
X163437332Y-76211960D01*
X163437332Y-76331008D01*
X163461141Y-76378627D01*
X163484951Y-76402436D01*
X163532570Y-76426246D01*
X163675427Y-76426246D01*
X163723046Y-76402436D01*
X163746856Y-76378627D01*
D15*
X120336551Y-88284887D02*
X120360360Y-88308696D01*
X120431789Y-88332506D01*
X120479408Y-88332506D01*
X120550837Y-88308696D01*
X120598456Y-88261077D01*
X120622265Y-88213458D01*
X120646075Y-88118220D01*
X120646075Y-88046792D01*
X120622265Y-87951554D01*
X120598456Y-87903935D01*
X120550837Y-87856316D01*
X120479408Y-87832506D01*
X120431789Y-87832506D01*
X120360360Y-87856316D01*
X120336551Y-87880125D01*
X119860360Y-88332506D02*
X120146075Y-88332506D01*
X120003218Y-88332506D02*
X120003218Y-87832506D01*
X120050837Y-87903935D01*
X120098456Y-87951554D01*
X120146075Y-87975363D01*
D11*
X249707575Y-8796436D02*
X249107575Y-8796436D01*
X249107575Y-8939293D01*
X249136147Y-9025008D01*
X249193289Y-9082150D01*
X249250432Y-9110722D01*
X249364718Y-9139293D01*
X249450432Y-9139293D01*
X249564718Y-9110722D01*
X249621861Y-9082150D01*
X249679004Y-9025008D01*
X249707575Y-8939293D01*
X249707575Y-8796436D01*
X249107575Y-9339293D02*
X249107575Y-9710722D01*
X249336147Y-9510722D01*
X249336147Y-9596436D01*
X249364718Y-9653579D01*
X249393289Y-9682150D01*
X249450432Y-9710722D01*
X249593289Y-9710722D01*
X249650432Y-9682150D01*
X249679004Y-9653579D01*
X249707575Y-9596436D01*
X249707575Y-9425008D01*
X249679004Y-9367865D01*
X249650432Y-9339293D01*
X249107575Y-10082150D02*
X249107575Y-10139293D01*
X249136147Y-10196436D01*
X249164718Y-10225008D01*
X249221861Y-10253579D01*
X249336147Y-10282150D01*
X249479004Y-10282150D01*
X249593289Y-10253579D01*
X249650432Y-10225008D01*
X249679004Y-10196436D01*
X249707575Y-10139293D01*
X249707575Y-10082150D01*
X249679004Y-10025008D01*
X249650432Y-9996436D01*
X249593289Y-9967865D01*
X249479004Y-9939293D01*
X249336147Y-9939293D01*
X249221861Y-9967865D01*
X249164718Y-9996436D01*
X249136147Y-10025008D01*
X249107575Y-10082150D01*
X84210553Y-27846444D02*
X83610553Y-27846444D01*
X83610553Y-27989301D01*
X83639125Y-28075016D01*
X83696267Y-28132158D01*
X83753410Y-28160730D01*
X83867696Y-28189301D01*
X83953410Y-28189301D01*
X84067696Y-28160730D01*
X84124839Y-28132158D01*
X84181982Y-28075016D01*
X84210553Y-27989301D01*
X84210553Y-27846444D01*
X83667696Y-28417873D02*
X83639125Y-28446444D01*
X83610553Y-28503587D01*
X83610553Y-28646444D01*
X83639125Y-28703587D01*
X83667696Y-28732158D01*
X83724839Y-28760730D01*
X83781982Y-28760730D01*
X83867696Y-28732158D01*
X84210553Y-28389301D01*
X84210553Y-28760730D01*
X83610553Y-29132158D02*
X83610553Y-29189301D01*
X83639125Y-29246444D01*
X83667696Y-29275016D01*
X83724839Y-29303587D01*
X83839125Y-29332158D01*
X83981982Y-29332158D01*
X84096267Y-29303587D01*
X84153410Y-29275016D01*
X84181982Y-29246444D01*
X84210553Y-29189301D01*
X84210553Y-29132158D01*
X84181982Y-29075016D01*
X84153410Y-29046444D01*
X84096267Y-29017873D01*
X83981982Y-28989301D01*
X83839125Y-28989301D01*
X83724839Y-29017873D01*
X83667696Y-29046444D01*
X83639125Y-29075016D01*
X83610553Y-29132158D01*
X169935625Y-9082078D02*
X169335625Y-9082078D01*
X169335625Y-9224936D01*
X169364197Y-9310650D01*
X169421339Y-9367793D01*
X169478482Y-9396364D01*
X169592768Y-9424936D01*
X169678482Y-9424936D01*
X169792768Y-9396364D01*
X169849911Y-9367793D01*
X169907054Y-9310650D01*
X169935625Y-9224936D01*
X169935625Y-9082078D01*
X169935625Y-9710650D02*
X169935625Y-9824936D01*
X169907054Y-9882078D01*
X169878482Y-9910650D01*
X169792768Y-9967793D01*
X169678482Y-9996364D01*
X169449911Y-9996364D01*
X169392768Y-9967793D01*
X169364197Y-9939221D01*
X169335625Y-9882078D01*
X169335625Y-9767793D01*
X169364197Y-9710650D01*
X169392768Y-9682078D01*
X169449911Y-9653507D01*
X169592768Y-9653507D01*
X169649911Y-9682078D01*
X169678482Y-9710650D01*
X169707054Y-9767793D01*
X169707054Y-9882078D01*
X169678482Y-9939221D01*
X169649911Y-9967793D01*
X169592768Y-9996364D01*
X236610681Y-27846444D02*
X236010681Y-27846444D01*
X236010681Y-27989301D01*
X236039253Y-28075016D01*
X236096395Y-28132158D01*
X236153538Y-28160730D01*
X236267824Y-28189301D01*
X236353538Y-28189301D01*
X236467824Y-28160730D01*
X236524967Y-28132158D01*
X236582110Y-28075016D01*
X236610681Y-27989301D01*
X236610681Y-27846444D01*
X236067824Y-28417873D02*
X236039253Y-28446444D01*
X236010681Y-28503587D01*
X236010681Y-28646444D01*
X236039253Y-28703587D01*
X236067824Y-28732158D01*
X236124967Y-28760730D01*
X236182110Y-28760730D01*
X236267824Y-28732158D01*
X236610681Y-28389301D01*
X236610681Y-28760730D01*
X236267824Y-29103587D02*
X236239253Y-29046444D01*
X236210681Y-29017873D01*
X236153538Y-28989301D01*
X236124967Y-28989301D01*
X236067824Y-29017873D01*
X236039253Y-29046444D01*
X236010681Y-29103587D01*
X236010681Y-29217873D01*
X236039253Y-29275016D01*
X236067824Y-29303587D01*
X236124967Y-29332158D01*
X236153538Y-29332158D01*
X236210681Y-29303587D01*
X236239253Y-29275016D01*
X236267824Y-29217873D01*
X236267824Y-29103587D01*
X236296395Y-29046444D01*
X236324967Y-29017873D01*
X236382110Y-28989301D01*
X236496395Y-28989301D01*
X236553538Y-29017873D01*
X236582110Y-29046444D01*
X236610681Y-29103587D01*
X236610681Y-29217873D01*
X236582110Y-29275016D01*
X236553538Y-29303587D01*
X236496395Y-29332158D01*
X236382110Y-29332158D01*
X236324967Y-29303587D01*
X236296395Y-29275016D01*
X236267824Y-29217873D01*
D15*
X100691222Y-73997375D02*
X100715031Y-74021184D01*
X100786460Y-74044994D01*
X100834079Y-74044994D01*
X100905508Y-74021184D01*
X100953127Y-73973565D01*
X100976936Y-73925946D01*
X101000746Y-73830708D01*
X101000746Y-73759280D01*
X100976936Y-73664042D01*
X100953127Y-73616423D01*
X100905508Y-73568804D01*
X100834079Y-73544994D01*
X100786460Y-73544994D01*
X100715031Y-73568804D01*
X100691222Y-73592613D01*
X100524555Y-73544994D02*
X100215031Y-73544994D01*
X100381698Y-73735470D01*
X100310269Y-73735470D01*
X100262650Y-73759280D01*
X100238841Y-73783089D01*
X100215031Y-73830708D01*
X100215031Y-73949756D01*
X100238841Y-73997375D01*
X100262650Y-74021184D01*
X100310269Y-74044994D01*
X100453127Y-74044994D01*
X100500746Y-74021184D01*
X100524555Y-73997375D01*
D11*
X60398033Y-65946476D02*
X59798033Y-65946476D01*
X59798033Y-66089333D01*
X59826605Y-66175048D01*
X59883747Y-66232190D01*
X59940890Y-66260762D01*
X60055176Y-66289333D01*
X60140890Y-66289333D01*
X60255176Y-66260762D01*
X60312319Y-66232190D01*
X60369462Y-66175048D01*
X60398033Y-66089333D01*
X60398033Y-65946476D01*
X59798033Y-66832190D02*
X59798033Y-66546476D01*
X60083747Y-66517905D01*
X60055176Y-66546476D01*
X60026605Y-66603619D01*
X60026605Y-66746476D01*
X60055176Y-66803619D01*
X60083747Y-66832190D01*
X60140890Y-66860762D01*
X60283747Y-66860762D01*
X60340890Y-66832190D01*
X60369462Y-66803619D01*
X60398033Y-66746476D01*
X60398033Y-66603619D01*
X60369462Y-66546476D01*
X60340890Y-66517905D01*
X60398033Y-67432190D02*
X60398033Y-67089333D01*
X60398033Y-67260762D02*
X59798033Y-67260762D01*
X59883747Y-67203619D01*
X59940890Y-67146476D01*
X59969462Y-67089333D01*
X303285737Y-8796364D02*
X302685737Y-8796364D01*
X302685737Y-8939221D01*
X302714309Y-9024936D01*
X302771451Y-9082078D01*
X302828594Y-9110650D01*
X302942880Y-9139221D01*
X303028594Y-9139221D01*
X303142880Y-9110650D01*
X303200023Y-9082078D01*
X303257166Y-9024936D01*
X303285737Y-8939221D01*
X303285737Y-8796364D01*
X303285737Y-9710650D02*
X303285737Y-9367793D01*
X303285737Y-9539221D02*
X302685737Y-9539221D01*
X302771451Y-9482078D01*
X302828594Y-9424936D01*
X302857166Y-9367793D01*
X302685737Y-10253507D02*
X302685737Y-9967793D01*
X302971451Y-9939221D01*
X302942880Y-9967793D01*
X302914309Y-10024936D01*
X302914309Y-10167793D01*
X302942880Y-10224936D01*
X302971451Y-10253507D01*
X303028594Y-10282078D01*
X303171451Y-10282078D01*
X303228594Y-10253507D01*
X303257166Y-10224936D01*
X303285737Y-10167793D01*
X303285737Y-10024936D01*
X303257166Y-9967793D01*
X303228594Y-9939221D01*
X303285737Y-65946476D02*
X302685737Y-65946476D01*
X302685737Y-66089333D01*
X302714309Y-66175048D01*
X302771451Y-66232190D01*
X302828594Y-66260762D01*
X302942880Y-66289333D01*
X303028594Y-66289333D01*
X303142880Y-66260762D01*
X303200023Y-66232190D01*
X303257166Y-66175048D01*
X303285737Y-66089333D01*
X303285737Y-65946476D01*
X302685737Y-66803619D02*
X302685737Y-66689333D01*
X302714309Y-66632190D01*
X302742880Y-66603619D01*
X302828594Y-66546476D01*
X302942880Y-66517905D01*
X303171451Y-66517905D01*
X303228594Y-66546476D01*
X303257166Y-66575048D01*
X303285737Y-66632190D01*
X303285737Y-66746476D01*
X303257166Y-66803619D01*
X303228594Y-66832190D01*
X303171451Y-66860762D01*
X303028594Y-66860762D01*
X302971451Y-66832190D01*
X302942880Y-66803619D01*
X302914309Y-66746476D01*
X302914309Y-66632190D01*
X302942880Y-66575048D01*
X302971451Y-66546476D01*
X303028594Y-66517905D01*
X302685737Y-67060762D02*
X302685737Y-67432190D01*
X302914309Y-67232190D01*
X302914309Y-67317905D01*
X302942880Y-67375048D01*
X302971451Y-67403619D01*
X303028594Y-67432190D01*
X303171451Y-67432190D01*
X303228594Y-67403619D01*
X303257166Y-67375048D01*
X303285737Y-67317905D01*
X303285737Y-67146476D01*
X303257166Y-67089333D01*
X303228594Y-67060762D01*
X141360601Y-27846380D02*
X140760601Y-27846380D01*
X140760601Y-27989237D01*
X140789173Y-28074952D01*
X140846315Y-28132094D01*
X140903458Y-28160666D01*
X141017744Y-28189237D01*
X141103458Y-28189237D01*
X141217744Y-28160666D01*
X141274887Y-28132094D01*
X141332030Y-28074952D01*
X141360601Y-27989237D01*
X141360601Y-27846380D01*
X140817744Y-28417809D02*
X140789173Y-28446380D01*
X140760601Y-28503523D01*
X140760601Y-28646380D01*
X140789173Y-28703523D01*
X140817744Y-28732094D01*
X140874887Y-28760666D01*
X140932030Y-28760666D01*
X141017744Y-28732094D01*
X141360601Y-28389237D01*
X141360601Y-28760666D01*
X140760601Y-28960666D02*
X140760601Y-29332094D01*
X140989173Y-29132094D01*
X140989173Y-29217809D01*
X141017744Y-29274952D01*
X141046315Y-29303523D01*
X141103458Y-29332094D01*
X141246315Y-29332094D01*
X141303458Y-29303523D01*
X141332030Y-29274952D01*
X141360601Y-29217809D01*
X141360601Y-29046380D01*
X141332030Y-28989237D01*
X141303458Y-28960666D01*
X155648113Y-65946476D02*
X155048113Y-65946476D01*
X155048113Y-66089333D01*
X155076685Y-66175048D01*
X155133827Y-66232190D01*
X155190970Y-66260762D01*
X155305256Y-66289333D01*
X155390970Y-66289333D01*
X155505256Y-66260762D01*
X155562399Y-66232190D01*
X155619542Y-66175048D01*
X155648113Y-66089333D01*
X155648113Y-65946476D01*
X155048113Y-66832190D02*
X155048113Y-66546476D01*
X155333827Y-66517905D01*
X155305256Y-66546476D01*
X155276685Y-66603619D01*
X155276685Y-66746476D01*
X155305256Y-66803619D01*
X155333827Y-66832190D01*
X155390970Y-66860762D01*
X155533827Y-66860762D01*
X155590970Y-66832190D01*
X155619542Y-66803619D01*
X155648113Y-66746476D01*
X155648113Y-66603619D01*
X155619542Y-66546476D01*
X155590970Y-66517905D01*
X155048113Y-67375048D02*
X155048113Y-67260762D01*
X155076685Y-67203619D01*
X155105256Y-67175048D01*
X155190970Y-67117905D01*
X155305256Y-67089333D01*
X155533827Y-67089333D01*
X155590970Y-67117905D01*
X155619542Y-67146476D01*
X155648113Y-67203619D01*
X155648113Y-67317905D01*
X155619542Y-67375048D01*
X155590970Y-67403619D01*
X155533827Y-67432190D01*
X155390970Y-67432190D01*
X155333827Y-67403619D01*
X155305256Y-67375048D01*
X155276685Y-67317905D01*
X155276685Y-67203619D01*
X155305256Y-67146476D01*
X155333827Y-67117905D01*
X155390970Y-67089333D01*
X165173121Y-46896396D02*
X164573121Y-46896396D01*
X164573121Y-47039253D01*
X164601693Y-47124968D01*
X164658835Y-47182110D01*
X164715978Y-47210682D01*
X164830264Y-47239253D01*
X164915978Y-47239253D01*
X165030264Y-47210682D01*
X165087407Y-47182110D01*
X165144550Y-47124968D01*
X165173121Y-47039253D01*
X165173121Y-46896396D01*
X164773121Y-47753539D02*
X165173121Y-47753539D01*
X164544550Y-47610682D02*
X164973121Y-47467825D01*
X164973121Y-47839253D01*
X164573121Y-48182110D02*
X164573121Y-48239253D01*
X164601693Y-48296396D01*
X164630264Y-48324968D01*
X164687407Y-48353539D01*
X164801693Y-48382110D01*
X164944550Y-48382110D01*
X165058835Y-48353539D01*
X165115978Y-48324968D01*
X165144550Y-48296396D01*
X165173121Y-48239253D01*
X165173121Y-48182110D01*
X165144550Y-48124968D01*
X165115978Y-48096396D01*
X165058835Y-48067825D01*
X164944550Y-48039253D01*
X164801693Y-48039253D01*
X164687407Y-48067825D01*
X164630264Y-48096396D01*
X164601693Y-48124968D01*
X164573121Y-48182110D01*
X127073089Y-46896396D02*
X126473089Y-46896396D01*
X126473089Y-47039253D01*
X126501661Y-47124968D01*
X126558803Y-47182110D01*
X126615946Y-47210682D01*
X126730232Y-47239253D01*
X126815946Y-47239253D01*
X126930232Y-47210682D01*
X126987375Y-47182110D01*
X127044518Y-47124968D01*
X127073089Y-47039253D01*
X127073089Y-46896396D01*
X126473089Y-47439253D02*
X126473089Y-47810682D01*
X126701661Y-47610682D01*
X126701661Y-47696396D01*
X126730232Y-47753539D01*
X126758803Y-47782110D01*
X126815946Y-47810682D01*
X126958803Y-47810682D01*
X127015946Y-47782110D01*
X127044518Y-47753539D01*
X127073089Y-47696396D01*
X127073089Y-47524968D01*
X127044518Y-47467825D01*
X127015946Y-47439253D01*
X126730232Y-48153539D02*
X126701661Y-48096396D01*
X126673089Y-48067825D01*
X126615946Y-48039253D01*
X126587375Y-48039253D01*
X126530232Y-48067825D01*
X126501661Y-48096396D01*
X126473089Y-48153539D01*
X126473089Y-48267825D01*
X126501661Y-48324968D01*
X126530232Y-48353539D01*
X126587375Y-48382110D01*
X126615946Y-48382110D01*
X126673089Y-48353539D01*
X126701661Y-48324968D01*
X126730232Y-48267825D01*
X126730232Y-48153539D01*
X126758803Y-48096396D01*
X126787375Y-48067825D01*
X126844518Y-48039253D01*
X126958803Y-48039253D01*
X127015946Y-48067825D01*
X127044518Y-48096396D01*
X127073089Y-48153539D01*
X127073089Y-48267825D01*
X127044518Y-48324968D01*
X127015946Y-48353539D01*
X126958803Y-48382110D01*
X126844518Y-48382110D01*
X126787375Y-48353539D01*
X126758803Y-48324968D01*
X126730232Y-48267825D01*
D12*
X37337370Y-42391473D02*
X37337370Y-43200997D01*
X37289751Y-43296235D01*
X37242132Y-43343854D01*
X37146894Y-43391473D01*
X36956417Y-43391473D01*
X36861179Y-43343854D01*
X36813560Y-43296235D01*
X36765941Y-43200997D01*
X36765941Y-42391473D01*
X36337370Y-43343854D02*
X36194513Y-43391473D01*
X35956417Y-43391473D01*
X35861179Y-43343854D01*
X35813560Y-43296235D01*
X35765941Y-43200997D01*
X35765941Y-43105759D01*
X35813560Y-43010521D01*
X35861179Y-42962902D01*
X35956417Y-42915283D01*
X36146894Y-42867664D01*
X36242132Y-42820045D01*
X36289751Y-42772426D01*
X36337370Y-42677188D01*
X36337370Y-42581950D01*
X36289751Y-42486712D01*
X36242132Y-42439093D01*
X36146894Y-42391473D01*
X35908798Y-42391473D01*
X35765941Y-42439093D01*
X35004036Y-42867664D02*
X34861179Y-42915283D01*
X34813560Y-42962902D01*
X34765941Y-43058140D01*
X34765941Y-43200997D01*
X34813560Y-43296235D01*
X34861179Y-43343854D01*
X34956417Y-43391473D01*
X35337370Y-43391473D01*
X35337370Y-42391473D01*
X35004036Y-42391473D01*
X34908798Y-42439093D01*
X34861179Y-42486712D01*
X34813560Y-42581950D01*
X34813560Y-42677188D01*
X34861179Y-42772426D01*
X34908798Y-42820045D01*
X35004036Y-42867664D01*
X35337370Y-42867664D01*
X33861179Y-43391473D02*
X34337370Y-43391473D01*
X34337370Y-42391473D01*
X32956417Y-43296235D02*
X33004036Y-43343854D01*
X33146894Y-43391473D01*
X33242132Y-43391473D01*
X33384989Y-43343854D01*
X33480227Y-43248616D01*
X33527846Y-43153378D01*
X33575465Y-42962902D01*
X33575465Y-42820045D01*
X33527846Y-42629569D01*
X33480227Y-42534331D01*
X33384989Y-42439093D01*
X33242132Y-42391473D01*
X33146894Y-42391473D01*
X33004036Y-42439093D01*
X32956417Y-42486712D01*
X32099274Y-42391473D02*
X32289751Y-42391473D01*
X32384989Y-42439093D01*
X32432608Y-42486712D01*
X32527846Y-42629569D01*
X32575465Y-42820045D01*
X32575465Y-43200997D01*
X32527846Y-43296235D01*
X32480227Y-43343854D01*
X32384989Y-43391473D01*
X32194513Y-43391473D01*
X32099274Y-43343854D01*
X32051655Y-43296235D01*
X32004036Y-43200997D01*
X32004036Y-42962902D01*
X32051655Y-42867664D01*
X32099274Y-42820045D01*
X32194513Y-42772426D01*
X32384989Y-42772426D01*
X32480227Y-42820045D01*
X32527846Y-42867664D01*
X32575465Y-42962902D01*
X31575465Y-43010521D02*
X30813560Y-43010521D01*
X30384989Y-42486712D02*
X30337370Y-42439093D01*
X30242132Y-42391473D01*
X30004036Y-42391473D01*
X29908798Y-42439093D01*
X29861179Y-42486712D01*
X29813560Y-42581950D01*
X29813560Y-42677188D01*
X29861179Y-42820045D01*
X30432608Y-43391473D01*
X29813560Y-43391473D01*
X29432608Y-43343854D02*
X29289751Y-43391473D01*
X29051655Y-43391473D01*
X28956417Y-43343854D01*
X28908798Y-43296235D01*
X28861179Y-43200997D01*
X28861179Y-43105759D01*
X28908798Y-43010521D01*
X28956417Y-42962902D01*
X29051655Y-42915283D01*
X29242132Y-42867664D01*
X29337370Y-42820045D01*
X29384989Y-42772426D01*
X29432608Y-42677188D01*
X29432608Y-42581950D01*
X29384989Y-42486712D01*
X29337370Y-42439093D01*
X29242132Y-42391473D01*
X29004036Y-42391473D01*
X28861179Y-42439093D01*
X27861179Y-43296235D02*
X27908798Y-43343854D01*
X28051655Y-43391473D01*
X28146894Y-43391473D01*
X28289751Y-43343854D01*
X28384989Y-43248616D01*
X28432608Y-43153378D01*
X28480227Y-42962902D01*
X28480227Y-42820045D01*
X28432608Y-42629569D01*
X28384989Y-42534331D01*
X28289751Y-42439093D01*
X28146894Y-42391473D01*
X28051655Y-42391473D01*
X27908798Y-42439093D01*
X27861179Y-42486712D01*
X27004036Y-42391473D02*
X27194513Y-42391473D01*
X27289751Y-42439093D01*
X27337370Y-42486712D01*
X27432608Y-42629569D01*
X27480227Y-42820045D01*
X27480227Y-43200997D01*
X27432608Y-43296235D01*
X27384989Y-43343854D01*
X27289751Y-43391473D01*
X27099274Y-43391473D01*
X27004036Y-43343854D01*
X26956417Y-43296235D01*
X26908798Y-43200997D01*
X26908798Y-42962902D01*
X26956417Y-42867664D01*
X27004036Y-42820045D01*
X27099274Y-42772426D01*
X27289751Y-42772426D01*
X27384989Y-42820045D01*
X27432608Y-42867664D01*
X27480227Y-42962902D01*
D10*
X32527846Y-45565283D02*
X32527846Y-45970045D01*
X32504036Y-46017664D01*
X32480227Y-46041473D01*
X32432608Y-46065283D01*
X32337370Y-46065283D01*
X32289751Y-46041473D01*
X32265941Y-46017664D01*
X32242132Y-45970045D01*
X32242132Y-45565283D01*
X32027846Y-45612902D02*
X32004036Y-45589093D01*
X31956417Y-45565283D01*
X31837370Y-45565283D01*
X31789751Y-45589093D01*
X31765941Y-45612902D01*
X31742132Y-45660521D01*
X31742132Y-45708140D01*
X31765941Y-45779569D01*
X32051655Y-46065283D01*
X31742132Y-46065283D01*
X97119344Y-84760628D02*
X97286011Y-84522533D01*
X97405058Y-84760628D02*
X97405058Y-84260628D01*
X97214582Y-84260628D01*
X97166963Y-84284438D01*
X97143153Y-84308247D01*
X97119344Y-84355866D01*
X97119344Y-84427295D01*
X97143153Y-84474914D01*
X97166963Y-84498723D01*
X97214582Y-84522533D01*
X97405058Y-84522533D01*
X96666963Y-84260628D02*
X96905058Y-84260628D01*
X96928868Y-84498723D01*
X96905058Y-84474914D01*
X96857439Y-84451104D01*
X96738391Y-84451104D01*
X96690772Y-84474914D01*
X96666963Y-84498723D01*
X96643153Y-84546342D01*
X96643153Y-84665390D01*
X96666963Y-84713009D01*
X96690772Y-84736818D01*
X96738391Y-84760628D01*
X96857439Y-84760628D01*
X96905058Y-84736818D01*
X96928868Y-84713009D01*
D11*
X122310585Y-27846444D02*
X121710585Y-27846444D01*
X121710585Y-27989301D01*
X121739157Y-28075016D01*
X121796299Y-28132158D01*
X121853442Y-28160730D01*
X121967728Y-28189301D01*
X122053442Y-28189301D01*
X122167728Y-28160730D01*
X122224871Y-28132158D01*
X122282014Y-28075016D01*
X122310585Y-27989301D01*
X122310585Y-27846444D01*
X121767728Y-28417873D02*
X121739157Y-28446444D01*
X121710585Y-28503587D01*
X121710585Y-28646444D01*
X121739157Y-28703587D01*
X121767728Y-28732158D01*
X121824871Y-28760730D01*
X121882014Y-28760730D01*
X121967728Y-28732158D01*
X122310585Y-28389301D01*
X122310585Y-28760730D01*
X121767728Y-28989301D02*
X121739157Y-29017873D01*
X121710585Y-29075016D01*
X121710585Y-29217873D01*
X121739157Y-29275016D01*
X121767728Y-29303587D01*
X121824871Y-29332158D01*
X121882014Y-29332158D01*
X121967728Y-29303587D01*
X122310585Y-28960730D01*
X122310585Y-29332158D01*
X150885609Y-9082078D02*
X150285609Y-9082078D01*
X150285609Y-9224936D01*
X150314181Y-9310650D01*
X150371323Y-9367793D01*
X150428466Y-9396364D01*
X150542752Y-9424936D01*
X150628466Y-9424936D01*
X150742752Y-9396364D01*
X150799895Y-9367793D01*
X150857038Y-9310650D01*
X150885609Y-9224936D01*
X150885609Y-9082078D01*
X150542752Y-9767793D02*
X150514181Y-9710650D01*
X150485609Y-9682078D01*
X150428466Y-9653507D01*
X150399895Y-9653507D01*
X150342752Y-9682078D01*
X150314181Y-9710650D01*
X150285609Y-9767793D01*
X150285609Y-9882078D01*
X150314181Y-9939221D01*
X150342752Y-9967793D01*
X150399895Y-9996364D01*
X150428466Y-9996364D01*
X150485609Y-9967793D01*
X150514181Y-9939221D01*
X150542752Y-9882078D01*
X150542752Y-9767793D01*
X150571323Y-9710650D01*
X150599895Y-9682078D01*
X150657038Y-9653507D01*
X150771323Y-9653507D01*
X150828466Y-9682078D01*
X150857038Y-9710650D01*
X150885609Y-9767793D01*
X150885609Y-9882078D01*
X150857038Y-9939221D01*
X150828466Y-9967793D01*
X150771323Y-9996364D01*
X150657038Y-9996364D01*
X150599895Y-9967793D01*
X150571323Y-9939221D01*
X150542752Y-9882078D01*
X306857615Y-27846444D02*
X306257615Y-27846444D01*
X306257615Y-27989301D01*
X306286187Y-28075016D01*
X306343329Y-28132158D01*
X306400472Y-28160730D01*
X306514758Y-28189301D01*
X306600472Y-28189301D01*
X306714758Y-28160730D01*
X306771901Y-28132158D01*
X306829044Y-28075016D01*
X306857615Y-27989301D01*
X306857615Y-27846444D01*
X306257615Y-28389301D02*
X306257615Y-28760730D01*
X306486187Y-28560730D01*
X306486187Y-28646444D01*
X306514758Y-28703587D01*
X306543329Y-28732158D01*
X306600472Y-28760730D01*
X306743329Y-28760730D01*
X306800472Y-28732158D01*
X306829044Y-28703587D01*
X306857615Y-28646444D01*
X306857615Y-28475016D01*
X306829044Y-28417873D01*
X306800472Y-28389301D01*
X306314758Y-28989301D02*
X306286187Y-29017873D01*
X306257615Y-29075016D01*
X306257615Y-29217873D01*
X306286187Y-29275016D01*
X306314758Y-29303587D01*
X306371901Y-29332158D01*
X306429044Y-29332158D01*
X306514758Y-29303587D01*
X306857615Y-28960730D01*
X306857615Y-29332158D01*
X222323169Y-46896396D02*
X221723169Y-46896396D01*
X221723169Y-47039253D01*
X221751741Y-47124968D01*
X221808883Y-47182110D01*
X221866026Y-47210682D01*
X221980312Y-47239253D01*
X222066026Y-47239253D01*
X222180312Y-47210682D01*
X222237455Y-47182110D01*
X222294598Y-47124968D01*
X222323169Y-47039253D01*
X222323169Y-46896396D01*
X221923169Y-47753539D02*
X222323169Y-47753539D01*
X221694598Y-47610682D02*
X222123169Y-47467825D01*
X222123169Y-47839253D01*
X221723169Y-48010682D02*
X221723169Y-48382110D01*
X221951741Y-48182110D01*
X221951741Y-48267825D01*
X221980312Y-48324968D01*
X222008883Y-48353539D01*
X222066026Y-48382110D01*
X222208883Y-48382110D01*
X222266026Y-48353539D01*
X222294598Y-48324968D01*
X222323169Y-48267825D01*
X222323169Y-48096396D01*
X222294598Y-48039253D01*
X222266026Y-48010682D01*
X93735561Y-9082142D02*
X93135561Y-9082142D01*
X93135561Y-9225000D01*
X93164133Y-9310714D01*
X93221275Y-9367857D01*
X93278418Y-9396428D01*
X93392704Y-9425000D01*
X93478418Y-9425000D01*
X93592704Y-9396428D01*
X93649847Y-9367857D01*
X93706990Y-9310714D01*
X93735561Y-9225000D01*
X93735561Y-9082142D01*
X93135561Y-9967857D02*
X93135561Y-9682142D01*
X93421275Y-9653571D01*
X93392704Y-9682142D01*
X93364133Y-9739285D01*
X93364133Y-9882142D01*
X93392704Y-9939285D01*
X93421275Y-9967857D01*
X93478418Y-9996428D01*
X93621275Y-9996428D01*
X93678418Y-9967857D01*
X93706990Y-9939285D01*
X93735561Y-9882142D01*
X93735561Y-9739285D01*
X93706990Y-9682142D01*
X93678418Y-9653571D01*
X50873025Y-46896460D02*
X50273025Y-46896460D01*
X50273025Y-47039317D01*
X50301597Y-47125032D01*
X50358739Y-47182174D01*
X50415882Y-47210746D01*
X50530168Y-47239317D01*
X50615882Y-47239317D01*
X50730168Y-47210746D01*
X50787311Y-47182174D01*
X50844454Y-47125032D01*
X50873025Y-47039317D01*
X50873025Y-46896460D01*
X50273025Y-47439317D02*
X50273025Y-47810746D01*
X50501597Y-47610746D01*
X50501597Y-47696460D01*
X50530168Y-47753603D01*
X50558739Y-47782174D01*
X50615882Y-47810746D01*
X50758739Y-47810746D01*
X50815882Y-47782174D01*
X50844454Y-47753603D01*
X50873025Y-47696460D01*
X50873025Y-47525032D01*
X50844454Y-47467889D01*
X50815882Y-47439317D01*
X50473025Y-48325032D02*
X50873025Y-48325032D01*
X50244454Y-48182174D02*
X50673025Y-48039317D01*
X50673025Y-48410746D01*
X150885609Y-84996492D02*
X150285609Y-84996492D01*
X150285609Y-85139349D01*
X150314181Y-85225064D01*
X150371323Y-85282206D01*
X150428466Y-85310778D01*
X150542752Y-85339349D01*
X150628466Y-85339349D01*
X150742752Y-85310778D01*
X150799895Y-85282206D01*
X150857038Y-85225064D01*
X150885609Y-85139349D01*
X150885609Y-84996492D01*
X150285609Y-85539349D02*
X150285609Y-85939349D01*
X150885609Y-85682206D01*
X150342752Y-86139349D02*
X150314181Y-86167921D01*
X150285609Y-86225064D01*
X150285609Y-86367921D01*
X150314181Y-86425064D01*
X150342752Y-86453635D01*
X150399895Y-86482206D01*
X150457038Y-86482206D01*
X150542752Y-86453635D01*
X150885609Y-86110778D01*
X150885609Y-86482206D01*
X303285737Y-27846444D02*
X302685737Y-27846444D01*
X302685737Y-27989301D01*
X302714309Y-28075016D01*
X302771451Y-28132158D01*
X302828594Y-28160730D01*
X302942880Y-28189301D01*
X303028594Y-28189301D01*
X303142880Y-28160730D01*
X303200023Y-28132158D01*
X303257166Y-28075016D01*
X303285737Y-27989301D01*
X303285737Y-27846444D01*
X302685737Y-28389301D02*
X302685737Y-28760730D01*
X302914309Y-28560730D01*
X302914309Y-28646444D01*
X302942880Y-28703587D01*
X302971451Y-28732158D01*
X303028594Y-28760730D01*
X303171451Y-28760730D01*
X303228594Y-28732158D01*
X303257166Y-28703587D01*
X303285737Y-28646444D01*
X303285737Y-28475016D01*
X303257166Y-28417873D01*
X303228594Y-28389301D01*
X303285737Y-29332158D02*
X303285737Y-28989301D01*
X303285737Y-29160730D02*
X302685737Y-29160730D01*
X302771451Y-29103587D01*
X302828594Y-29046444D01*
X302857166Y-28989301D01*
X36585513Y-9082078D02*
X35985513Y-9082078D01*
X35985513Y-9224936D01*
X36014085Y-9310650D01*
X36071227Y-9367793D01*
X36128370Y-9396364D01*
X36242656Y-9424936D01*
X36328370Y-9424936D01*
X36442656Y-9396364D01*
X36499799Y-9367793D01*
X36556942Y-9310650D01*
X36585513Y-9224936D01*
X36585513Y-9082078D01*
X36042656Y-9653507D02*
X36014085Y-9682078D01*
X35985513Y-9739221D01*
X35985513Y-9882078D01*
X36014085Y-9939221D01*
X36042656Y-9967793D01*
X36099799Y-9996364D01*
X36156942Y-9996364D01*
X36242656Y-9967793D01*
X36585513Y-9624936D01*
X36585513Y-9996364D01*
X231848177Y-65946476D02*
X231248177Y-65946476D01*
X231248177Y-66089333D01*
X231276749Y-66175048D01*
X231333891Y-66232190D01*
X231391034Y-66260762D01*
X231505320Y-66289333D01*
X231591034Y-66289333D01*
X231705320Y-66260762D01*
X231762463Y-66232190D01*
X231819606Y-66175048D01*
X231848177Y-66089333D01*
X231848177Y-65946476D01*
X231248177Y-66803619D02*
X231248177Y-66689333D01*
X231276749Y-66632190D01*
X231305320Y-66603619D01*
X231391034Y-66546476D01*
X231505320Y-66517905D01*
X231733891Y-66517905D01*
X231791034Y-66546476D01*
X231819606Y-66575048D01*
X231848177Y-66632190D01*
X231848177Y-66746476D01*
X231819606Y-66803619D01*
X231791034Y-66832190D01*
X231733891Y-66860762D01*
X231591034Y-66860762D01*
X231533891Y-66832190D01*
X231505320Y-66803619D01*
X231476749Y-66746476D01*
X231476749Y-66632190D01*
X231505320Y-66575048D01*
X231533891Y-66546476D01*
X231591034Y-66517905D01*
X231248177Y-67232190D02*
X231248177Y-67289333D01*
X231276749Y-67346476D01*
X231305320Y-67375048D01*
X231362463Y-67403619D01*
X231476749Y-67432190D01*
X231619606Y-67432190D01*
X231733891Y-67403619D01*
X231791034Y-67375048D01*
X231819606Y-67346476D01*
X231848177Y-67289333D01*
X231848177Y-67232190D01*
X231819606Y-67175048D01*
X231791034Y-67146476D01*
X231733891Y-67117905D01*
X231619606Y-67089333D01*
X231476749Y-67089333D01*
X231362463Y-67117905D01*
X231305320Y-67146476D01*
X231276749Y-67175048D01*
X231248177Y-67232190D01*
X112785577Y-9082078D02*
X112185577Y-9082078D01*
X112185577Y-9224936D01*
X112214149Y-9310650D01*
X112271291Y-9367793D01*
X112328434Y-9396364D01*
X112442720Y-9424936D01*
X112528434Y-9424936D01*
X112642720Y-9396364D01*
X112699863Y-9367793D01*
X112757006Y-9310650D01*
X112785577Y-9224936D01*
X112785577Y-9082078D01*
X112185577Y-9939221D02*
X112185577Y-9824936D01*
X112214149Y-9767793D01*
X112242720Y-9739221D01*
X112328434Y-9682078D01*
X112442720Y-9653507D01*
X112671291Y-9653507D01*
X112728434Y-9682078D01*
X112757006Y-9710650D01*
X112785577Y-9767793D01*
X112785577Y-9882078D01*
X112757006Y-9939221D01*
X112728434Y-9967793D01*
X112671291Y-9996364D01*
X112528434Y-9996364D01*
X112471291Y-9967793D01*
X112442720Y-9939221D01*
X112414149Y-9882078D01*
X112414149Y-9767793D01*
X112442720Y-9710650D01*
X112471291Y-9682078D01*
X112528434Y-9653507D01*
X306857615Y-8796428D02*
X306257615Y-8796428D01*
X306257615Y-8939285D01*
X306286187Y-9025000D01*
X306343329Y-9082142D01*
X306400472Y-9110714D01*
X306514758Y-9139285D01*
X306600472Y-9139285D01*
X306714758Y-9110714D01*
X306771901Y-9082142D01*
X306829044Y-9025000D01*
X306857615Y-8939285D01*
X306857615Y-8796428D01*
X306857615Y-9710714D02*
X306857615Y-9367857D01*
X306857615Y-9539285D02*
X306257615Y-9539285D01*
X306343329Y-9482142D01*
X306400472Y-9425000D01*
X306429044Y-9367857D01*
X306257615Y-10225000D02*
X306257615Y-10110714D01*
X306286187Y-10053571D01*
X306314758Y-10025000D01*
X306400472Y-9967857D01*
X306514758Y-9939285D01*
X306743329Y-9939285D01*
X306800472Y-9967857D01*
X306829044Y-9996428D01*
X306857615Y-10053571D01*
X306857615Y-10167857D01*
X306829044Y-10225000D01*
X306800472Y-10253571D01*
X306743329Y-10282142D01*
X306600472Y-10282142D01*
X306543329Y-10253571D01*
X306514758Y-10225000D01*
X306486187Y-10167857D01*
X306486187Y-10053571D01*
X306514758Y-9996428D01*
X306543329Y-9967857D01*
X306600472Y-9939285D01*
D15*
X97119344Y-87094261D02*
X97143153Y-87118070D01*
X97214582Y-87141880D01*
X97262201Y-87141880D01*
X97333630Y-87118070D01*
X97381249Y-87070451D01*
X97405058Y-87022832D01*
X97428868Y-86927594D01*
X97428868Y-86856166D01*
X97405058Y-86760928D01*
X97381249Y-86713309D01*
X97333630Y-86665690D01*
X97262201Y-86641880D01*
X97214582Y-86641880D01*
X97143153Y-86665690D01*
X97119344Y-86689499D01*
X96690772Y-86641880D02*
X96786011Y-86641880D01*
X96833630Y-86665690D01*
X96857439Y-86689499D01*
X96905058Y-86760928D01*
X96928868Y-86856166D01*
X96928868Y-87046642D01*
X96905058Y-87094261D01*
X96881249Y-87118070D01*
X96833630Y-87141880D01*
X96738391Y-87141880D01*
X96690772Y-87118070D01*
X96666963Y-87094261D01*
X96643153Y-87046642D01*
X96643153Y-86927594D01*
X96666963Y-86879975D01*
X96690772Y-86856166D01*
X96738391Y-86832356D01*
X96833630Y-86832356D01*
X96881249Y-86856166D01*
X96905058Y-86879975D01*
X96928868Y-86927594D01*
D11*
X146123105Y-46896460D02*
X145523105Y-46896460D01*
X145523105Y-47039317D01*
X145551677Y-47125032D01*
X145608819Y-47182174D01*
X145665962Y-47210746D01*
X145780248Y-47239317D01*
X145865962Y-47239317D01*
X145980248Y-47210746D01*
X146037391Y-47182174D01*
X146094534Y-47125032D01*
X146123105Y-47039317D01*
X146123105Y-46896460D01*
X145523105Y-47439317D02*
X145523105Y-47810746D01*
X145751677Y-47610746D01*
X145751677Y-47696460D01*
X145780248Y-47753603D01*
X145808819Y-47782174D01*
X145865962Y-47810746D01*
X146008819Y-47810746D01*
X146065962Y-47782174D01*
X146094534Y-47753603D01*
X146123105Y-47696460D01*
X146123105Y-47525032D01*
X146094534Y-47467889D01*
X146065962Y-47439317D01*
X146123105Y-48096460D02*
X146123105Y-48210746D01*
X146094534Y-48267889D01*
X146065962Y-48296460D01*
X145980248Y-48353603D01*
X145865962Y-48382174D01*
X145637391Y-48382174D01*
X145580248Y-48353603D01*
X145551677Y-48325032D01*
X145523105Y-48267889D01*
X145523105Y-48153603D01*
X145551677Y-48096460D01*
X145580248Y-48067889D01*
X145637391Y-48039317D01*
X145780248Y-48039317D01*
X145837391Y-48067889D01*
X145865962Y-48096460D01*
X145894534Y-48153603D01*
X145894534Y-48267889D01*
X145865962Y-48325032D01*
X145837391Y-48353603D01*
X145780248Y-48382174D01*
X55635529Y-9082078D02*
X55035529Y-9082078D01*
X55035529Y-9224936D01*
X55064101Y-9310650D01*
X55121243Y-9367793D01*
X55178386Y-9396364D01*
X55292672Y-9424936D01*
X55378386Y-9424936D01*
X55492672Y-9396364D01*
X55549815Y-9367793D01*
X55606958Y-9310650D01*
X55635529Y-9224936D01*
X55635529Y-9082078D01*
X55035529Y-9624936D02*
X55035529Y-9996364D01*
X55264101Y-9796364D01*
X55264101Y-9882078D01*
X55292672Y-9939221D01*
X55321243Y-9967793D01*
X55378386Y-9996364D01*
X55521243Y-9996364D01*
X55578386Y-9967793D01*
X55606958Y-9939221D01*
X55635529Y-9882078D01*
X55635529Y-9710650D01*
X55606958Y-9653507D01*
X55578386Y-9624936D01*
D12*
X129825919Y-81819852D02*
X130540205Y-81819852D01*
X130683062Y-81772233D01*
X130778300Y-81676995D01*
X130825919Y-81534138D01*
X130825919Y-81438900D01*
X129921158Y-82248424D02*
X129873539Y-82296043D01*
X129825919Y-82391281D01*
X129825919Y-82629376D01*
X129873539Y-82724614D01*
X129921158Y-82772233D01*
X130016396Y-82819852D01*
X130111634Y-82819852D01*
X130254491Y-82772233D01*
X130825919Y-82200805D01*
X130825919Y-82819852D01*
D11*
X227085673Y-8796428D02*
X226485673Y-8796428D01*
X226485673Y-8939285D01*
X226514245Y-9025000D01*
X226571387Y-9082142D01*
X226628530Y-9110714D01*
X226742816Y-9139285D01*
X226828530Y-9139285D01*
X226942816Y-9110714D01*
X226999959Y-9082142D01*
X227057102Y-9025000D01*
X227085673Y-8939285D01*
X227085673Y-8796428D01*
X227085673Y-9710714D02*
X227085673Y-9367857D01*
X227085673Y-9539285D02*
X226485673Y-9539285D01*
X226571387Y-9482142D01*
X226628530Y-9425000D01*
X226657102Y-9367857D01*
X226542816Y-9939285D02*
X226514245Y-9967857D01*
X226485673Y-10025000D01*
X226485673Y-10167857D01*
X226514245Y-10225000D01*
X226542816Y-10253571D01*
X226599959Y-10282142D01*
X226657102Y-10282142D01*
X226742816Y-10253571D01*
X227085673Y-9910714D01*
X227085673Y-10282142D01*
X65160537Y-27846380D02*
X64560537Y-27846380D01*
X64560537Y-27989237D01*
X64589109Y-28074952D01*
X64646251Y-28132094D01*
X64703394Y-28160666D01*
X64817680Y-28189237D01*
X64903394Y-28189237D01*
X65017680Y-28160666D01*
X65074823Y-28132094D01*
X65131966Y-28074952D01*
X65160537Y-27989237D01*
X65160537Y-27846380D01*
X65160537Y-28760666D02*
X65160537Y-28417809D01*
X65160537Y-28589237D02*
X64560537Y-28589237D01*
X64646251Y-28532094D01*
X64703394Y-28474952D01*
X64731966Y-28417809D01*
X65160537Y-29046380D02*
X65160537Y-29160666D01*
X65131966Y-29217809D01*
X65103394Y-29246380D01*
X65017680Y-29303523D01*
X64903394Y-29332094D01*
X64674823Y-29332094D01*
X64617680Y-29303523D01*
X64589109Y-29274952D01*
X64560537Y-29217809D01*
X64560537Y-29103523D01*
X64589109Y-29046380D01*
X64617680Y-29017809D01*
X64674823Y-28989237D01*
X64817680Y-28989237D01*
X64874823Y-29017809D01*
X64903394Y-29046380D01*
X64931966Y-29103523D01*
X64931966Y-29217809D01*
X64903394Y-29274952D01*
X64874823Y-29303523D01*
X64817680Y-29332094D01*
X46110521Y-27846444D02*
X45510521Y-27846444D01*
X45510521Y-27989301D01*
X45539093Y-28075016D01*
X45596235Y-28132158D01*
X45653378Y-28160730D01*
X45767664Y-28189301D01*
X45853378Y-28189301D01*
X45967664Y-28160730D01*
X46024807Y-28132158D01*
X46081950Y-28075016D01*
X46110521Y-27989301D01*
X46110521Y-27846444D01*
X46110521Y-28760730D02*
X46110521Y-28417873D01*
X46110521Y-28589301D02*
X45510521Y-28589301D01*
X45596235Y-28532158D01*
X45653378Y-28475016D01*
X45681950Y-28417873D01*
X45767664Y-29103587D02*
X45739093Y-29046444D01*
X45710521Y-29017873D01*
X45653378Y-28989301D01*
X45624807Y-28989301D01*
X45567664Y-29017873D01*
X45539093Y-29046444D01*
X45510521Y-29103587D01*
X45510521Y-29217873D01*
X45539093Y-29275016D01*
X45567664Y-29303587D01*
X45624807Y-29332158D01*
X45653378Y-29332158D01*
X45710521Y-29303587D01*
X45739093Y-29275016D01*
X45767664Y-29217873D01*
X45767664Y-29103587D01*
X45796235Y-29046444D01*
X45824807Y-29017873D01*
X45881950Y-28989301D01*
X45996235Y-28989301D01*
X46053378Y-29017873D01*
X46081950Y-29046444D01*
X46110521Y-29103587D01*
X46110521Y-29217873D01*
X46081950Y-29275016D01*
X46053378Y-29303587D01*
X45996235Y-29332158D01*
X45881950Y-29332158D01*
X45824807Y-29303587D01*
X45796235Y-29275016D01*
X45767664Y-29217873D01*
X98498065Y-65946476D02*
X97898065Y-65946476D01*
X97898065Y-66089333D01*
X97926637Y-66175048D01*
X97983779Y-66232190D01*
X98040922Y-66260762D01*
X98155208Y-66289333D01*
X98240922Y-66289333D01*
X98355208Y-66260762D01*
X98412351Y-66232190D01*
X98469494Y-66175048D01*
X98498065Y-66089333D01*
X98498065Y-65946476D01*
X97898065Y-66832190D02*
X97898065Y-66546476D01*
X98183779Y-66517905D01*
X98155208Y-66546476D01*
X98126637Y-66603619D01*
X98126637Y-66746476D01*
X98155208Y-66803619D01*
X98183779Y-66832190D01*
X98240922Y-66860762D01*
X98383779Y-66860762D01*
X98440922Y-66832190D01*
X98469494Y-66803619D01*
X98498065Y-66746476D01*
X98498065Y-66603619D01*
X98469494Y-66546476D01*
X98440922Y-66517905D01*
X97898065Y-67060762D02*
X97898065Y-67432190D01*
X98126637Y-67232190D01*
X98126637Y-67317905D01*
X98155208Y-67375048D01*
X98183779Y-67403619D01*
X98240922Y-67432190D01*
X98383779Y-67432190D01*
X98440922Y-67403619D01*
X98469494Y-67375048D01*
X98498065Y-67317905D01*
X98498065Y-67146476D01*
X98469494Y-67089333D01*
X98440922Y-67060762D01*
D10*
X31777771Y-50518263D02*
X31539676Y-50351597D01*
X31777771Y-50232549D02*
X31277771Y-50232549D01*
X31277771Y-50423025D01*
X31301581Y-50470644D01*
X31325390Y-50494454D01*
X31373009Y-50518263D01*
X31444438Y-50518263D01*
X31492057Y-50494454D01*
X31515866Y-50470644D01*
X31539676Y-50423025D01*
X31539676Y-50232549D01*
X31325390Y-50708739D02*
X31301581Y-50732549D01*
X31277771Y-50780168D01*
X31277771Y-50899216D01*
X31301581Y-50946835D01*
X31325390Y-50970644D01*
X31373009Y-50994454D01*
X31420628Y-50994454D01*
X31492057Y-50970644D01*
X31777771Y-50684930D01*
X31777771Y-50994454D01*
D11*
X306857615Y-46896460D02*
X306257615Y-46896460D01*
X306257615Y-47039317D01*
X306286187Y-47125032D01*
X306343329Y-47182174D01*
X306400472Y-47210746D01*
X306514758Y-47239317D01*
X306600472Y-47239317D01*
X306714758Y-47210746D01*
X306771901Y-47182174D01*
X306829044Y-47125032D01*
X306857615Y-47039317D01*
X306857615Y-46896460D01*
X306457615Y-47753603D02*
X306857615Y-47753603D01*
X306229044Y-47610746D02*
X306657615Y-47467889D01*
X306657615Y-47839317D01*
X306514758Y-48153603D02*
X306486187Y-48096460D01*
X306457615Y-48067889D01*
X306400472Y-48039317D01*
X306371901Y-48039317D01*
X306314758Y-48067889D01*
X306286187Y-48096460D01*
X306257615Y-48153603D01*
X306257615Y-48267889D01*
X306286187Y-48325032D01*
X306314758Y-48353603D01*
X306371901Y-48382174D01*
X306400472Y-48382174D01*
X306457615Y-48353603D01*
X306486187Y-48325032D01*
X306514758Y-48267889D01*
X306514758Y-48153603D01*
X306543329Y-48096460D01*
X306571901Y-48067889D01*
X306629044Y-48039317D01*
X306743329Y-48039317D01*
X306800472Y-48067889D01*
X306829044Y-48096460D01*
X306857615Y-48153603D01*
X306857615Y-48267889D01*
X306829044Y-48325032D01*
X306800472Y-48353603D01*
X306743329Y-48382174D01*
X306629044Y-48382174D01*
X306571901Y-48353603D01*
X306543329Y-48325032D01*
X306514758Y-48267889D01*
X46110521Y-84996492D02*
X45510521Y-84996492D01*
X45510521Y-85139349D01*
X45539093Y-85225064D01*
X45596235Y-85282206D01*
X45653378Y-85310778D01*
X45767664Y-85339349D01*
X45853378Y-85339349D01*
X45967664Y-85310778D01*
X46024807Y-85282206D01*
X46081950Y-85225064D01*
X46110521Y-85139349D01*
X46110521Y-84996492D01*
X45510521Y-85853635D02*
X45510521Y-85739349D01*
X45539093Y-85682206D01*
X45567664Y-85653635D01*
X45653378Y-85596492D01*
X45767664Y-85567921D01*
X45996235Y-85567921D01*
X46053378Y-85596492D01*
X46081950Y-85625064D01*
X46110521Y-85682206D01*
X46110521Y-85796492D01*
X46081950Y-85853635D01*
X46053378Y-85882206D01*
X45996235Y-85910778D01*
X45853378Y-85910778D01*
X45796235Y-85882206D01*
X45767664Y-85853635D01*
X45739093Y-85796492D01*
X45739093Y-85682206D01*
X45767664Y-85625064D01*
X45796235Y-85596492D01*
X45853378Y-85567921D01*
X45510521Y-86425064D02*
X45510521Y-86310778D01*
X45539093Y-86253635D01*
X45567664Y-86225064D01*
X45653378Y-86167921D01*
X45767664Y-86139349D01*
X45996235Y-86139349D01*
X46053378Y-86167921D01*
X46081950Y-86196492D01*
X46110521Y-86253635D01*
X46110521Y-86367921D01*
X46081950Y-86425064D01*
X46053378Y-86453635D01*
X45996235Y-86482206D01*
X45853378Y-86482206D01*
X45796235Y-86453635D01*
X45767664Y-86425064D01*
X45739093Y-86367921D01*
X45739093Y-86253635D01*
X45767664Y-86196492D01*
X45796235Y-86167921D01*
X45853378Y-86139349D01*
X306857615Y-65946476D02*
X306257615Y-65946476D01*
X306257615Y-66089333D01*
X306286187Y-66175048D01*
X306343329Y-66232190D01*
X306400472Y-66260762D01*
X306514758Y-66289333D01*
X306600472Y-66289333D01*
X306714758Y-66260762D01*
X306771901Y-66232190D01*
X306829044Y-66175048D01*
X306857615Y-66089333D01*
X306857615Y-65946476D01*
X306257615Y-66803619D02*
X306257615Y-66689333D01*
X306286187Y-66632190D01*
X306314758Y-66603619D01*
X306400472Y-66546476D01*
X306514758Y-66517905D01*
X306743329Y-66517905D01*
X306800472Y-66546476D01*
X306829044Y-66575048D01*
X306857615Y-66632190D01*
X306857615Y-66746476D01*
X306829044Y-66803619D01*
X306800472Y-66832190D01*
X306743329Y-66860762D01*
X306600472Y-66860762D01*
X306543329Y-66832190D01*
X306514758Y-66803619D01*
X306486187Y-66746476D01*
X306486187Y-66632190D01*
X306514758Y-66575048D01*
X306543329Y-66546476D01*
X306600472Y-66517905D01*
X306457615Y-67375048D02*
X306857615Y-67375048D01*
X306229044Y-67232190D02*
X306657615Y-67089333D01*
X306657615Y-67460762D01*
D15*
X97119344Y-89475513D02*
X97143153Y-89499322D01*
X97214582Y-89523132D01*
X97262201Y-89523132D01*
X97333630Y-89499322D01*
X97381249Y-89451703D01*
X97405058Y-89404084D01*
X97428868Y-89308846D01*
X97428868Y-89237418D01*
X97405058Y-89142180D01*
X97381249Y-89094561D01*
X97333630Y-89046942D01*
X97262201Y-89023132D01*
X97214582Y-89023132D01*
X97143153Y-89046942D01*
X97119344Y-89070751D01*
X96666963Y-89023132D02*
X96905058Y-89023132D01*
X96928868Y-89261227D01*
X96905058Y-89237418D01*
X96857439Y-89213608D01*
X96738391Y-89213608D01*
X96690772Y-89237418D01*
X96666963Y-89261227D01*
X96643153Y-89308846D01*
X96643153Y-89427894D01*
X96666963Y-89475513D01*
X96690772Y-89499322D01*
X96738391Y-89523132D01*
X96857439Y-89523132D01*
X96905058Y-89499322D01*
X96928868Y-89475513D01*
D11*
X193748145Y-65946476D02*
X193148145Y-65946476D01*
X193148145Y-66089333D01*
X193176717Y-66175048D01*
X193233859Y-66232190D01*
X193291002Y-66260762D01*
X193405288Y-66289333D01*
X193491002Y-66289333D01*
X193605288Y-66260762D01*
X193662431Y-66232190D01*
X193719574Y-66175048D01*
X193748145Y-66089333D01*
X193748145Y-65946476D01*
X193148145Y-66832190D02*
X193148145Y-66546476D01*
X193433859Y-66517905D01*
X193405288Y-66546476D01*
X193376717Y-66603619D01*
X193376717Y-66746476D01*
X193405288Y-66803619D01*
X193433859Y-66832190D01*
X193491002Y-66860762D01*
X193633859Y-66860762D01*
X193691002Y-66832190D01*
X193719574Y-66803619D01*
X193748145Y-66746476D01*
X193748145Y-66603619D01*
X193719574Y-66546476D01*
X193691002Y-66517905D01*
X193405288Y-67203619D02*
X193376717Y-67146476D01*
X193348145Y-67117905D01*
X193291002Y-67089333D01*
X193262431Y-67089333D01*
X193205288Y-67117905D01*
X193176717Y-67146476D01*
X193148145Y-67203619D01*
X193148145Y-67317905D01*
X193176717Y-67375048D01*
X193205288Y-67403619D01*
X193262431Y-67432190D01*
X193291002Y-67432190D01*
X193348145Y-67403619D01*
X193376717Y-67375048D01*
X193405288Y-67317905D01*
X193405288Y-67203619D01*
X193433859Y-67146476D01*
X193462431Y-67117905D01*
X193519574Y-67089333D01*
X193633859Y-67089333D01*
X193691002Y-67117905D01*
X193719574Y-67146476D01*
X193748145Y-67203619D01*
X193748145Y-67317905D01*
X193719574Y-67375048D01*
X193691002Y-67403619D01*
X193633859Y-67432190D01*
X193519574Y-67432190D01*
X193462431Y-67403619D01*
X193433859Y-67375048D01*
X193405288Y-67317905D01*
X17535497Y-9082142D02*
X16935497Y-9082142D01*
X16935497Y-9225000D01*
X16964069Y-9310714D01*
X17021211Y-9367857D01*
X17078354Y-9396428D01*
X17192640Y-9425000D01*
X17278354Y-9425000D01*
X17392640Y-9396428D01*
X17449783Y-9367857D01*
X17506926Y-9310714D01*
X17535497Y-9225000D01*
X17535497Y-9082142D01*
X17535497Y-9996428D02*
X17535497Y-9653571D01*
X17535497Y-9825000D02*
X16935497Y-9825000D01*
X17021211Y-9767857D01*
X17078354Y-9710714D01*
X17106926Y-9653571D01*
X241373185Y-46896396D02*
X240773185Y-46896396D01*
X240773185Y-47039253D01*
X240801757Y-47124968D01*
X240858899Y-47182110D01*
X240916042Y-47210682D01*
X241030328Y-47239253D01*
X241116042Y-47239253D01*
X241230328Y-47210682D01*
X241287471Y-47182110D01*
X241344614Y-47124968D01*
X241373185Y-47039253D01*
X241373185Y-46896396D01*
X240973185Y-47753539D02*
X241373185Y-47753539D01*
X240744614Y-47610682D02*
X241173185Y-47467825D01*
X241173185Y-47839253D01*
X240973185Y-48324968D02*
X241373185Y-48324968D01*
X240744614Y-48182110D02*
X241173185Y-48039253D01*
X241173185Y-48410682D01*
X174698129Y-65946476D02*
X174098129Y-65946476D01*
X174098129Y-66089333D01*
X174126701Y-66175048D01*
X174183843Y-66232190D01*
X174240986Y-66260762D01*
X174355272Y-66289333D01*
X174440986Y-66289333D01*
X174555272Y-66260762D01*
X174612415Y-66232190D01*
X174669558Y-66175048D01*
X174698129Y-66089333D01*
X174698129Y-65946476D01*
X174098129Y-66832190D02*
X174098129Y-66546476D01*
X174383843Y-66517905D01*
X174355272Y-66546476D01*
X174326701Y-66603619D01*
X174326701Y-66746476D01*
X174355272Y-66803619D01*
X174383843Y-66832190D01*
X174440986Y-66860762D01*
X174583843Y-66860762D01*
X174640986Y-66832190D01*
X174669558Y-66803619D01*
X174698129Y-66746476D01*
X174698129Y-66603619D01*
X174669558Y-66546476D01*
X174640986Y-66517905D01*
X174098129Y-67060762D02*
X174098129Y-67460762D01*
X174698129Y-67203619D01*
X284235729Y-8796428D02*
X283635729Y-8796428D01*
X283635729Y-8939285D01*
X283664301Y-9025000D01*
X283721443Y-9082142D01*
X283778586Y-9110714D01*
X283892872Y-9139285D01*
X283978586Y-9139285D01*
X284092872Y-9110714D01*
X284150015Y-9082142D01*
X284207158Y-9025000D01*
X284235729Y-8939285D01*
X284235729Y-8796428D01*
X284235729Y-9710714D02*
X284235729Y-9367857D01*
X284235729Y-9539285D02*
X283635729Y-9539285D01*
X283721443Y-9482142D01*
X283778586Y-9425000D01*
X283807158Y-9367857D01*
X283835729Y-10225000D02*
X284235729Y-10225000D01*
X283607158Y-10082142D02*
X284035729Y-9939285D01*
X284035729Y-10310714D01*
X69923041Y-84996492D02*
X69323041Y-84996492D01*
X69323041Y-85139349D01*
X69351613Y-85225064D01*
X69408755Y-85282206D01*
X69465898Y-85310778D01*
X69580184Y-85339349D01*
X69665898Y-85339349D01*
X69780184Y-85310778D01*
X69837327Y-85282206D01*
X69894470Y-85225064D01*
X69923041Y-85139349D01*
X69923041Y-84996492D01*
X69323041Y-85853635D02*
X69323041Y-85739349D01*
X69351613Y-85682206D01*
X69380184Y-85653635D01*
X69465898Y-85596492D01*
X69580184Y-85567921D01*
X69808755Y-85567921D01*
X69865898Y-85596492D01*
X69894470Y-85625064D01*
X69923041Y-85682206D01*
X69923041Y-85796492D01*
X69894470Y-85853635D01*
X69865898Y-85882206D01*
X69808755Y-85910778D01*
X69665898Y-85910778D01*
X69608755Y-85882206D01*
X69580184Y-85853635D01*
X69551613Y-85796492D01*
X69551613Y-85682206D01*
X69580184Y-85625064D01*
X69608755Y-85596492D01*
X69665898Y-85567921D01*
X69323041Y-86110778D02*
X69323041Y-86510778D01*
X69923041Y-86253635D01*
X108023073Y-46896396D02*
X107423073Y-46896396D01*
X107423073Y-47039253D01*
X107451645Y-47124968D01*
X107508787Y-47182110D01*
X107565930Y-47210682D01*
X107680216Y-47239253D01*
X107765930Y-47239253D01*
X107880216Y-47210682D01*
X107937359Y-47182110D01*
X107994502Y-47124968D01*
X108023073Y-47039253D01*
X108023073Y-46896396D01*
X107423073Y-47439253D02*
X107423073Y-47810682D01*
X107651645Y-47610682D01*
X107651645Y-47696396D01*
X107680216Y-47753539D01*
X107708787Y-47782110D01*
X107765930Y-47810682D01*
X107908787Y-47810682D01*
X107965930Y-47782110D01*
X107994502Y-47753539D01*
X108023073Y-47696396D01*
X108023073Y-47524968D01*
X107994502Y-47467825D01*
X107965930Y-47439253D01*
X107423073Y-48010682D02*
X107423073Y-48410682D01*
X108023073Y-48153539D01*
D10*
X164865903Y-78807498D02*
X165032570Y-78569403D01*
X165151618Y-78807498D02*
X165151618Y-78307498D01*
X164961141Y-78307498D01*
X164913522Y-78331308D01*
X164889713Y-78355117D01*
X164865903Y-78402736D01*
X164865903Y-78474165D01*
X164889713Y-78521784D01*
X164913522Y-78545593D01*
X164961141Y-78569403D01*
X165151618Y-78569403D01*
X164389713Y-78807498D02*
X164675427Y-78807498D01*
X164532570Y-78807498D02*
X164532570Y-78307498D01*
X164580189Y-78378927D01*
X164627808Y-78426546D01*
X164675427Y-78450355D01*
X164080189Y-78307498D02*
X164032570Y-78307498D01*
X163984951Y-78331308D01*
X163961141Y-78355117D01*
X163937332Y-78402736D01*
X163913522Y-78497974D01*
X163913522Y-78617022D01*
X163937332Y-78712260D01*
X163961141Y-78759879D01*
X163984951Y-78783688D01*
X164032570Y-78807498D01*
X164080189Y-78807498D01*
X164127808Y-78783688D01*
X164151618Y-78759879D01*
X164175427Y-78712260D01*
X164199237Y-78617022D01*
X164199237Y-78497974D01*
X164175427Y-78402736D01*
X164151618Y-78355117D01*
X164127808Y-78331308D01*
X164080189Y-78307498D01*
X163437332Y-78807498D02*
X163723046Y-78807498D01*
X163580189Y-78807498D02*
X163580189Y-78307498D01*
X163627808Y-78378927D01*
X163675427Y-78426546D01*
X163723046Y-78450355D01*
D16*
X161139189Y-78010682D02*
X161139189Y-76770682D01*
X161139189Y-76770682D02*
X159139189Y-76770682D01*
X159139189Y-76770682D02*
X159139189Y-78010682D01*
X159139189Y-78010682D02*
X161139189Y-78010682D01*
X63587552Y-34504719D02*
X59337552Y-34504719D01*
X63587552Y-40504719D02*
X63587552Y-34504719D01*
X59337552Y-40504719D02*
X59337552Y-34504719D01*
X62880445Y-39004719D02*
X63587552Y-38504719D01*
X63587552Y-39504719D02*
X62880445Y-39004719D01*
X63587552Y-40504719D02*
X59337552Y-40504719D01*
D12*
X103942271Y-76557873D02*
X103942271Y-86557873D01*
X113942271Y-76557873D02*
X103942271Y-76557873D01*
X113942271Y-85557873D02*
X113942271Y-76557873D01*
X103942271Y-86557873D02*
X112942271Y-86557873D01*
X112942271Y-86557873D02*
X113942271Y-85557873D01*
D16*
X34552833Y-49601597D02*
X33312833Y-49601597D01*
X34552833Y-51601597D02*
X34552833Y-49601597D01*
X33312833Y-49601597D02*
X33312833Y-51601597D01*
X33312833Y-51601597D02*
X34552833Y-51601597D01*
X161139189Y-74389430D02*
X159139189Y-74389430D01*
X159139189Y-75629430D02*
X161139189Y-75629430D01*
X159139189Y-74389430D02*
X159139189Y-75629430D01*
X161139189Y-75629430D02*
X161139189Y-74389430D01*
X28550329Y-51601597D02*
X29790329Y-51601597D01*
X29790329Y-51601597D02*
X29790329Y-49601597D01*
X29790329Y-49601597D02*
X28550329Y-49601597D01*
X28550329Y-49601597D02*
X28550329Y-51601597D01*
X97336011Y-79212560D02*
X96236011Y-79212560D01*
X97836011Y-82712560D02*
X96236011Y-82712560D01*
X97836011Y-79712560D02*
X97836011Y-82712560D01*
X96236011Y-82712560D02*
X96236011Y-79212560D01*
X97836011Y-79712560D02*
X97336011Y-79212560D01*
X119253218Y-86345064D02*
X121253218Y-86345064D01*
X121253218Y-85105064D02*
X119253218Y-85105064D01*
X121253218Y-86345064D02*
X121253218Y-85105064D01*
X119253218Y-85105064D02*
X119253218Y-86345064D01*
X118657905Y-74984743D02*
X118657905Y-76224743D01*
X120657905Y-74984743D02*
X118657905Y-74984743D01*
X118657905Y-76224743D02*
X120657905Y-76224743D01*
X120657905Y-76224743D02*
X120657905Y-74984743D01*
X118657905Y-77365995D02*
X118657905Y-78605995D01*
X118657905Y-78605995D02*
X120657905Y-78605995D01*
X120657905Y-77365995D02*
X118657905Y-77365995D01*
X120657905Y-78605995D02*
X120657905Y-77365995D01*
X165306380Y-75580056D02*
X163306380Y-75580056D01*
X163306380Y-76820056D02*
X165306380Y-76820056D01*
X163306380Y-75580056D02*
X163306380Y-76820056D01*
X165306380Y-76820056D02*
X165306380Y-75580056D01*
X119253218Y-87486316D02*
X119253218Y-88726316D01*
X119253218Y-88726316D02*
X121253218Y-88726316D01*
X121253218Y-87486316D02*
X119253218Y-87486316D01*
X121253218Y-88726316D02*
X121253218Y-87486316D01*
X99607889Y-74438804D02*
X101607889Y-74438804D01*
X101607889Y-74438804D02*
X101607889Y-73198804D01*
X99607889Y-73198804D02*
X99607889Y-74438804D01*
X101607889Y-73198804D02*
X99607889Y-73198804D01*
X31246894Y-44939093D02*
X33696894Y-44939093D01*
X30596894Y-46739093D02*
X33696894Y-46739093D01*
X33696894Y-46739093D02*
X33696894Y-44939093D01*
X30596894Y-46739093D02*
X30596894Y-45589093D01*
X31246894Y-44939093D02*
X30596894Y-45589093D01*
X98036011Y-83914438D02*
X96036011Y-83914438D01*
X98036011Y-85154438D02*
X98036011Y-83914438D01*
X96036011Y-83914438D02*
X96036011Y-85154438D01*
X96036011Y-85154438D02*
X98036011Y-85154438D01*
X96036011Y-87535690D02*
X98036011Y-87535690D01*
X98036011Y-87535690D02*
X98036011Y-86295690D01*
X98036011Y-86295690D02*
X96036011Y-86295690D01*
X96036011Y-86295690D02*
X96036011Y-87535690D01*
X127833539Y-78343186D02*
X127833539Y-85963186D01*
X131643539Y-78343186D02*
X127833539Y-78343186D01*
X132913539Y-79613186D02*
X131643539Y-78343186D01*
X132913539Y-85963186D02*
X132913539Y-79613186D01*
X127833539Y-85963186D02*
X132913539Y-85963186D01*
X32171581Y-49601597D02*
X30931581Y-49601597D01*
X30931581Y-51601597D02*
X32171581Y-51601597D01*
X30931581Y-49601597D02*
X30931581Y-51601597D01*
X32171581Y-51601597D02*
X32171581Y-49601597D01*
X98036011Y-89916942D02*
X98036011Y-88676942D01*
X96036011Y-88676942D02*
X96036011Y-89916942D01*
X98036011Y-88676942D02*
X96036011Y-88676942D01*
X96036011Y-89916942D02*
X98036011Y-89916942D01*
X163306380Y-77961308D02*
X163306380Y-79201308D01*
X165306380Y-77961308D02*
X163306380Y-77961308D01*
X163306380Y-79201308D02*
X165306380Y-79201308D01*
X165306380Y-79201308D02*
X165306380Y-77961308D01*
M02*
